<svg width="157" height="68" viewBox="0 0 157 68" fill="none" xmlns="http://www.w3.org/2000/svg">
<path d="M44.8165 3.75037C49.3317 -1.68095 58.3077 1.48635 58.3077 8.26233V58.9693C58.3077 62.9354 54.9555 66.2154 50.7388 66.2154H8.585C2.1696 66.2154 -1.23501 59.146 2.66277 54.4574L44.8165 3.75037Z" fill="white" stroke="black" stroke-width="2"/>
<mask id="path-2-inside-1_0_4" fill="white">
<path fill-rule="evenodd" clip-rule="evenodd" d="M99.9816 43.476C99.9816 43.4681 99.988 43.4617 99.9959 43.4617L-nan -nanL99.9959 43.4617C111.826 43.4617 121.416 33.7325 121.416 21.7309C121.416 9.72924 111.826 9.80845e-07 99.9959 4.63738e-07C99.9911 4.6353e-07 99.9864 -2.68678e-06 99.9816 4.63118e-07L77.9237 -5.01063e-07C73.5564 -6.91963e-07 70.016 3.54041 70.016 7.90771L70.016 35.5846C70.016 39.9519 73.5564 43.4923 77.9237 43.4923L99.9663 43.4923C99.9748 43.4923 99.9816 43.4855 99.9816 43.477L99.9816 43.476Z"/>
</mask>
<path fill-rule="evenodd" clip-rule="evenodd" d="M99.9816 43.476C99.9816 43.4681 99.988 43.4617 99.9959 43.4617L-nan -nanL99.9959 43.4617C111.826 43.4617 121.416 33.7325 121.416 21.7309C121.416 9.72924 111.826 9.80845e-07 99.9959 4.63738e-07C99.9911 4.6353e-07 99.9864 -2.68678e-06 99.9816 4.63118e-07L77.9237 -5.01063e-07C73.5564 -6.91963e-07 70.016 3.54041 70.016 7.90771L70.016 35.5846C70.016 39.9519 73.5564 43.4923 77.9237 43.4923L99.9663 43.4923C99.9748 43.4923 99.9816 43.4855 99.9816 43.477L99.9816 43.476Z" fill="#8F6FF6"/>
<path d="M99.9816 4.63118e-07L99.9816 2L99.9829 2L99.9816 4.63118e-07ZM70.016 7.90771L68.016 7.90771L70.016 7.90771ZM70.016 35.5846L72.016 35.5846L70.016 35.5846ZM119.416 21.7309C119.416 32.6552 110.694 41.4617 99.9959 41.4617L99.9959 45.4617C112.958 45.4617 123.416 34.8098 123.416 21.7309L119.416 21.7309ZM99.9959 2C110.694 2 119.416 10.8066 119.416 21.7309L123.416 21.7309C123.416 8.65192 112.958 -2 99.9959 -2L99.9959 2ZM99.9829 2C99.9869 2 99.9893 2 99.9959 2L99.9959 -2C99.993 -2 99.9858 -2 99.9803 -2L99.9829 2ZM77.9237 2L99.9816 2L99.9816 -2L77.9237 -2L77.9237 2ZM72.016 35.5846L72.016 7.90771L68.016 7.90771L68.016 35.5846L72.016 35.5846ZM99.9663 41.4923L77.9237 41.4923L77.9237 45.4923L99.9663 45.4923L99.9663 41.4923ZM97.9816 43.476L97.9816 43.477L101.982 43.477L101.982 43.476L97.9816 43.476ZM99.9663 45.4923C101.079 45.4923 101.982 44.59 101.982 43.477L97.9816 43.477C97.9816 42.3809 98.8702 41.4923 99.9663 41.4923L99.9663 45.4923ZM77.9237 -2C72.4519 -2 68.016 2.43584 68.016 7.90771L72.016 7.90771C72.016 4.64497 74.661 2 77.9237 2L77.9237 -2ZM68.016 35.5846C68.016 41.0565 72.4519 45.4923 77.9237 45.4923L77.9237 41.4923C74.661 41.4923 72.016 38.8473 72.016 35.5846L68.016 35.5846ZM99.9959 41.4617C98.8841 41.4617 97.9816 42.3628 97.9816 43.476L101.982 43.476C101.982 44.5734 101.092 45.4617 99.9959 45.4617L99.9959 41.4617Z" fill="#1E1F35" mask="url(#path-2-inside-1_0_4)"/>
<path d="M143.161 0.999999C150.252 1 156 6.74797 156 13.8385L156 53.3769C156 60.4674 150.252 66.2154 143.161 66.2154C136.071 66.2154 130.323 60.4674 130.323 53.3769L130.323 13.8385C130.323 6.74798 136.071 0.999999 143.161 0.999999Z" fill="#36BD79" stroke="black" stroke-width="2"/>
</svg>
