<svg width="59" height="59" viewBox="0 0 59 59" fill="none" xmlns="http://www.w3.org/2000/svg">
<rect x="1.47486" y="1.42444" width="56.6927" height="56.6927" rx="28.3464" fill="#EDF7F3"/>
<path d="M22.921 41.3532L16.7199 19.1544H20.3482L24.9661 36.9992H24.3724L24.5373 36.4714L29.9798 19.1544H31.662L37.0715 37.0981H36.5108L36.6427 36.5704L41.3596 19.1544H42.9099L36.8077 41.3532H35.1254L29.485 23.2115H30.1117L29.9798 23.7063L24.6032 41.3532H22.921ZM14.7078 20.3088V19.1544H23.6137V20.3088L19.5566 20.8036H18.633L14.7078 20.3088ZM26.5164 20.3088V19.1544H35.1914V20.3088L31.2992 20.8036L30.2437 20.7706L26.5164 20.3088ZM38.0611 20.3088V19.1544H45.0539V20.3088L41.9863 20.7706H41.3596L38.0611 20.3088Z" fill="#489D78"/>
<rect x="1.47486" y="1.42444" width="56.6927" height="56.6927" rx="28.3464" stroke="#489D78" stroke-width="1.03078"/>
</svg>
