<svg width="59" height="59" viewBox="0 0 59 59" fill="none" xmlns="http://www.w3.org/2000/svg">
<rect x="0.887947" y="1.42462" width="56.6927" height="56.6927" rx="28.3464" fill="#F4F1FE"/>
<path d="M16.0223 41.1554V40.001L19.3537 39.5392H20.0464L23.18 40.001V41.1554H16.0223ZM16.2862 20.309V19.1545H20.2773V20.8038H19.9475L16.2862 20.309ZM18.9249 41.1554V19.2865H20.2773L20.4422 29.4128V41.1554H18.9249ZM27.534 41.1554L19.5846 20.5729H19.2548V19.1545H22.5203L29.711 37.857H28.7544L28.9853 37.2632L35.7472 19.1545H37.0996V20.4739H36.8027L36.4729 21.2986L29.1173 41.1554H27.534ZM33.3723 41.1554V40.001L37.1326 39.5062H38.1881L42.2782 40.001V41.1554H33.3723ZM35.9121 41.1554C35.9561 40.1219 35.9781 39.0334 35.9781 37.8899C36.0001 36.7465 36.0111 35.592 36.0111 34.4265C36.0331 33.2611 36.0441 32.1176 36.0441 30.9961V19.1545H39.5075C39.4855 20.1881 39.4635 21.2766 39.4415 22.42C39.4195 23.5635 39.4085 24.729 39.4085 25.9164C39.4085 27.0819 39.4085 28.2364 39.4085 29.3799V30.8642C39.4085 32.0076 39.4085 33.1731 39.4085 34.3606C39.4085 35.548 39.4195 36.7135 39.4415 37.857C39.4635 39.0004 39.4855 40.0999 39.5075 41.1554H35.9121ZM37.4954 20.8038V19.1545H42.2452V20.309L38.1881 20.8038H37.4954Z" fill="#8F6FF6"/>
<rect x="0.887947" y="1.42462" width="56.6927" height="56.6927" rx="28.3464" stroke="#8F6FF6" stroke-width="1.03078"/>
</svg>
