<svg width="23" height="16" viewBox="0 0 23 16" fill="none" xmlns="http://www.w3.org/2000/svg">
<g clip-path="url(#clip0_1_1029)">
<rect width="22.4" height="16" rx="1.6" fill="white"/>
<mask id="mask0_1_1029" style="mask-type:luminance" maskUnits="userSpaceOnUse" x="0" y="0" width="23" height="16">
<rect width="22.4" height="16" rx="1.6" fill="white"/>
</mask>
<g mask="url(#mask0_1_1029)">
<rect width="22.4" height="16" fill="#05AB41"/>
<path fill-rule="evenodd" clip-rule="evenodd" d="M2.8258 8.44774C2.501 8.23757 2.501 7.76236 2.8258 7.5522L10.9107 2.32078C11.087 2.20669 11.3139 2.20669 11.4902 2.32078L19.5751 7.5522C19.8999 7.76236 19.8999 8.23757 19.5751 8.44774L11.4902 13.6792C11.3139 13.7932 11.087 13.7932 10.9107 13.6792L2.8258 8.44774Z" fill="#FDD216"/>
</g>
<g clip-path="url(#clip1_1_1029)">
<circle cx="11.1992" cy="8.00042" r="3.73333" fill="#053087"/>
<mask id="mask1_1_1029" style="mask-type:luminance" maskUnits="userSpaceOnUse" x="7" y="4" width="8" height="8">
<circle cx="11.1992" cy="8.00042" r="3.73333" fill="white"/>
</mask>
<g mask="url(#mask1_1_1029)">
<path d="M7.02292 7.0247C7.60908 6.55004 9.50056 6.9997 11.2662 7.47069C13.0319 7.94169 14.8734 8.92889 15.3423 9.50791" stroke="white" stroke-width="1.06667" stroke-linecap="square"/>
</g>
</g>
</g>
<defs>
<clipPath id="clip0_1_1029">
<rect width="22.4" height="16" fill="white"/>
</clipPath>
<clipPath id="clip1_1_1029">
<rect width="8" height="8" fill="white" transform="translate(7.46631 4.26685)"/>
</clipPath>
</defs>
</svg>
