<svg width="220" height="221" viewBox="0 0 220 221" fill="none" xmlns="http://www.w3.org/2000/svg">
<rect x="-1" y="1" width="218" height="218" rx="109" transform="matrix(-1 0 0 1 218 0.5)" fill="#FBFCFD"/>
<path d="M65.2578 40.0361C65.3178 40.4761 65.2578 40.8761 65.088 41.2361C64.9082 41.5961 64.6384 41.9061 64.2588 42.1561C63.8591 42.4261 63.4395 42.5661 63 42.5861C62.5604 42.6061 62.1408 42.4961 61.7312 42.2661C61.3216 42.0361 60.9719 41.6861 60.6722 41.2261C60.3625 40.7561 60.1826 40.2961 60.1327 39.8261C60.0827 39.3661 60.1527 38.9261 60.3325 38.5261C60.5223 38.1261 60.822 37.7961 61.2216 37.5261C61.6013 37.2761 61.9809 37.1361 62.3805 37.1061C62.7802 37.0761 63.1598 37.1861 63.5394 37.4061L65.1379 36.3361C64.4386 35.7861 63.6693 35.5061 62.8301 35.4961C61.9809 35.4861 61.1817 35.7361 60.4024 36.2561C59.743 36.6961 59.2435 37.2461 58.9138 37.9061C58.5841 38.5661 58.4443 39.2661 58.4942 40.0161C58.5442 40.7661 58.7939 41.4861 59.2435 42.1661C59.6931 42.8561 60.2526 43.3661 60.9119 43.6961C61.5713 44.0261 62.2707 44.1761 63 44.1161C63.7293 44.0661 64.4286 43.8161 65.088 43.3761C65.8672 42.8561 66.4167 42.2061 66.7364 41.4161C67.0561 40.6361 67.0961 39.8061 66.8563 38.9361L65.2578 40.0061V40.0361ZM75.7079 30.2361C75.0885 29.8061 74.4091 29.5661 73.6698 29.5161C72.9305 29.4661 72.2012 29.6061 71.4919 29.9461C70.7926 30.2861 70.2231 30.7561 69.7935 31.3661C69.3639 31.9761 69.1142 32.6661 69.0442 33.4161C68.9743 34.1661 69.1142 34.9161 69.4638 35.6561C69.8135 36.3961 70.303 36.9861 70.9224 37.4061C71.5419 37.8261 72.2212 38.0661 72.9705 38.1161C73.7098 38.1661 74.4391 38.0261 75.1384 37.6861C75.8378 37.3461 76.4072 36.8761 76.8368 36.2661C77.2664 35.6561 77.5162 34.9661 77.5761 34.2161C77.6361 33.4661 77.4962 32.7161 77.1465 31.9761C76.7969 31.2361 76.3173 30.6561 75.6979 30.2261L75.7079 30.2361ZM75.5481 35.4661C75.2983 35.8361 74.9486 36.1261 74.4991 36.3461C74.0495 36.5661 73.5999 36.6461 73.1603 36.6061C72.7207 36.5661 72.3111 36.4061 71.9315 36.1061C71.5618 35.8161 71.2521 35.4161 71.0124 34.9061C70.7726 34.3961 70.6627 33.9061 70.6827 33.4361C70.7027 32.9661 70.8325 32.5461 71.0823 32.1761C71.3321 31.8061 71.6817 31.5161 72.1413 31.2961C72.5909 31.0761 73.0404 30.9961 73.48 31.0261C73.9196 31.0661 74.3292 31.2261 74.6989 31.5161C75.0685 31.8061 75.3782 32.1961 75.608 32.7061C75.8478 33.2161 75.9577 33.7061 75.9477 34.1761C75.9377 34.6561 75.8078 35.0761 75.5581 35.4461L75.5481 35.4661ZM85.059 24.8561L86.7574 30.3561L81.4625 25.9861L79.874 26.4861L82.3416 34.4961L83.9301 33.9961L82.2417 28.5061L87.5367 32.8661L89.1252 32.3661L86.6575 24.3561L85.069 24.8561H85.059ZM97.1476 22.2261L91.1533 23.2961L91.383 24.6361L93.561 24.2461L94.7798 31.1561L96.4183 30.8661L95.1994 23.9561L97.3774 23.5661L97.1476 22.2261ZM107.558 25.4161C107.847 24.9561 107.977 24.4461 107.947 23.8961C107.917 23.4161 107.777 22.9861 107.538 22.6161C107.288 22.2461 106.938 21.9561 106.469 21.7561C106.009 21.5561 105.45 21.4761 104.81 21.5061L101.703 21.6861L102.183 30.0461L103.841 29.9461L103.651 26.6861L104.431 26.6361L106.449 29.7861L108.377 29.6761L106.199 26.4061C106.818 26.2061 107.268 25.8661 107.558 25.4061V25.4161ZM104.97 25.3561L103.581 25.4361L103.442 22.9761L104.83 22.8961C105.28 22.8661 105.62 22.9561 105.859 23.1561C106.089 23.3561 106.219 23.6461 106.239 24.0261C106.259 24.4161 106.169 24.7261 105.959 24.9661C105.749 25.1961 105.42 25.3261 104.97 25.3561ZM115.21 21.5061L111.664 29.6661L113.412 29.7861L114.062 28.2361L117.358 28.4661L117.798 30.0961L119.556 30.2161L117.149 21.6461L115.21 21.5061ZM114.601 26.9261L116.04 23.5161L116.999 27.0961L114.601 26.9261ZM125.76 25.5061C126.05 25.1461 126.4 24.8861 126.819 24.7461C127.239 24.5961 127.679 24.5761 128.148 24.6761C128.588 24.7661 128.957 24.9461 129.257 25.2161C129.557 25.4861 129.757 25.8361 129.857 26.2661L131.735 26.6661C131.635 25.7761 131.295 25.0261 130.706 24.4161C130.116 23.8061 129.377 23.3961 128.468 23.2061C127.689 23.0461 126.959 23.0761 126.26 23.2961C125.561 23.5161 124.961 23.9161 124.472 24.4761C123.982 25.0361 123.652 25.7261 123.483 26.5261C123.313 27.3361 123.343 28.0961 123.573 28.8061C123.802 29.5161 124.192 30.1161 124.741 30.6061C125.291 31.0961 125.96 31.4161 126.73 31.5861C127.649 31.7761 128.488 31.7161 129.267 31.3961C130.046 31.0761 130.656 30.5261 131.095 29.7461L129.217 29.3461C128.947 29.6961 128.628 29.9361 128.248 30.0661C127.868 30.1961 127.459 30.2161 127.019 30.1161C126.55 30.0161 126.15 29.8161 125.83 29.5161C125.511 29.2161 125.291 28.8361 125.171 28.3861C125.051 27.9361 125.051 27.4361 125.161 26.8961C125.271 26.3461 125.481 25.8961 125.77 25.5261L125.76 25.5061ZM136.081 26.6461L138.169 27.3761L135.881 34.0061L137.449 34.5561L139.737 27.9261L141.825 28.6561L142.265 27.3761L136.51 25.3561L136.071 26.6361L136.081 26.6461ZM150.097 30.7961C149.398 30.4461 148.679 30.2861 147.939 30.3261C147.19 30.3661 146.511 30.5861 145.881 30.9961C145.252 31.4061 144.752 31.9761 144.393 32.7061C144.023 33.4461 143.873 34.1861 143.923 34.9461C143.973 35.7061 144.213 36.3861 144.623 37.0161C145.042 37.6361 145.602 38.1261 146.291 38.4761C146.99 38.8261 147.71 38.9861 148.449 38.9461C149.198 38.9061 149.878 38.6861 150.507 38.2761C151.136 37.8661 151.626 37.2861 151.996 36.5561C152.355 35.8261 152.515 35.0861 152.465 34.3361C152.415 33.5861 152.185 32.8961 151.776 32.2761C151.356 31.6561 150.807 31.1661 150.097 30.8161V30.7961ZM150.467 35.7661C150.217 36.2661 149.908 36.6561 149.528 36.9361C149.148 37.2161 148.739 37.3761 148.299 37.4061C147.859 37.4361 147.41 37.3461 146.97 37.1161C146.521 36.8861 146.181 36.5861 145.931 36.2161C145.692 35.8361 145.562 35.4161 145.562 34.9361C145.562 34.4561 145.682 33.9761 145.931 33.4661C146.181 32.9661 146.491 32.5761 146.87 32.2961C147.25 32.0161 147.66 31.8661 148.099 31.8361C148.539 31.8061 148.988 31.9061 149.438 32.1361C149.888 32.3661 150.227 32.6561 150.467 33.0361C150.707 33.4061 150.827 33.8261 150.837 34.3061C150.837 34.7761 150.717 35.2661 150.467 35.7661ZM161.626 38.2861C161.377 37.8361 160.987 37.4361 160.458 37.0761L157.88 35.3061L153.214 42.2261L154.593 43.1761L156.411 40.4761L157.061 40.9261L156.751 44.6661L158.34 45.7561L158.589 41.8261C159.199 42.0461 159.758 42.0561 160.268 41.8661C160.777 41.6761 161.187 41.3561 161.497 40.9061C161.766 40.5061 161.916 40.0861 161.946 39.6361C161.976 39.1861 161.866 38.7361 161.616 38.2961L161.626 38.2861ZM160.068 39.9561C159.848 40.2761 159.588 40.4661 159.279 40.5261C158.969 40.5861 158.629 40.4861 158.26 40.2261L157.111 39.4361L158.479 37.4061L159.628 38.1961C159.998 38.4561 160.218 38.7361 160.288 39.0361C160.358 39.3361 160.288 39.6461 160.068 39.9661V39.9561Z" fill="#192146"/>
<rect x="-1" y="1" width="218" height="218" rx="109" transform="matrix(-1 0 0 1 218 0.5)" stroke="#192146" stroke-width="2"/>
</svg>
