<svg width="92" height="53" viewBox="0 0 92 53" fill="none" xmlns="http://www.w3.org/2000/svg">
<rect x="21" y="1.08496" width="20" height="20" rx="10" fill="url(#paint0_linear_1_861)"/>
<rect x="21" y="1.08496" width="20" height="20" rx="10" stroke="#1E1F35" stroke-width="2"/>
<rect x="35" y="1.08496" width="20" height="20" rx="10" fill="url(#paint1_linear_1_861)"/>
<rect x="35" y="1.08496" width="20" height="20" rx="10" stroke="#1E1F35" stroke-width="2"/>
<rect x="49" y="1.08496" width="20" height="20" rx="10" fill="url(#paint2_linear_1_861)"/>
<rect x="49" y="1.08496" width="20" height="20" rx="10" stroke="#1E1F35" stroke-width="2"/>
<rect x="1" y="10.085" width="90" height="41" rx="20.5" fill="url(#paint3_linear_1_861)" stroke="#1E1F35" stroke-width="2"/>
<path d="M23.2716 33.355C23.6851 33.355 24.0224 33.2951 24.2835 33.1755C24.5555 33.0449 24.7623 32.8763 24.9037 32.6695C25.056 32.4519 25.1594 32.2071 25.2138 31.9351C25.2682 31.6522 25.2954 31.3639 25.2954 31.0701V30.7763H27.4497V31.0701C27.4497 32.4302 27.0906 33.4801 26.3725 34.22C25.6653 34.949 24.6317 35.3134 23.2716 35.3134C21.966 35.3134 20.9324 34.9163 20.1708 34.122C19.4091 33.3278 19.0283 32.169 19.0283 30.6458V28.0998C19.0283 27.3708 19.1262 26.718 19.3221 26.1413C19.5179 25.5538 19.8008 25.0642 20.1708 24.6725C20.5407 24.2699 20.9868 23.9653 21.509 23.7585C22.0313 23.5409 22.6188 23.4321 23.2716 23.4321C23.9462 23.4321 24.5446 23.5301 25.0669 23.7259C25.5892 23.9217 26.0244 24.2046 26.3725 24.5746C26.7316 24.9445 26.9982 25.3906 27.1722 25.9128C27.3572 26.4351 27.4497 27.0226 27.4497 27.6755V27.9692H25.2954V27.6755C25.2954 27.4034 25.2627 27.1314 25.1975 26.8594C25.1322 26.5874 25.0234 26.3426 24.8711 26.125C24.7187 25.9074 24.512 25.7333 24.2509 25.6028C23.9897 25.4613 23.6633 25.3906 23.2716 25.3906C22.9126 25.3906 22.6025 25.4613 22.3414 25.6028C22.0803 25.7333 21.8626 25.9183 21.6886 26.1576C21.5145 26.3861 21.3839 26.6581 21.2969 26.9737C21.2207 27.2783 21.1826 27.5993 21.1826 27.9366V30.809C21.1826 31.1789 21.2207 31.5216 21.2969 31.8372C21.373 32.1418 21.4927 32.4084 21.6559 32.6369C21.8191 32.8654 22.0313 33.0449 22.2924 33.1755C22.5644 33.2951 22.8908 33.355 23.2716 33.355Z" fill="white"/>
<path d="M28.6297 26.99H32.057V28.1651H32.3508C32.5031 27.719 32.7588 27.3762 33.1179 27.1369C33.4878 26.8866 33.9285 26.7615 34.4398 26.7615C35.245 26.7615 35.8924 27.0172 36.382 27.5286C36.8716 28.0291 37.1164 28.7961 37.1164 29.8298V30.1888L34.9947 30.3847V30.1562C34.9947 29.7101 34.8805 29.3565 34.652 29.0953C34.4235 28.8233 34.0808 28.6873 33.6238 28.6873C33.1668 28.6873 32.8078 28.8451 32.5467 29.1606C32.2855 29.4761 32.155 29.9277 32.155 30.5152V33.1265H34.0155V35.085H28.4339V33.1265H30.0986V28.9485H28.6297V26.99Z" fill="white"/>
<path d="M44.0086 26.99H46.065V37.0761C46.065 37.446 45.9453 37.7506 45.7059 37.99C45.4775 38.2294 45.1782 38.3491 44.8083 38.3491H39.9938V36.3906H43.568C43.8617 36.3906 44.0086 36.2274 44.0086 35.901V33.9099H43.7148C43.3558 34.8456 42.5833 35.3134 41.3973 35.3134C40.9948 35.3134 40.6194 35.2482 40.2712 35.1176C39.923 34.987 39.6184 34.7857 39.3573 34.5137C39.0961 34.2417 38.8894 33.9044 38.7371 33.5019C38.5956 33.0884 38.5249 32.6042 38.5249 32.0493V26.99H40.5813V31.625C40.5813 32.2017 40.7173 32.6532 40.9893 32.9796C41.2613 33.2951 41.6693 33.4529 42.2134 33.4529C42.8335 33.4529 43.2851 33.2571 43.568 32.8654C43.8617 32.4628 44.0086 31.9188 44.0086 31.2333V26.99Z" fill="white"/>
<path d="M49.6605 38.3491H47.6041V26.99H49.6605V28.1651H49.9542C50.1718 27.719 50.4874 27.3762 50.9008 27.1369C51.3143 26.8866 51.842 26.7615 52.4839 26.7615C52.9626 26.7615 53.4142 26.854 53.8385 27.039C54.2737 27.2239 54.6491 27.4959 54.9646 27.855C55.291 28.2032 55.5467 28.6329 55.7317 29.1443C55.9275 29.6557 56.0255 30.2378 56.0255 30.8906V31.1844C56.0255 31.8481 55.933 32.4356 55.748 32.947C55.563 33.4583 55.3128 33.8936 54.9973 34.2526C54.6817 34.6008 54.3064 34.8674 53.8712 35.0523C53.4468 35.2264 52.9844 35.3134 52.4839 35.3134C52.114 35.3134 51.793 35.2754 51.521 35.1992C51.249 35.123 51.0096 35.0197 50.8029 34.8891C50.6071 34.7585 50.4384 34.6117 50.297 34.4485C50.1664 34.2744 50.0522 34.0948 49.9542 33.9099H49.6605V38.3491ZM51.8148 33.355C52.4567 33.355 52.9735 33.1591 53.3652 32.7674C53.7678 32.3649 53.9691 31.8209 53.9691 31.1354V30.9396C53.9691 30.2541 53.7678 29.7155 53.3652 29.3238C52.9735 28.9213 52.4567 28.72 51.8148 28.72C51.1728 28.72 50.6506 28.9267 50.248 29.3401C49.8563 29.7427 49.6605 30.2759 49.6605 30.9396V31.1354C49.6605 31.7991 49.8563 32.3377 50.248 32.7511C50.6506 33.1537 51.1728 33.355 51.8148 33.355Z" fill="white"/>
<path d="M56.5002 26.99H58.8994V23.6606H60.9557V26.99H63.8771V28.9485H60.9557V32.6369C60.9557 32.9633 61.1026 33.1265 61.3964 33.1265H63.5833V35.085H60.156C59.7861 35.085 59.4815 34.9653 59.2421 34.7259C59.0136 34.4865 58.8994 34.1819 58.8994 33.812V28.9485H56.5002V26.99Z" fill="white"/>
<path d="M73.4216 31.1354C73.4216 31.81 73.3074 32.4084 73.0789 32.9307C72.8504 33.442 72.5403 33.8772 72.1486 34.2363C71.7569 34.5845 71.3054 34.851 70.794 35.036C70.2935 35.221 69.7658 35.3134 69.2109 35.3134C68.656 35.3134 68.1229 35.221 67.6115 35.036C67.111 34.851 66.6649 34.5845 66.2732 34.2363C65.8815 33.8772 65.5715 33.442 65.343 32.9307C65.1145 32.4084 65.0002 31.81 65.0002 31.1354V30.9396C65.0002 30.2759 65.1145 29.6883 65.343 29.1769C65.5715 28.6547 65.8815 28.214 66.2732 27.855C66.6649 27.4959 67.111 27.2239 67.6115 27.039C68.1229 26.854 68.656 26.7615 69.2109 26.7615C69.7658 26.7615 70.2935 26.854 70.794 27.039C71.3054 27.2239 71.7569 27.4959 72.1486 27.855C72.5403 28.214 72.8504 28.6547 73.0789 29.1769C73.3074 29.6883 73.4216 30.2759 73.4216 30.9396V31.1354ZM69.2109 33.355C69.5047 33.355 69.7821 33.306 70.0433 33.2081C70.3044 33.1102 70.5329 32.9687 70.7287 32.7838C70.9246 32.5988 71.0769 32.3758 71.1857 32.1146C71.3054 31.8426 71.3652 31.538 71.3652 31.2007V30.8743C71.3652 30.537 71.3054 30.2378 71.1857 29.9766C71.0769 29.7046 70.9246 29.4761 70.7287 29.2912C70.5329 29.1062 70.3044 28.9648 70.0433 28.8669C69.7821 28.7689 69.5047 28.72 69.2109 28.72C68.9172 28.72 68.6397 28.7689 68.3786 28.8669C68.1175 28.9648 67.889 29.1062 67.6931 29.2912C67.4973 29.4761 67.3395 29.7046 67.2198 29.9766C67.111 30.2378 67.0566 30.537 67.0566 30.8743V31.2007C67.0566 31.538 67.111 31.8426 67.2198 32.1146C67.3395 32.3758 67.4973 32.5988 67.6931 32.7838C67.889 32.9687 68.1175 33.1102 68.3786 33.2081C68.6397 33.306 68.9172 33.355 69.2109 33.355Z" fill="white"/>
<defs>
<linearGradient id="paint0_linear_1_861" x1="31" y1="0.0849609" x2="31" y2="22.085" gradientUnits="userSpaceOnUse">
<stop stop-color="#B194FF"/>
<stop offset="1" stop-color="#8F6FF6"/>
</linearGradient>
<linearGradient id="paint1_linear_1_861" x1="45" y1="0.0849609" x2="45" y2="22.085" gradientUnits="userSpaceOnUse">
<stop stop-color="#B194FF"/>
<stop offset="1" stop-color="#8F6FF6"/>
</linearGradient>
<linearGradient id="paint2_linear_1_861" x1="59" y1="0.0849609" x2="59" y2="22.085" gradientUnits="userSpaceOnUse">
<stop stop-color="#B194FF"/>
<stop offset="1" stop-color="#8F6FF6"/>
</linearGradient>
<linearGradient id="paint3_linear_1_861" x1="46" y1="9.08496" x2="46" y2="52.085" gradientUnits="userSpaceOnUse">
<stop stop-color="#B194FF"/>
<stop offset="1" stop-color="#8F6FF6"/>
</linearGradient>
</defs>
</svg>
