<svg width="96" height="96" viewBox="0 0 96 96" fill="none" xmlns="http://www.w3.org/2000/svg">
<path d="M63.1152 17.3556C63.1152 8.77919 70.0678 1.82666 78.6442 1.82666C87.2206 1.82666 94.1731 8.77919 94.1731 17.3556C94.1731 25.932 87.2206 32.8845 78.6442 32.8845C70.0678 32.8845 63.1152 25.932 63.1152 17.3556Z" fill="#8F6FF6" stroke="#1E1F35" stroke-width="2"/>
<path d="M32.0576 32.8845H63.1155V63.9424H32.0576V32.8845Z" fill="#36BD79" stroke="black" stroke-width="2"/>
<path d="M63.1152 63.9424H94.1731V95.0002H63.1152V63.9424Z" fill="#36BD79" stroke="black" stroke-width="2"/>
<path d="M1 16.5289C1 7.95255 7.95254 1 16.5289 1C25.1053 1 32.0578 7.95254 32.0578 16.5289V32.8843H1V16.5289Z" fill="white" stroke="black" stroke-width="2"/>
<path d="M1 79.4713C1 70.8949 7.95253 63.9424 16.5289 63.9424C25.1053 63.9424 32.0578 70.8949 32.0578 79.4713C32.0578 88.0477 25.1053 95.0002 16.5289 95.0002C7.95253 95.0002 1 88.0477 1 79.4713Z" fill="#8F6FF6" stroke="#1E1F35" stroke-width="2"/>
</svg>
