<svg width="26" height="26" viewBox="0 0 26 26" fill="none" xmlns="http://www.w3.org/2000/svg">
<path d="M3.52979 18.9824V22.116C3.52979 22.4046 3.75656 22.6314 4.04517 22.6314H7.17874C7.31274 22.6314 7.44674 22.5798 7.53951 22.4768L18.7956 11.231L14.9302 7.36557L3.6844 18.6113C3.58132 18.7144 3.52979 18.8381 3.52979 18.9824ZM21.7848 8.24173C21.8804 8.14637 21.9562 8.03309 22.0079 7.9084C22.0597 7.7837 22.0863 7.65003 22.0863 7.51503C22.0863 7.38003 22.0597 7.24636 22.0079 7.12166C21.9562 6.99696 21.8804 6.88369 21.7848 6.78833L19.3728 4.37631C19.2775 4.28076 19.1642 4.20494 19.0395 4.15322C18.9148 4.10149 18.7811 4.07487 18.6461 4.07487C18.5111 4.07487 18.3775 4.10149 18.2528 4.15322C18.1281 4.20494 18.0148 4.28076 17.9194 4.37631L16.0331 6.26263L19.8985 10.128L21.7848 8.24173V8.24173Z" fill="#8F6FF6"/>
</svg>
