<svg width="75" height="59" viewBox="0 0 75 59" fill="none" xmlns="http://www.w3.org/2000/svg">
<rect x="1.34437" y="17.8741" width="64" height="41" transform="rotate(-15 1.34437 17.8741)" fill="#36BD79" stroke="black" stroke-width="2"/>
<rect x="5.55957" y="8.89331" width="64" height="41" fill="#36BD79" stroke="black" stroke-width="2"/>
<path d="M30.7859 22.5507V24.0685H25.9714V27.4142H29.7251V28.932H25.9714V33.8934H24.1108V22.5507H30.7859Z" fill="white"/>
<path d="M33.2935 23.7095C32.9562 23.7095 32.6734 23.5952 32.4449 23.3667C32.2164 23.1382 32.1021 22.8553 32.1021 22.5181C32.1021 22.1808 32.2164 21.8979 32.4449 21.6694C32.6734 21.4409 32.9562 21.3267 33.2935 21.3267C33.6199 21.3267 33.8974 21.4409 34.1259 21.6694C34.3544 21.8979 34.4686 22.1808 34.4686 22.5181C34.4686 22.8553 34.3544 23.1382 34.1259 23.3667C33.8974 23.5952 33.6199 23.7095 33.2935 23.7095ZM34.2075 24.9008V33.8934H32.3469V24.9008H34.2075Z" fill="white"/>
<path d="M35.8668 29.3563C35.8668 28.4533 36.0518 27.6536 36.4217 26.9572C36.8025 26.2609 37.3139 25.7223 37.9558 25.3415C38.6087 24.9498 39.3268 24.754 40.1101 24.754C40.8174 24.754 41.4321 24.8954 41.9544 25.1783C42.4875 25.4503 42.9118 25.793 43.2274 26.2065V24.9008H45.1042V33.8934H43.2274V32.5552C42.9118 32.9795 42.4821 33.3331 41.938 33.616C41.394 33.8989 40.7738 34.0403 40.0775 34.0403C39.305 34.0403 38.5978 33.8445 37.9558 33.4528C37.3139 33.0502 36.8025 32.4953 36.4217 31.7881C36.0518 31.07 35.8668 30.2594 35.8668 29.3563ZM43.2274 29.389C43.2274 28.7688 43.0968 28.2302 42.8357 27.7733C42.5854 27.3163 42.2536 26.9681 41.8401 26.7287C41.4267 26.4894 40.9806 26.3697 40.5018 26.3697C40.0231 26.3697 39.577 26.4894 39.1636 26.7287C38.7501 26.9572 38.4128 27.3 38.1517 27.7569C37.9014 28.203 37.7763 28.7362 37.7763 29.3563C37.7763 29.9765 37.9014 30.5205 38.1517 30.9884C38.4128 31.4562 38.7501 31.8153 39.1636 32.0655C39.5879 32.3049 40.034 32.4246 40.5018 32.4246C40.9806 32.4246 41.4267 32.3049 41.8401 32.0655C42.2536 31.8262 42.5854 31.478 42.8357 31.021C43.0968 30.5532 43.2274 30.0092 43.2274 29.389Z" fill="white"/>
<path d="M49.5554 26.4187V31.3964C49.5554 31.7337 49.6315 31.9785 49.7839 32.1308C49.9471 32.2723 50.2191 32.343 50.5999 32.343H51.7423V33.8934H50.2735C49.4357 33.8934 48.7937 33.6976 48.3477 33.3059C47.9016 32.9142 47.6785 32.2777 47.6785 31.3964V26.4187H46.6177V24.9008H47.6785V22.6649H49.5554V24.9008H51.7423V26.4187H49.5554Z" fill="white"/>
</svg>
