<svg width="187" height="135" viewBox="0 0 187 135" fill="none" xmlns="http://www.w3.org/2000/svg">
<path d="M85 30.0361C85 50.207 61.0925 59.7368 40.2922 59.7368C19.4919 59.7368 0 51.4111 0 31.2401C0 11.0692 24.4594 0.736816 45.2597 0.736816C66.0601 0.736816 85 9.8651 85 30.0361Z" fill="#D4E4E9"/>
<path d="M185 119.294C185 99.4759 182.075 79.948 180 60.2384C178.366 44.7166 180 28.3707 180 12.794C180 8.0652 154.967 10.2108 151.222 10.294C136.749 10.6156 122.374 12.294 107.778 12.294C95.1097 12.294 82.5744 14.294 69.8333 14.294C58.3727 14.294 46.8366 15.294 35.5 15.294C30.4074 15.294 25.3148 15.294 20.2222 15.294C16.0291 15.294 17.676 16.5018 16.9445 19.794C15.1026 28.0822 15 36.4866 15 45.1829C15 64.4138 14 83.3733 14 102.516C14 110.53 15.5434 118.033 16.9444 125.738C17.2572 127.459 16.9766 131.826 18.2222 133.072C19 133.072 26.4238 132.294 28.5 132.294C56.7533 132.294 84.8195 131.806 113 131.294C130.221 130.981 147.258 128.294 164.556 128.294C170.853 128.294 176.883 126.294 183 126.294" stroke="#1A2147" stroke-width="3" stroke-linecap="round"/>
<path d="M29.5 106.237C29.5 104.305 33.4891 100.871 35 103.515C36.4417 106.038 36.4903 110.589 33.5 112.348C31.5951 113.468 28 116.615 28 118.987C28 120.437 36.2777 119.737 38 119.737" stroke="#1A2147" stroke-width="3" stroke-linecap="round"/>
<path d="M43 109.737C43 111.543 46.1973 113.158 47.1111 114.737C47.8144 115.952 49.1182 116.908 50.3889 117.348C51.0277 117.569 53.7729 118.237 52 118.237" stroke="#1A2147" stroke-width="3" stroke-linecap="round"/>
<path d="M51.0002 109.237C49.8 109.987 49.4934 111.685 48.5002 112.737C47.6432 113.644 46.1951 114.986 45.528 115.987C44.8001 117.079 42.4391 119.798 42.5002 119.737" stroke="#1A2147" stroke-width="3" stroke-linecap="round"/>
<path d="M59.2498 106.487C58.3874 107.349 58.2498 109.428 58.2498 110.612C58.2498 112.07 58.2498 113.528 58.2498 114.987C58.2498 116.72 58.1412 117.694 59.6248 118.848C60.059 119.186 61.8285 119.375 62.3609 119.223C63.1715 118.991 64.0753 117.996 64.7359 117.501C66.8823 115.891 67.6466 114.659 68.1943 112.042C68.6015 110.096 69.7568 106.816 68.8748 104.876C67.7809 102.469 66.5276 101.662 63.7498 101.737C61.4864 101.798 58.9998 103.548 58.9998 105.987" stroke="#1A2147" stroke-width="3" stroke-linecap="round"/>
<path d="M80.25 101.737C80.0732 100.323 76.9592 100.616 76.125 100.987C74.2567 101.817 73.25 104.472 73.25 106.487C73.25 111.385 81.4816 111.568 81.75 106.737C81.7891 106.034 81.75 105.317 81.75 104.612C81.75 103.511 81.75 103.511 81.75 104.612C81.75 107.111 81.0725 109.521 81 111.987C80.9479 113.759 80.575 117.984 78.375 118.473C77.3555 118.7 74.009 117.598 74.75 116.487" stroke="#1A2147" stroke-width="3" stroke-linecap="round"/>
<path d="M93.75 107.737C93.75 106.33 91.0398 107.08 90.25 107.362C88.9959 107.81 87.7716 108.937 87.1389 110.112C86.5628 111.182 86.2902 113.013 86.6945 114.181C87.048 115.203 89.3462 116.09 90.25 115.237C91.1027 114.431 92.2568 113.471 92.75 112.362C93.2312 111.279 94.25 107.955 94.25 109.139C94.25 110.886 94.4621 112.13 95.0556 113.792C95.3396 114.588 95.75 115.49 95.75 116.348C95.75 116.997 95.75 117.371 95.75 116.487" stroke="#1A2147" stroke-width="3" stroke-linecap="round"/>
<path d="M100.75 95.7368C101.475 96.6424 101.25 98.9408 101.25 100.042C101.25 102.582 101.029 105.101 101 107.626C100.975 109.808 100.75 111.939 100.75 114.126C100.75 114.86 100.5 115.698 100.5 114.487" stroke="#1A2147" stroke-width="3" stroke-linecap="round"/>
<path d="M102.25 108.487C102.25 107.058 104.897 107.038 106 106.793C108.128 106.32 109.678 108.477 109.75 110.431C109.827 112.518 107.88 113.437 106.306 114.487C105.657 114.919 102.976 115.938 102.5 114.987" stroke="#1A2147" stroke-width="3" stroke-linecap="round"/>
<path d="M114.25 114.487L114.5 113.987" stroke="#1A2147" stroke-width="3" stroke-linecap="round"/>
<path d="M119.25 113.987V113.737" stroke="#1A2147" stroke-width="3" stroke-linecap="round"/>
<path d="M124.5 113.487C124.529 113.256 124.581 113.321 124.75 113.237" stroke="#1A2147" stroke-width="3" stroke-linecap="round"/>
<path d="M179.302 47.8491C174.571 47.8491 170.765 47.3601 165.981 48.423C160.189 49.7103 153.787 48.9403 148.311 51.5342C144.322 53.4237 137.894 54.7463 135.534 58.9951C133.261 63.0869 132 67.3807 132 72.0439C132 82.5181 145.087 86.4521 153.476 86.4521C162.333 86.4521 177.154 84.7838 182 83.7368" stroke="#1A2147" stroke-width="3" stroke-linecap="round"/>
</svg>
