<svg width="189" height="130" viewBox="0 0 189 130" fill="none" xmlns="http://www.w3.org/2000/svg">
<path d="M134.931 77.1418C134.931 93.5625 117.901 106.874 106.034 106.874C94.1663 106.874 84.5459 93.5625 84.5459 77.1418C84.5459 60.7211 101.576 47.4094 113.443 47.4094C125.311 47.4094 134.931 60.7211 134.931 77.1418Z" fill="#D6CBF2"/>
<path d="M57.4652 114.509C61.6275 98.7669 68.6551 83.9523 72.7007 68.1117C77.7553 48.3201 81.0531 28.249 84.2637 8.10106C84.6309 5.79695 84.2048 -1.08617 85.7525 3.59651C91.8967 22.1863 97.0662 40.8853 102.328 59.7533C108.047 80.2598 113.554 101.092 121.236 120.965C121.517 121.694 124.624 129.245 124.461 127.822C124.238 125.869 122.677 124.439 121.385 123.117C115.626 117.23 109.299 111.863 102.526 107.201C80.9902 92.3764 55.9642 81.6788 30.5675 75.8696C22.4248 74.007 14.0461 71.5783 5.65482 71.2649C2.69589 71.1544 -0.408463 70.5288 4.81116 70.3139C34.2605 69.1017 62.0739 55.9404 88.5316 44.0374C108.369 35.1126 127.831 25.3462 147.885 16.91C159.12 12.1837 172.146 5.39927 184.46 3.79671C187.88 3.35171 187.373 3.17465 185.701 5.19813C171.507 22.3758 156.474 38.205 139.796 52.9964C116.373 73.7709 93.7867 95.503 68.2839 113.708C65.6679 115.575 58.563 118.394 57.4652 121.716" stroke="#1A2147" stroke-width="3" stroke-linecap="round"/>
</svg>
