<svg width="156" height="155" viewBox="0 0 156 155" fill="none" xmlns="http://www.w3.org/2000/svg">
<path d="M137.07 76.3368C137.07 108.761 95.0481 135.046 65.7653 135.046C36.4825 135.046 12.7441 108.761 12.7441 76.3368C12.7441 43.9126 54.7657 17.6276 84.0485 17.6276C113.331 17.6276 137.07 43.9126 137.07 76.3368Z" fill="#D4E4E9"/>
<path d="M75.9984 18.5782C71.8558 18.7375 67.7859 19.535 63.6122 19.535C59.9666 19.535 57.5365 21.4722 54.4687 23.1765C52.9437 24.0237 51.4255 25.018 49.6843 25.5155C48.5374 25.8432 47.4094 26.4137 46.3353 26.9508C45.0292 27.6039 43.4491 28.3274 42.2685 29.1569C40.2349 30.586 38.1204 31.7586 36.1685 33.2768C34.4428 34.619 33.0003 35.9011 31.5037 37.4764C30.3255 38.7166 29.5094 40.269 28.7527 41.7824C27.7993 43.6892 26.38 45.1441 25.098 46.806C23.9994 48.23 23.0008 49.9572 22.2805 51.6036C21.8805 52.518 21.2902 53.3318 20.8452 54.2217C20.481 54.9501 20.0858 56.0031 19.5428 56.6139C18.832 57.4136 18.4353 58.9819 17.9879 59.9763C17.2708 61.5698 16.7761 63.4969 16.4329 65.2125C15.8945 67.9046 15.4761 70.4198 15.4761 73.1731C15.4761 75.226 15.5771 77.6041 16.0741 79.5922C16.6394 81.8533 17.1506 84.6712 17.1506 86.9947C17.1506 89.2845 17.7826 91.3755 18.1606 93.5599C18.6516 96.3963 19.5432 99.2054 20.9648 101.693C21.9804 103.471 22.91 106.222 24.8056 107.275C25.9867 107.931 26.1444 109.775 27.3041 110.438C27.583 110.597 27.9421 111.62 28.1547 111.927C28.9438 113.066 29.816 114.013 30.7861 114.983C32.6092 116.806 34.6643 118.369 36.4077 120.246C37.7728 121.716 39.8949 122.418 41.3117 123.834C43.2445 125.767 45.9508 127.111 48.4351 128.353C50.4355 129.353 52.2084 130.665 54.2295 131.675C55.8737 132.497 57.7407 132.775 59.386 133.523C60.64 134.093 62.0934 134.001 63.3198 134.546C64.7785 135.194 66.862 134.68 68.2238 135.436C68.7623 135.736 69.767 135.556 70.3634 135.556C71.938 135.556 73.5536 135.912 75.0946 136.221C76.9814 136.598 78.9675 136.991 80.9023 136.991C84.4575 136.991 87.5557 136.921 90.8299 135.37C92.298 134.675 93.6776 133.787 95.1358 133.058C95.9787 132.636 97.0004 131.912 97.8868 131.715C98.4418 131.592 99.3664 130.84 99.867 130.532C100.554 130.11 101.249 129.651 101.834 129.097C103.15 127.85 105.76 126.599 107.442 125.987C108.509 125.599 108.663 124.788 109.489 124.127C110.696 123.161 111.718 122.028 112.838 120.964C113.457 120.376 114.414 119.964 115.111 119.422C115.612 119.032 116.06 118.604 116.546 118.226C118.187 116.95 119.47 115.345 120.918 113.84C121.621 113.11 122.21 112.448 122.779 111.621C123.385 110.74 124.744 109.553 125.038 108.524C125.265 107.73 126.09 106.814 126.473 106.026C127.22 104.49 127.941 102.84 128.866 101.401C132.967 95.0204 133.889 87.8564 133.889 80.3497C133.889 78.803 133.411 77.1421 133.411 75.6185C133.411 73.8112 133.244 72.0437 132.746 70.3025C132.508 69.4668 132.454 68.2487 132.454 67.3787C132.454 66.3021 131.975 65.2335 131.975 64.1493C131.975 63.3353 131.572 62.5626 131.51 61.7305C131.392 60.1389 131.189 58.9074 130.66 57.4379C130.08 55.8268 128.35 54.0252 128.148 52.308C128.02 51.2226 127.119 48.887 126.354 48.1217C125.816 47.5839 125.478 46.5749 125.038 45.9022C124.368 44.8767 123.712 43.8209 123.124 42.7392C122.625 41.8195 121.616 39.8363 120.613 39.3902C120.058 39.1437 119.521 38.3719 119.058 37.9549C117.999 37.0024 116.258 36.8907 115.23 35.8019C114.507 35.0358 114.258 33.8284 113.436 33.1705C112.984 32.809 112.911 32.0945 112.36 31.7883C111.727 31.4369 111.27 30.7416 110.632 30.2999C109.749 29.6885 108.725 29.33 107.814 28.745C107.278 28.3998 106.617 27.7877 106.02 27.6552C104.778 27.3792 103.415 26.3593 102.312 25.8079C101.207 25.2552 100.145 24.9342 99.0697 24.3194C97.7129 23.5441 96.4586 22.9671 95.3219 21.8741C94.4656 21.0508 92.8925 20.0135 91.6672 20.0135C89.0328 20.0135 86.6141 18.8174 84.0255 18.8174C81.3755 18.8174 78.6254 18.0997 75.9984 18.0997" stroke="#1A2147" stroke-width="3" stroke-linecap="round"/>
<path d="M76.442 19.1624C73.0014 19.3535 69.803 22.5354 67.2327 24.5344C65.0739 26.2135 62.6252 28.2931 60.9227 30.4821C57.1093 35.385 52.0585 40.0767 49.1979 45.6391C43.1834 57.3338 43.4421 69.918 43.4421 82.8813C43.4421 84.1197 43.8258 85.1673 43.8258 86.3774C43.8258 88.6874 43.4421 90.9202 43.4421 93.2204C43.4421 96.1228 44.4379 98.8669 44.5932 101.662C44.7276 104.082 45.7034 107.318 46.725 109.507C47.8395 111.895 48.515 114.419 49.5816 116.819C51.6821 121.545 53.8987 125.549 57.6397 129.29C58.7951 130.446 60.0138 131.5 61.4769 132.275C62.6726 132.908 63.0382 134.484 64.163 135.046" stroke="#1A2147" stroke-width="3" stroke-linecap="round"/>
<path d="M78.3605 136.197C79.0634 136.119 80.3809 135.23 80.7481 134.662C81.3866 133.676 83.2452 133.231 84.1163 132.36C86.4476 130.029 89.0923 127.904 91.407 125.453C95.6212 120.991 98.2345 114.786 100.808 109.124C102.053 106.385 103.184 103.583 104.07 100.703C105.147 97.2013 104.837 93.5435 104.837 89.8523C104.837 84.3988 105.988 79.5618 105.988 74.0771C105.988 67.7518 106.39 60.5965 103.516 54.8484C101.965 51.748 100.809 48.4797 99.657 45.2554C99.1649 43.8776 98.4054 42.3685 97.7384 41.0345C97.0474 39.6524 96.6315 37.6215 95.6279 36.4298C94.2145 34.7514 93.1964 32.2833 92.0892 30.2903C90.7169 27.8203 88.1345 26.1038 86.4186 23.9589C85.4449 22.7418 82.5655 21.0841 81.2171 20.3136C79.5005 19.3326 78.5066 18.0112 76.4419 18.0112" stroke="#1A2147" stroke-width="3" stroke-linecap="round"/>
<path d="M76.0582 18.7787C76.0582 27.0786 75.2907 35.1053 75.2907 43.4221C75.2907 58.1998 73.3721 72.7304 73.3721 87.4647C73.3721 91.8158 74.5233 95.868 74.5233 100.127C74.5233 100.953 74.9547 101.571 74.907 102.43C74.8587 103.298 74.5233 104.077 74.5233 105.031C74.5233 107.878 74.1396 110.645 74.1396 113.472C74.1396 117.63 73.3721 121.945 73.3721 126.22C73.3721 127.841 72.8919 129.472 72.9884 131.209C73.0711 132.697 73.3721 134.225 73.3721 135.813" stroke="#1A2147" stroke-width="3" stroke-linecap="round"/>
<path d="M29.6279 41.4182C31.8577 42.5331 33.8865 44.0031 36.2365 44.7864C37.7382 45.287 39.1171 45.7635 40.564 46.4066C43.6203 47.7649 46.4622 50.2438 49.9651 50.2438C53.0079 50.2438 55.7131 52.1624 58.812 52.1624C63.3391 52.1624 67.7619 52.5461 72.1996 52.5461C77.3336 52.5461 82.4769 52.9298 87.655 52.9298C89.5593 52.9298 91.1188 51.961 92.9418 51.7787C94.8899 51.5839 97.0408 51.0377 98.9108 50.4143C101.191 49.6542 103.572 49.1417 105.818 48.3252C107.198 47.8234 109.26 46.5634 110.593 46.4066C111.674 46.2794 114.188 44.8007 115.198 44.2961C117.068 43.361 123.044 41.8019 120.953 41.8019" stroke="#1A2147" stroke-width="3" stroke-linecap="round"/>
<path d="M15.0464 77.1043C22.6402 77.1043 30.3668 77.488 37.8778 77.488C40.8131 77.488 43.7067 78.6391 46.7033 78.6391C50.7932 78.6391 54.904 79.1221 58.9824 79.3853C62.9592 79.6418 66.9389 79.4522 70.8991 79.769C73.8612 80.006 76.9259 80.5577 79.8952 80.5577C83.0533 80.5577 86.1368 80.174 89.275 80.174C91.0235 80.174 93.0909 79.9908 94.775 79.4919C96.7576 78.9044 99.0408 79.5493 101 78.7244C103.708 77.5841 106.444 77.8717 109.442 77.8717C111.535 77.8717 113.526 77.488 115.581 77.488C118.536 77.488 121.566 77.1043 124.407 77.1043C126.885 77.1043 129.751 76.7114 132.081 77.488" stroke="#1A2147" stroke-width="3" stroke-linecap="round"/>
<path d="M29.6279 114.325C33.9055 113.673 38.1877 111.619 42.4613 111.277C44.7738 111.092 46.8968 109.997 49.1977 109.742C52.5738 109.367 55.8777 108.622 59.1957 108.207C63.7246 107.641 68.1926 107.034 72.7965 107.034C77.0858 107.034 81.4108 107.418 85.6511 107.418C87.6326 107.418 89.4632 107.802 91.407 107.802C92.8226 107.802 94.9514 107.868 96.3101 108.271C99.1604 109.115 102.665 109.957 105.605 110.104C108.458 110.247 110.862 112.023 113.663 112.023C115.532 112.023 117.851 112.774 119.419 113.558" stroke="#1A2147" stroke-width="3" stroke-linecap="round"/>
<path d="M18.8837 33.7439C10.7362 40.9862 7.06269 51.7328 4.89922 62.3098C3.23097 70.4657 2 77.4354 2 85.8873C2 92.1282 3.73089 100.752 7.54263 105.883C10.6266 110.035 14.5784 114.25 16.9651 118.546C19.3672 122.87 21.5068 127.693 25.0232 131.209C26.8985 133.084 29.6464 135.06 30.9922 137.348C31.8847 138.866 37.1337 140.718 38.8372 141.569C44.9208 144.611 50.3364 147.735 56.4883 150.395C63.7141 153.52 73.6375 152.697 81.4302 152.697C83.8401 152.697 86.6877 153.086 89.062 152.655C90.5297 152.388 95.2315 151.786 96.2247 150.992C101.092 147.098 107.309 145.547 112.17 141.569C116.314 138.179 121.708 135.827 125.558 131.976C127.187 130.347 128.951 129.082 130.93 127.969C132.029 127.35 126.816 127.372 125.942 127.372C122.31 127.372 115.155 128.907 115.155 128.907C115.155 128.907 123.49 129.223 127.434 128.097C131.377 126.97 128.628 135.018 128.628 138.116" stroke="#1A2147" stroke-width="3" stroke-linecap="round"/>
<path d="M135.535 117.395C135.535 112.045 141.786 105.899 144.361 101.321C146.691 97.1791 149.665 93.8529 151.651 89.3833C152.523 87.4221 153.186 85.4067 153.186 83.2864C153.186 77.2547 154.32 70.8043 153.911 64.8678C153.34 56.5823 151.571 48.3069 148.241 40.6934C142.796 28.2482 132.937 20.7315 120.954 14.3872C111.083 9.16145 100.289 5.41673 89.4886 2.87559C81.8044 1.06752 73.0602 2.41521 65.3143 3.08876C57.5802 3.76129 51.0112 7.74224 43.8259 9.9531C39.6286 11.2446 34.7419 14.7242 31.8879 18.0539C31.2452 18.8037 22.7675 25.6095 22.7639 25.6004C21.5602 22.591 25.0236 17.0577 25.0236 13.7903C25.0236 12.9169 25.791 8.39983 25.791 10.3795C25.791 13.0513 25.791 15.7231 25.791 18.395C25.791 20.2706 25.4664 21.6417 24.9809 23.3407C24.4201 25.3036 24.0909 24.9765 26.5585 23.9376C30.6858 22.1998 35.1536 22.2322 39.605 22.2322" stroke="#1A2147" stroke-width="3" stroke-linecap="round"/>
</svg>
