<svg width="220" height="221" viewBox="0 0 220 221" fill="none" xmlns="http://www.w3.org/2000/svg">
<rect x="1" y="1.15576" width="218" height="218" rx="109" fill="#FBFCFD"/>
<g clip-path="url(#clip0_1_846)">
<path d="M74 189.2L75.63 189.89L76.76 188.63L79.83 189.93L79.72 191.62L81.36 192.31L81.84 183.41L80.04 182.65L74 189.2ZM79.93 188.51L77.7 187.57L80.18 184.81L79.94 188.51H79.93ZM91.48 186.93C91.1 186.59 90.6 186.33 89.97 186.16L86.94 185.33L84.72 193.41L86.34 193.86L87.21 190.71L87.97 190.92L88.88 194.56L90.75 195.08L89.72 191.27C90.37 191.27 90.91 191.11 91.34 190.76C91.77 190.42 92.05 189.98 92.2 189.45C92.33 188.99 92.33 188.54 92.22 188.1C92.1 187.67 91.86 187.28 91.48 186.94V186.93ZM90.53 189.02C90.43 189.4 90.24 189.66 89.96 189.82C89.69 189.97 89.33 189.99 88.89 189.87L87.54 189.5L88.19 187.13L89.54 187.5C89.98 187.62 90.28 187.81 90.44 188.08C90.6 188.34 90.63 188.66 90.53 189.03V189.02ZM96.89 190.48C97.16 190.1 97.49 189.82 97.9 189.64C98.31 189.47 98.75 189.41 99.24 189.48C99.69 189.54 100.08 189.69 100.39 189.94C100.71 190.19 100.94 190.52 101.07 190.94L102.98 191.2C102.82 190.32 102.42 189.6 101.79 189.03C101.16 188.46 100.38 188.11 99.45 187.99C98.66 187.88 97.92 187.97 97.23 188.24C96.54 188.51 95.97 188.95 95.51 189.55C95.05 190.15 94.77 190.85 94.66 191.67C94.55 192.49 94.63 193.24 94.92 193.93C95.2 194.62 95.64 195.19 96.23 195.64C96.82 196.09 97.51 196.36 98.3 196.47C99.24 196.6 100.08 196.47 100.84 196.09C101.6 195.71 102.17 195.12 102.57 194.31L100.66 194.05C100.42 194.42 100.11 194.68 99.74 194.84C99.37 195 98.96 195.04 98.5 194.98C98.02 194.91 97.6 194.74 97.26 194.47C96.91 194.19 96.66 193.83 96.51 193.39C96.36 192.95 96.32 192.45 96.39 191.9C96.47 191.35 96.64 190.88 96.9 190.49L96.89 190.48ZM111.18 188.72L111.24 192.16L107.65 192.22L107.59 188.78L105.91 188.81L106.05 197.18L107.73 197.15L107.67 193.59L111.26 193.53L111.32 197.09L113 197.06L112.86 188.69L111.18 188.72ZM124.56 193.8L121.95 187.67L120.1 187.97L119.45 194.66L116.96 188.47L115.18 188.75L118.73 196.68L120.67 196.36L121.35 190.21L123.85 195.85L125.81 195.54L126.8 186.9L125.01 187.19L124.56 193.81V193.8ZM131.24 185.4L131 194.31L132.68 193.76L132.71 192.07L135.88 191.03L136.9 192.37L138.59 191.82L133.11 184.79L131.25 185.4H131.24ZM132.71 190.65L132.77 186.94L135.02 189.89L132.72 190.65H132.71ZM144.03 186.15L144.22 180L142.53 180.81L142.57 185.03L139.29 182.36L137.58 183.18L142.51 186.87L143.77 189.5L145.28 188.77L144.02 186.14L144.03 186.15Z" fill="#1A2147"/>
</g>
<rect x="74" y="89.0002" width="36.5" height="54" fill="#1A2147"/>
<rect x="110.5" y="89.0002" width="18.25" height="18" fill="#1A2147"/>
<rect x="110.5" y="125" width="18.25" height="18" fill="#1A2147"/>
<rect x="128.75" y="107" width="18.25" height="18" fill="#1A2147"/>
<path d="M147 89C147 69.1177 130.658 53 110.5 53C90.3416 53 74 69.1177 74 89H147Z" fill="#1A2147"/>
<rect x="1" y="1.15576" width="218" height="218" rx="109" stroke="#1A2147" stroke-width="2"/>
<defs>
<clipPath id="clip0_1_846">
<rect width="71.29" height="17.17" fill="white" transform="translate(74 180)"/>
</clipPath>
</defs>
</svg>
