<svg width="121" height="43" viewBox="0 0 121 43" fill="none" xmlns="http://www.w3.org/2000/svg">
<rect x="-1" y="1" width="118" height="41" rx="20.5" transform="matrix(-1 0 0 1 118.5 0)" fill="#FBFCFD" stroke="#192146" stroke-width="2"/>
<path d="M29.0943 14.7917V22.7917H24.1233V27.2083H15.1191V14.7917H29.0943ZM29.0943 13H15.1191C13.9936 13 13.1025 13.7917 13.1025 14.7917V27.2083C13.1025 28.2083 13.9936 29 15.1191 29H25.1081L31.1109 23.6667V14.7917C31.1109 13.7917 30.2199 13 29.0943 13ZM22.1067 22.7917H17.0888V21H22.1067V22.7917ZM27.1247 19.2083H17.0888V17.4583H27.1247V19.2083Z" fill="#192146"/>
<path d="M51.3941 14.6573V26H49.5335V14.6573H51.3941ZM58.2107 16.8605C58.9179 16.8605 59.549 17.0074 60.1039 17.3012C60.6696 17.5949 61.1103 18.0302 61.4258 18.6068C61.7414 19.1835 61.8991 19.8798 61.8991 20.6958V26H60.0549V20.9733C60.0549 20.1681 59.8536 19.5534 59.451 19.1291C59.0485 18.6939 58.499 18.4763 57.8027 18.4763C57.1063 18.4763 56.5514 18.6939 56.138 19.1291C55.7354 19.5534 55.5341 20.1681 55.5341 20.9733V26H53.6736V17.0074H55.5341V18.0356C55.8388 17.6657 56.225 17.3773 56.6929 17.1706C57.1716 16.9639 57.6776 16.8605 58.2107 16.8605ZM67.5854 24.3353L70.1314 17.0074H72.1062L68.6789 26H66.4593L63.0483 17.0074H65.0394L67.5854 24.3353ZM77.2499 26.1469C76.4013 26.1469 75.6342 25.9565 74.9488 25.5757C74.2633 25.184 73.7247 24.64 73.333 23.9436C72.9413 23.2364 72.7455 22.4204 72.7455 21.4955C72.7455 20.5816 72.9468 19.771 73.3493 19.0638C73.7519 18.3566 74.3014 17.8126 74.9977 17.4317C75.6941 17.0509 76.472 16.8605 77.3315 16.8605C78.1911 16.8605 78.969 17.0509 79.6654 17.4317C80.3617 17.8126 80.9112 18.3566 81.3137 19.0638C81.7163 19.771 81.9176 20.5816 81.9176 21.4955C81.9176 22.4095 81.7109 23.2201 81.2974 23.9273C80.884 24.6345 80.3182 25.184 79.6001 25.5757C78.8929 25.9565 78.1095 26.1469 77.2499 26.1469ZM77.2499 24.5312C77.7287 24.5312 78.1748 24.4169 78.5882 24.1884C79.0126 23.9599 79.3553 23.6172 79.6164 23.1602C79.8775 22.7033 80.0081 22.1484 80.0081 21.4955C80.0081 20.8427 79.883 20.2933 79.6327 19.8472C79.3825 19.3902 79.0506 19.0475 78.6372 18.819C78.2237 18.5905 77.7776 18.4763 77.2989 18.4763C76.8202 18.4763 76.3741 18.5905 75.9606 18.819C75.558 19.0475 75.2371 19.3902 74.9977 19.8472C74.7583 20.2933 74.6387 20.8427 74.6387 21.4955C74.6387 22.4639 74.8835 23.2146 75.3731 23.7478C75.8736 24.27 76.4992 24.5312 77.2499 24.5312ZM84.5402 15.816C84.2029 15.816 83.92 15.7018 83.6916 15.4733C83.4631 15.2448 83.3488 14.9619 83.3488 14.6246C83.3488 14.2873 83.4631 14.0044 83.6916 13.776C83.92 13.5475 84.2029 13.4332 84.5402 13.4332C84.8666 13.4332 85.1441 13.5475 85.3726 13.776C85.6011 14.0044 85.7153 14.2873 85.7153 14.6246C85.7153 14.9619 85.6011 15.2448 85.3726 15.4733C85.1441 15.7018 84.8666 15.816 84.5402 15.816ZM85.4542 17.0074V26H83.5936V17.0074H85.4542ZM87.1135 21.4955C87.1135 20.5707 87.2985 19.7601 87.6684 19.0638C88.0492 18.3566 88.5715 17.8126 89.2352 17.4317C89.8989 17.0509 90.6605 16.8605 91.52 16.8605C92.6081 16.8605 93.5057 17.1217 94.2129 17.6439C94.931 18.1553 95.4152 18.8897 95.6654 19.8472H93.658C93.4948 19.4011 93.2337 19.0529 92.8746 18.8027C92.5156 18.5524 92.0641 18.4273 91.52 18.4273C90.7584 18.4273 90.1491 18.6993 89.6921 19.2433C89.2461 19.7765 89.023 20.5272 89.023 21.4955C89.023 22.4639 89.2461 23.2201 89.6921 23.7641C90.1491 24.3081 90.7584 24.5801 91.52 24.5801C92.5972 24.5801 93.3099 24.1068 93.658 23.1602H95.6654C95.4043 24.0742 94.9147 24.8032 94.1966 25.3472C93.4785 25.8803 92.5863 26.1469 91.52 26.1469C90.6605 26.1469 89.8989 25.9565 89.2352 25.5757C88.5715 25.184 88.0492 24.64 87.6684 23.9436C87.2985 23.2364 87.1135 22.4204 87.1135 21.4955ZM105.598 21.2834C105.598 21.6207 105.576 21.9253 105.533 22.1973H98.662C98.7164 22.9154 98.983 23.4921 99.4617 23.9273C99.9405 24.3625 100.528 24.5801 101.224 24.5801C102.225 24.5801 102.933 24.1612 103.346 23.3234H105.353C105.081 24.1503 104.586 24.8304 103.868 25.3635C103.161 25.8858 102.28 26.1469 101.224 26.1469C100.365 26.1469 99.5923 25.9565 98.9068 25.5757C98.2323 25.184 97.6991 24.64 97.3074 23.9436C96.9266 23.2364 96.7362 22.4204 96.7362 21.4955C96.7362 20.5707 96.9212 19.7601 97.2911 19.0638C97.6719 18.3566 98.1996 17.8126 98.8742 17.4317C99.5597 17.0509 100.343 16.8605 101.224 16.8605C102.073 16.8605 102.829 17.0455 103.493 17.4154C104.157 17.7854 104.673 18.3076 105.043 18.9822C105.413 19.6459 105.598 20.413 105.598 21.2834ZM103.656 20.6958C103.645 20.0104 103.4 19.4609 102.922 19.0475C102.443 18.634 101.85 18.4273 101.143 18.4273C100.501 18.4273 99.9514 18.634 99.4944 19.0475C99.0374 19.45 98.7654 19.9995 98.6784 20.6958H103.656Z" fill="#192146"/>
</svg>
