<svg width="126" height="30" viewBox="0 0 126 30" fill="none" xmlns="http://www.w3.org/2000/svg">
<path fill-rule="evenodd" clip-rule="evenodd" d="M0.798828 22.9991L6.68624 0.600098H14.047L19.9344 22.9991H15.5831L14.3668 18.0711H6.36646L5.15013 22.9991H0.798828ZM7.35866 14.168H13.3746L10.655 3.2569H10.0782L7.35866 14.168ZM22.2685 22.9999V7.12778H26.2373V8.9209H26.8141C27.0472 8.28135 27.4387 7.81215 27.9826 7.5133C28.5265 7.21445 29.1601 7.06502 29.8863 7.06502H31.8049V10.6483H29.8206C28.7955 10.6483 27.9527 10.9202 27.2923 11.4641C26.6318 12.0081 26.3001 12.8448 26.3001 13.9775V22.9999H22.2685ZM36.5271 22.488C37.7733 23.1275 39.1659 23.4473 40.702 23.4473V23.4354C42.2142 23.4354 43.5172 23.1664 44.6051 22.6344C45.6929 22.1025 46.5715 21.3703 47.2439 20.4438C47.9134 19.5174 48.3885 18.4863 48.6665 17.3567L44.7635 16.4302C44.5901 17.4553 44.1897 18.2801 43.5621 18.9107C42.9345 19.5413 42.011 19.8551 40.7947 19.8551C39.5784 19.8551 38.5593 19.4576 37.7374 18.6567C36.9156 17.8558 36.5061 16.7112 36.5061 15.2169V14.8971C36.5061 13.3849 36.9156 12.2314 37.7374 11.4424C38.5593 10.6534 39.5784 10.2589 40.7947 10.2589C42.011 10.2589 42.9285 10.5847 43.5471 11.2362C44.1657 11.8847 44.5393 12.6916 44.6678 13.6509L48.5708 12.8201C48.3587 11.6456 47.9164 10.5936 47.2439 9.66719C46.5715 8.74075 45.6929 8.01155 44.6051 7.4766C43.5172 6.94165 42.2381 6.67567 40.702 6.67567C39.1659 6.67567 37.7763 6.99544 36.5271 7.63499C35.2808 8.27752 34.2946 9.20397 33.5684 10.4203C32.8422 11.6366 32.4806 13.11 32.4806 14.8374V15.2856C32.4806 17.016 32.8422 18.4863 33.5684 19.7027C34.2916 20.919 35.2808 21.8484 36.5271 22.488ZM50.8747 22.9991V0.600098H54.9063V9.07856H55.483C55.7401 8.56752 56.2122 8.07143 56.9056 7.59027C57.5989 7.10912 58.6479 6.87004 60.0585 6.87004C61.2957 6.87004 62.3776 7.15395 63.307 7.71878C64.2335 8.28361 64.9537 9.06362 65.4677 10.0558C65.9788 11.048 66.2358 12.2046 66.2358 13.5285V22.9991H62.2042V13.8483C62.2042 12.6528 61.9114 11.7563 61.3256 11.1616C60.7399 10.5639 59.9001 10.265 58.8123 10.265C57.575 10.265 56.6157 10.6774 55.9313 11.4963C55.2469 12.3181 54.9063 13.4627 54.9063 14.9361V22.9991H50.8747ZM68.5064 7.12625L70.7448 22.9983H77.4332L79.4803 9.84581H80.0571L82.1042 22.9983H88.7926L91.031 7.12625H87.0323L85.6247 20.2788H85.048L83.0008 7.12625H76.5366L74.4895 20.2788H73.9127L72.5051 7.12625H68.5064ZM98.3628 23.4473C97.2332 23.4473 96.2201 23.2501 95.3235 22.8556C94.4269 22.4611 93.7187 21.8843 93.1957 21.1282C92.6727 20.3721 92.4127 19.4487 92.4127 18.3608C92.4127 16.7171 92.9895 15.4799 94.14 14.6491C95.2906 13.8183 96.764 13.3999 98.5571 13.3999H102.908V12.5033C102.908 11.7562 102.672 11.1435 102.203 10.6624C101.734 10.1812 100.987 9.94214 99.9617 9.94214C98.9366 9.94214 98.2134 10.1723 97.7233 10.6295C97.2332 11.0897 96.9134 11.6815 96.764 12.4047L93.0522 11.1555C93.3092 10.3456 93.7187 9.60443 94.2835 8.93201C94.8483 8.25959 95.6074 7.71568 96.5548 7.30027C97.5022 6.88487 98.6617 6.67567 100.027 6.67567C102.116 6.67567 103.772 7.19866 104.988 8.24465C106.205 9.29064 106.811 10.8058 106.811 12.7872V18.7075C106.811 19.347 107.11 19.6668 107.708 19.6668H108.987V22.996H106.3C105.511 22.996 104.86 22.8048 104.349 22.4193C103.838 22.0367 103.581 21.5227 103.581 20.8832V20.8503H102.974C102.887 21.1073 102.696 21.442 102.397 21.8574C102.099 22.2728 101.629 22.6404 100.99 22.9602C100.35 23.28 99.4746 23.4413 98.3658 23.4413L98.3628 23.4473ZM99.0681 20.1838C100.198 20.1838 101.121 19.87 101.836 19.2395C102.55 18.6119 102.908 17.7721 102.908 16.7291V16.4093H98.844C98.0969 16.4093 97.5111 16.5707 97.0837 16.8905C96.6564 17.2102 96.4442 17.6585 96.4442 18.2353C96.4442 18.8121 96.6684 19.2813 97.1166 19.6429C97.5649 20.0045 98.2164 20.1868 99.0681 20.1868V20.1838ZM109.913 26.0048V29.3968L109.916 29.3998H113.436C114.781 29.3998 115.758 29.1637 116.365 28.6945C116.972 28.2253 117.468 27.4871 117.853 26.486L125.339 7.12625H120.988L117.019 18.4528H116.443L112.474 7.12625H108.122L114.778 24.3402L114.458 25.0455C114.309 25.3653 114.144 25.6043 113.962 25.7657C113.78 25.9241 113.454 26.0048 112.985 26.0048H109.913Z" fill="#1A2147"/>
</svg>
