<svg width="127" height="140" viewBox="0 0 127 140" fill="none" xmlns="http://www.w3.org/2000/svg">
<path d="M2.96091 19.025C3.12967 36.7448 5.65776 54.4221 6.21734 72.1421C6.71394 87.8678 5.46633 103.673 7.28502 119.334C7.85122 124.209 8.75865 128.807 10.061 133.534C10.4745 135.035 11.1287 136.603 11.1287 138.178C11.1287 138.576 12.9828 137.707 13.4776 137.591C18.8674 136.328 24.5843 136.219 30.08 135.883C40.1426 135.266 50.2382 134.504 60.3221 134.415C73.9117 134.294 87.5469 135.197 101.107 136.016C107.247 136.387 113.425 137.217 119.578 137.217C120.379 137.217 121.153 137.464 121.153 136.47C121.153 133.167 121.739 129.953 122.087 126.674C123.44 113.933 123.32 100.875 123.796 88.0773C124.343 73.3502 125.055 58.5005 124.249 43.7685C123.799 35.5262 121.783 27.2674 121.634 19.025C121.558 14.8845 121.153 10.4898 121.153 6.53315C121.153 4.43888 110.829 5.25504 109.515 5.19855C93.878 4.52597 78.2334 3.86518 62.5909 3.16996C47.8237 2.51364 33.236 1.55014 18.4957 2.23574C12.8794 2.49696 7.61508 3.65041 2 3.65041" stroke="#1A2147" stroke-width="3" stroke-linecap="round"/>
<path d="M23.1396 25.7509C36.8686 25.7509 50.6452 26.1172 64.3521 25.2705C72.1947 24.786 80.1424 24.3096 88.0013 24.3096C90.884 24.3096 93.7667 24.3096 96.6495 24.3096" stroke="#1A2147" stroke-width="3" stroke-linecap="round"/>
<path d="M23.1396 40.165C34.1328 40.165 45.0448 40.298 56.0242 40.859C66.552 41.3969 76.8923 40.5954 87.3873 40.1917C90.3533 40.0776 93.1919 39.6846 96.169 39.6846" stroke="#1A2147" stroke-width="3" stroke-linecap="round"/>
<path d="M22.1787 56.5C39.0819 56.5 55.8419 58.6946 72.7601 58.3951C78.8144 58.288 84.8661 56.9805 90.884 56.9805C93.8616 56.9805 96.6439 56.5 99.5322 56.5" stroke="#1A2147" stroke-width="3" stroke-linecap="round"/>
<path d="M22.6592 72.3554C31.3474 72.3554 39.8439 72.9119 48.4971 73.69C59.9865 74.7233 71.0198 73.8627 82.4226 72.5957C87.7945 71.9988 93.1671 71.3945 98.5713 71.3945" stroke="#1A2147" stroke-width="3" stroke-linecap="round"/>
<path d="M24.5811 114.155C30.9161 114.869 38.1863 115.417 44.52 114.395C46.9142 114.009 49.5367 113.675 51.9671 113.675" stroke="#1A2147" stroke-width="3" stroke-linecap="round"/>
<path d="M109.861 111.954C109.861 117.753 98.3695 122.454 90.3613 122.454C82.3532 122.454 75.8613 117.753 75.8613 111.954C75.8613 106.155 87.3532 101.454 95.3613 101.454C103.369 101.454 109.861 106.155 109.861 111.954Z" fill="#C7EBC5"/>
</svg>
