<svg width="168" height="130" viewBox="0 0 168 130" fill="none" xmlns="http://www.w3.org/2000/svg">
<path d="M124 78.5C124 103.629 96.9603 124 78.1176 124C59.275 124 44 103.629 44 78.5C44 53.371 71.0397 33 89.8824 33C108.725 33 124 53.371 124 78.5Z" fill="#D6CBF2"/>
<path d="M21.5638 22.7646C5.92273 46.1876 -4.07078 74.6839 6.15244 99.9836C10.1732 109.934 18.3123 120.125 33.3404 124.893C40.8627 127.28 45.5642 129.582 53.9858 126.554C64.1694 122.892 71.2751 115.519 76.5213 109.117C83.465 100.644 91.5353 93.1289 96.4397 84.0232C101.474 74.6768 104 65.7024 104 55.7926C104 42.6664 100.727 30.9178 89.8972 19.6279C81.8398 11.2284 68.579 1.70861 51.6596 2.00683C40.5837 2.20206 26.2014 12.1232 20.2553 17.7828" stroke="#1A2147" stroke-width="3" stroke-linecap="round"/>
<path d="M159.946 3.98883C146.773 24.689 128.694 43.5905 117.759 65.4609" stroke="#1A2147" stroke-width="3" stroke-linecap="round"/>
<path d="M150.431 49.5941C148.011 50.9051 148.244 52.402 148.408 54.9449C148.585 57.6885 149.516 59.9247 152.133 60.9953C157.561 63.2159 163.851 57.6733 165.557 52.8651C166.938 48.973 165.005 44.072 160.566 43.2033C155.41 42.1946 148.389 46.9137 148.389 52.3167" stroke="#1A2147" stroke-width="3" stroke-linecap="round"/>
</svg>
