<svg width="186" height="134" viewBox="0 0 186 134" fill="none" xmlns="http://www.w3.org/2000/svg">
<path d="M169.486 41.2935L183.71 77.3574L169.061 84.4012L167.5 62.3439L169.486 41.2935Z" fill="#C7EBC5"/>
<path d="M10.3812 75.9137L2.80371 63.6133L10.5228 61.5444L10.3812 75.9137Z" fill="#C7EBC5"/>
<path d="M162.617 21.6736L157.549 3.72217L123.374 14.7427L103.764 21.9562L92.6074 27.6773L162.617 21.6736Z" fill="#C7EBC5"/>
<path d="M26.5166 118.304L30.5323 132.381L63.5161 118.393L82.1835 111.964L94.213 105.912L61.2032 112.004L26.5166 118.304Z" fill="#C7EBC5"/>
<path d="M11.2745 45.8755C11.0923 55.1325 10.3531 69.6623 10.0871 78.301C9.8617 85.621 9.93852 83.7374 9.87835 95.3338C9.84947 100.9 9.43317 103.622 9.73676 109.703C9.38116 113.157 10.1227 119.431 10.4499 122.824C10.5213 123.565 12.5571 121.939 12.9796 121.669C16.0475 119.708 19.4943 119.16 22.882 118.214C33.1559 115.345 43.915 114.077 54.3647 112.619C69.1731 110.554 83.7212 106.538 98.6613 105.129C114.345 103.651 130.098 100.669 145.799 99.6587C151.434 99.296 164.639 97.8257 170.264 98.0474" stroke="#1A2147" stroke-width="3" stroke-linecap="round"/>
<path d="M11.2744 45.8756C15.1606 44.6669 30.1537 40.787 33.9036 39.7054C37.3483 38.7118 40.7138 37.5652 44.2113 36.8267C67.5434 31.9 90.9093 28.8732 114.471 26.582C128.931 25.1758 143.588 23.3062 158.048 23.0516C159.214 23.031 167.173 21.4419 169.989 21.8729C169.736 24.9935 168.949 28.6771 168.859 32.7591C169.029 39.9733 168.326 46.8075 167.945 54.0561C167.53 61.9624 167.218 70.917 168.126 78.7422C168.421 81.285 169.981 94.7697 170.264 98.0475" stroke="#1A2147" stroke-width="3" stroke-linecap="round"/>
<path d="M25.3108 118.12C26.2777 122.23 29.3409 129.413 30.6014 131.927M2.33252 64.0049C6.08871 68.779 8.23776 74.3373 10.0904 80.0466" stroke="#1A2147" stroke-width="3" stroke-linecap="round"/>
<path d="M30.5322 132.381C32.4882 132.434 35.8162 130.007 37.7357 129.202C45.6311 125.892 53.5638 122.732 61.4772 119.474C74.2873 114.2 87.5231 109.562 100.518 105.02M184.445 77.9336C183.502 78.7179 183.034 78.6012 181.578 79.3519C177.748 81.326 173.431 82.6529 169.131 83.9473" stroke="#1A2147" stroke-width="3" stroke-linecap="round"/>
<path d="M2 63.49C4.54989 62.9516 5.74464 62.3531 8.02073 61.4708C9.21364 61.0084 9.48221 61.1349 10.6615 60.6368M157.355 2.2998C153.958 4.12631 132.419 10.3663 128.782 11.6497C118.922 15.1293 109.144 18.7626 99.4698 22.8466C94.7806 24.8261 89.9722 27.7126 85.2906 29.8075" stroke="#1A2147" stroke-width="3" stroke-linecap="round"/>
<path d="M158.429 2C158.341 2.57542 158.643 3.33889 158.799 3.91347C159.223 5.47478 159.536 7.05491 159.761 8.67707C160.566 14.4728 161.73 16.9948 163.753 22.3117M169.238 37.5415C171.05 43.3329 175.169 52.7577 177.139 58.4795C178.419 62.1971 179.508 65.9782 180.818 69.6806C181.994 73.007 182.812 74.857 184.445 77.9337" stroke="#1A2147" stroke-width="3" stroke-linecap="round"/>
<path d="M100.939 53.317C108.678 59.8045 106.813 74.1354 101.142 80.4571C95.4703 86.7788 84.5989 86.6444 76.8598 80.157C69.1207 73.6696 70.9857 59.3387 76.6572 53.017C82.3287 46.6953 93.2001 46.8296 100.939 53.317Z" fill="#C7EBC5"/>
</svg>
