<svg width="23" height="17" viewBox="0 0 23 17" fill="none" xmlns="http://www.w3.org/2000/svg">
<rect x="0.374722" y="0.471158" width="21.6687" height="15.3651" rx="1.37892" fill="white" stroke="#F5F5F5" stroke-width="0.393976"/>
<mask id="mask0_1_1043" style="mask-type:luminance" maskUnits="userSpaceOnUse" x="0" y="0" width="23" height="17">
<rect x="0.374722" y="0.471158" width="21.6687" height="15.3651" rx="1.37892" fill="white" stroke="white" stroke-width="0.393976"/>
</mask>
<g mask="url(#mask0_1_1043)">
<path fill-rule="evenodd" clip-rule="evenodd" d="M0.178918 7.62842H0.178711V16.0332H22.2414V7.62842H9.98471L10.6849 8.15359L0.178918 16.0331V7.62842Z" fill="#DD1C34"/>
<path fill-rule="evenodd" clip-rule="evenodd" d="M22.2414 7.6279H9.98434L0.178711 0.273682H22.2414V7.6279Z" fill="#0D4BC3"/>
<path fill-rule="evenodd" clip-rule="evenodd" d="M2.27934 2.90055C2.27934 3.19066 2.04416 3.42585 1.75404 3.42585C1.46393 3.42585 1.22874 3.19066 1.22874 2.90055C1.22874 2.61043 1.46393 2.37524 1.75404 2.37524C2.04416 2.37524 2.27934 2.61043 2.27934 2.90055ZM8.58294 8.15419C8.58294 8.44431 8.34776 8.67949 8.05764 8.67949C7.76752 8.67949 7.53234 8.44431 7.53234 8.15419C7.53234 7.86407 7.76752 7.62889 8.05764 7.62889C8.34776 7.62889 8.58294 7.86407 8.58294 8.15419ZM1.75382 13.9326C2.04393 13.9326 2.27912 13.6974 2.27912 13.4073C2.27912 13.1171 2.04393 12.882 1.75382 12.882C1.4637 12.882 1.22852 13.1171 1.22852 13.4073C1.22852 13.6974 1.4637 13.9326 1.75382 13.9326ZM3.74892 9.19928L2.8499 10.5805L3.19082 8.96823C3.13586 8.92336 3.08553 8.87305 3.04065 8.8181L1.42845 9.15901L2.80943 8.26013C2.80592 8.22521 2.80413 8.18978 2.80413 8.15394C2.80413 8.11807 2.80592 8.08261 2.80944 8.04766L1.42845 7.14877L3.04072 7.4897C3.08559 7.43478 3.1359 7.38449 3.19084 7.33964L2.8499 5.72731L3.74898 7.10859C3.78376 7.10512 3.81904 7.10334 3.85473 7.10334C3.89061 7.10334 3.92607 7.10514 3.96103 7.10865L4.86014 5.72731L4.51912 7.34005C4.5739 7.38482 4.62407 7.43501 4.66883 7.4898L6.2816 7.14877L4.90006 8.04802C4.90355 8.08286 4.90533 8.11819 4.90533 8.15394C4.90533 8.18966 4.90355 8.22496 4.90007 8.25977L6.2816 9.15901L4.6689 8.818C4.62413 8.87282 4.57394 8.92303 4.51914 8.96782L4.86014 10.5805L3.96109 9.19923C3.92611 9.20274 3.89063 9.20455 3.85473 9.20455C3.81902 9.20455 3.78372 9.20276 3.74892 9.19928Z" fill="#FDD64D"/>
</g>
</svg>
