<svg width="23" height="17" viewBox="0 0 23 17" fill="none" xmlns="http://www.w3.org/2000/svg">
<rect x="0.670898" y="0.0869141" width="22.3257" height="15.9469" rx="1.59469" fill="white"/>
<mask id="mask0_1_1072" style="mask-type:luminance" maskUnits="userSpaceOnUse" x="0" y="0" width="23" height="17">
<rect x="0.670898" y="0.0869141" width="22.3257" height="15.9469" rx="1.59469" fill="white"/>
</mask>
<g mask="url(#mask0_1_1072)">
<rect x="0.670898" y="0.0869141" width="22.3257" height="15.9469" fill="#128C4B"/>
<path fill-rule="evenodd" clip-rule="evenodd" d="M5.9873 9.65511H14.4923V8.9205C14.4923 8.52535 14.9082 8.26834 15.2616 8.44506L15.5555 8.59198V9.65511H17.1502C17.4437 9.65511 17.6817 9.8931 17.6817 10.1867V10.7182C17.6817 11.3054 17.2058 11.7814 16.6186 11.7814H15.0239C14.7303 11.7814 14.4923 11.5434 14.4923 11.2498V10.7182H7.27062C7.12964 10.7182 6.99443 10.6622 6.89474 10.5625L5.9873 9.65511Z" fill="white"/>
<path fill-rule="evenodd" clip-rule="evenodd" d="M5.9873 6.57595C5.9873 6.50546 6.01531 6.43786 6.06515 6.38801L6.33093 6.12223C6.43473 6.01844 6.43473 5.85015 6.33093 5.74636L6.06515 5.48058C6.01531 5.43073 5.9873 5.36313 5.9873 5.29264V4.60538C5.9873 4.45859 6.1063 4.3396 6.25309 4.3396H6.84739C6.95953 4.3396 7.05043 4.4305 7.05043 4.54264C7.05043 4.75689 7.33926 4.82507 7.43508 4.63344L7.51432 4.47496C7.5558 4.392 7.64059 4.3396 7.73334 4.3396H8.91091C9.0577 4.3396 9.17669 4.45859 9.17669 4.60538C9.17669 4.75217 9.0577 4.87116 8.91091 4.87116H8.37935C8.23256 4.87116 8.11356 4.99016 8.11356 5.13695C8.11356 5.28373 8.23256 5.40273 8.37935 5.40273H8.91091C9.0577 5.40273 9.17669 5.52172 9.17669 5.66851V7.26321C9.17669 7.40999 9.0577 7.52899 8.91091 7.52899H8.37935C8.23256 7.52899 8.11356 7.40999 8.11356 7.26321V6.73164C8.11356 6.58485 8.23256 6.46586 8.37935 6.46586C8.52613 6.46586 8.64513 6.34686 8.64513 6.20008C8.64513 6.05329 8.52613 5.93429 8.37935 5.93429H7.84778C7.70099 5.93429 7.582 6.05329 7.582 6.20008V7.26321C7.582 7.40999 7.463 7.52899 7.31622 7.52899C7.16943 7.52899 7.05043 7.40999 7.05043 7.26321V6.73164C7.05043 6.58485 6.93144 6.46586 6.78465 6.46586C6.63786 6.46586 6.51887 6.58485 6.51887 6.73164V7.26321C6.51887 7.40999 6.39987 7.52899 6.25309 7.52899C6.1063 7.52899 5.9873 7.40999 5.9873 7.26321V6.57595Z" fill="white"/>
<path fill-rule="evenodd" clip-rule="evenodd" d="M14.4912 6.57595C14.4912 6.50546 14.5192 6.43786 14.5691 6.38801L14.8348 6.12223C14.9386 6.01844 14.9386 5.85015 14.8348 5.74636L14.5691 5.48058C14.5192 5.43073 14.4912 5.36313 14.4912 5.29264V4.60538C14.4912 4.45859 14.6102 4.3396 14.757 4.3396H15.3513C15.4634 4.3396 15.5543 4.4305 15.5543 4.54264C15.5543 4.75689 15.8432 4.82507 15.939 4.63344L16.0182 4.47496C16.0597 4.392 16.1445 4.3396 16.2372 4.3396H17.4148C17.5616 4.3396 17.6806 4.45859 17.6806 4.60538C17.6806 4.75217 17.5616 4.87116 17.4148 4.87116H16.8833C16.7365 4.87116 16.6175 4.99016 16.6175 5.13695C16.6175 5.28373 16.7365 5.40273 16.8833 5.40273H17.4148C17.5616 5.40273 17.6806 5.52172 17.6806 5.66851V7.26321C17.6806 7.40999 17.5616 7.52899 17.4148 7.52899H16.8833C16.7365 7.52899 16.6175 7.40999 16.6175 7.26321V6.73164C16.6175 6.58485 16.7365 6.46586 16.8833 6.46586C17.03 6.46586 17.149 6.34686 17.149 6.20008C17.149 6.05329 17.03 5.93429 16.8833 5.93429H16.3517C16.2049 5.93429 16.0859 6.05329 16.0859 6.20008V7.26321C16.0859 7.40999 15.9669 7.52899 15.8201 7.52899C15.6733 7.52899 15.5543 7.40999 15.5543 7.26321V6.73164C15.5543 6.58485 15.4353 6.46586 15.2886 6.46586C15.1418 6.46586 15.0228 6.58485 15.0228 6.73164V7.26321C15.0228 7.40999 14.9038 7.52899 14.757 7.52899C14.6102 7.52899 14.4912 7.40999 14.4912 7.26321V6.57595Z" fill="white"/>
<path fill-rule="evenodd" clip-rule="evenodd" d="M13.4286 5.13446C13.4286 5.28262 13.3456 5.48579 13.2367 5.59464L13.089 5.74239C12.983 5.84837 12.9801 6.01735 13.089 6.1262L13.2367 6.27395C13.3427 6.37994 13.4286 6.57963 13.4286 6.73413V7.26072C13.4286 7.40888 13.3149 7.52899 13.1604 7.52899H12.6338C12.4856 7.52899 12.3655 7.41521 12.3655 7.26072V6.73413C12.3655 6.58597 12.3165 6.56397 12.2422 6.71243L11.9572 7.28241C11.8891 7.41859 11.7088 7.52899 11.5706 7.52899H10.5026C10.3572 7.52899 10.2393 7.4057 10.2393 7.26321C10.2393 7.11642 10.353 6.99742 10.5075 6.99742H11.0341C11.1823 6.99742 11.3024 6.87414 11.3024 6.73164C11.3024 6.58485 11.1886 6.46586 11.0341 6.46586H10.5075C10.3594 6.46586 10.2393 6.35154 10.2393 6.20514V4.60032C10.2393 4.45633 10.353 4.3396 10.5075 4.3396H11.0341C11.1823 4.3396 11.3024 4.45337 11.3024 4.60787V5.13446C11.3024 5.28262 11.1791 5.40273 11.0366 5.40273C10.8898 5.40273 10.7708 5.52602 10.7708 5.66851C10.7708 5.8153 10.8846 5.93429 11.0391 5.93429H11.5657C11.7138 5.93429 11.834 5.80916 11.834 5.67096V4.60293C11.834 4.4575 11.9572 4.3396 12.0997 4.3396C12.2465 4.3396 12.3655 4.45337 12.3655 4.60787V5.13446C12.3655 5.28262 12.4888 5.40273 12.6313 5.40273C12.7781 5.40273 12.8971 5.28896 12.8971 5.13446V4.60787C12.8971 4.45971 13.0204 4.3396 13.1629 4.3396C13.3097 4.3396 13.4286 4.45337 13.4286 4.60787V5.13446Z" fill="white"/>
</g>
</svg>
