<svg width="60" height="60" viewBox="0 0 60 60" fill="none" xmlns="http://www.w3.org/2000/svg">
<path d="M48 28.44C48 17.46 39.48 10 30 10C20.62 10 12 17.3 12 28.56C10.8 29.24 10 30.52 10 32V36C10 38.2 11.8 40 14 40H16V27.8C16 20.06 22.26 13.8 30 13.8C37.74 13.8 44 20.06 44 27.8V42H28V46H44C46.2 46 48 44.2 48 42V39.56C49.18 38.94 50 37.72 50 36.28V31.68C50 30.28 49.18 29.06 48 28.44Z" fill="white"/>
<path d="M24 32C25.1046 32 26 31.1046 26 30C26 28.8954 25.1046 28 24 28C22.8954 28 22 28.8954 22 30C22 31.1046 22.8954 32 24 32Z" fill="white"/>
<path d="M36 32C37.1046 32 38 31.1046 38 30C38 28.8954 37.1046 28 36 28C34.8954 28 34 28.8954 34 30C34 31.1046 34.8954 32 36 32Z" fill="white"/>
<path d="M41.9999 26.06C41.5231 23.2483 40.0668 20.6959 37.8888 18.8548C35.7109 17.0136 32.9518 16.0023 30.0999 16C24.0399 16 17.5199 21.02 18.0399 28.9C20.5062 27.8908 22.6844 26.287 24.3804 24.2316C26.0764 22.1762 27.2374 19.733 27.7599 17.12C30.3799 22.38 35.7599 26 41.9999 26.06Z" fill="white"/>
</svg>
