<svg width="199" height="163" viewBox="0 0 199 163" fill="none" xmlns="http://www.w3.org/2000/svg">
<path d="M50.5175 8.76003C43.1828 15.021 36.8479 22.4425 29.5704 28.7942C26.788 31.2226 24.6939 33.8639 22.3536 36.6826C21.3252 37.9212 24.1246 34.3061 24.54 33.7767" stroke="#1A2147" stroke-width="2" stroke-linecap="round"/>
<path d="M49.2227 11.1287C45.7948 17.4 42.3668 23.6714 38.9388 29.9427C37.8361 31.9601 36.7334 33.9775 35.6306 35.9948C34.4735 38.1119 34.8382 37.7358 36.3569 36.7763C38.0278 35.7206 39.8319 34.1451 41.1202 32.673C44.4502 28.8679 48.1361 26.1182 52.2545 23.1666C56.1007 20.4101 60.0847 17.8983 63.8423 15.0188C65.4117 13.8161 67.0923 12.1992 65.6973 14.7512" stroke="#1A2147" stroke-width="2" stroke-linecap="round"/>
<path d="M46.453 37.2966C43.694 39.9234 42.4102 42.0073 46.2046 44.0814C49.3215 45.7851 54.0363 45.501 56.4998 42.831C58.3444 40.832 61.0968 38.3805 57.5227 36.4269C54.9285 35.0089 50.818 35.1188 47.9474 35.4222C45.2147 35.711 44.5015 38.0532 43.3271 40.2017" stroke="#1A2147" stroke-width="2" stroke-linecap="round"/>
<path d="M80.6339 52.1354C84.4423 48.3166 76.306 42.4249 72.1969 46.1567C65.9808 51.802 72.8396 56.0772 78.3134 57.7875" stroke="#1A2147" stroke-width="2" stroke-linecap="round"/>
<path d="M86.3966 51.4408C84.8227 54.3201 79.5202 62.6142 81.0941 59.7348C82.6933 56.809 84.1912 54.1926 85.0836 51.1076C85.6696 49.0815 88.0868 50.7101 88.3346 52.1157C88.7411 54.4216 90.9102 56.1158 93.1776 55.9163" stroke="#1A2147" stroke-width="2" stroke-linecap="round"/>
<path d="M95.3326 54.7877C94.0426 55.7247 89.7613 59.3941 92.0867 61.4292C94.2053 63.2832 97.8482 62.3863 99.8148 60.6553C100.981 59.629 104.062 55.743 101.138 59.3282C99.8287 60.9338 98.7652 62.6112 97.8543 64.3566C94.8512 70.1105 90.2332 79.2278 86.3078 74.059C85.6201 73.1535 84.9819 71.9358 84.4348 70.3536" stroke="#1A2147" stroke-width="2" stroke-linecap="round"/>
<path d="M110.575 50.8162C106.96 59.8311 94.3691 86.0916 99.0277 77.5688" stroke="#1A2147" stroke-width="2" stroke-linecap="round"/>
<path d="M106.582 60.9356C109.382 60.0216 110.597 59.2285 113.422 59.6763C115.955 60.0779 119.212 63.1509 117.724 65.8727C116.287 68.5023 114.183 68.7128 111.289 68.8915C109.658 68.9923 104.071 66.5808 105.769 66.6429" stroke="#1A2147" stroke-width="2" stroke-linecap="round"/>
<path d="M130.334 55.4636C132.707 51.1219 125.587 64.147 123.214 68.4887C122.243 70.2649 121.272 72.041 120.301 73.8172C119.977 74.4103 120.41 72.9146 120.357 72.3094" stroke="#1A2147" stroke-width="2" stroke-linecap="round"/>
<path d="M117.886 65.5763C117.489 64.4945 118.767 66.0581 119.958 66.709C122.577 68.1408 125.518 68.2446 128.329 68.9781" stroke="#1A2147" stroke-width="2" stroke-linecap="round"/>
<path d="M133.602 73.3997C131.441 72.8846 129.626 72.53 128.895 75.0558C128.615 76.0231 128.256 77.6867 128.886 78.5111C131.081 81.3847 133.433 81.5052 136.665 80.4566C142.975 78.4096 138.076 66.9454 132.15 71.8367" stroke="#1A2147" stroke-width="2" stroke-linecap="round"/>
<path d="M32.7015 64.3304C29.4709 65.3495 27.7361 67.5559 28.7645 71.064C30.1926 75.9357 34.6655 75.4622 38.4517 74.0523C41.0226 73.095 42.7585 69.9445 40.9253 67.8858C36.5473 62.9695 33.6626 63.323 27.7995 66.2646" stroke="#1A2147" stroke-width="2" stroke-linecap="round"/>
<path d="M44.2745 69.8878C46.699 71.4169 40.5978 76.6141 39.6539 78.341C38.4009 80.6332 42.7397 73.9582 44.9482 72.5629C46.9702 71.2855 52.9271 70.8958 51.4528 74.965C50.73 76.9601 48.9962 80.5123 47.172 81.468" stroke="#1A2147" stroke-width="2" stroke-linecap="round"/>
<path d="M64.7278 80.2988C64.8953 79.9924 62.8488 82.3297 62.3559 83.2314C60.4169 86.7787 68.1506 85.6728 69.6056 85.4427C71.03 85.2174 72.7088 84.8604 73.6309 83.6274C73.816 83.3799 74.746 81.0304 73.8957 81.8925C71.4205 84.4019 69.979 87.6651 67.8121 90.4431C65.4041 93.5303 57.532 112.064 51.349 104.774C49.0287 102.038 49.9804 87.2798 55.5681 90.3341" stroke="#1A2147" stroke-width="2" stroke-linecap="round"/>
<path d="M75.6529 87.0394C67.538 89.1536 75.1069 97.1517 81.3314 93.2191C83.5766 91.8006 84.7648 89.461 82.6591 87.1952C79.7036 84.0151 77.4383 85.587 75.0056 88.2235" stroke="#1A2147" stroke-width="2" stroke-linecap="round"/>
<path d="M87.0121 90.1718C84.6997 93.474 83.006 95.9054 87.7887 98.2857C91.3678 100.067 93.8504 93.1356 95.1428 90.7713" stroke="#1A2147" stroke-width="2" stroke-linecap="round"/>
<path d="M97.7245 94.4902C98.2296 93.2104 94.3991 97.7605 93.7717 98.9083C92.3899 101.436 95.3879 95.8347 95.8932 95.027C97.0637 93.1559 100.36 93.1497 101.934 94.5268C104.295 96.5932 103.107 100.122 108.113 99.3997" stroke="#1A2147" stroke-width="2" stroke-linecap="round"/>
<path d="M128.792 88.7646C124.1 95.1457 112.637 113.944 116.355 107.141C117.956 104.212 122.933 102.12 125.801 103.688C127.877 104.822 128.417 105.126 128.311 107.674C128.238 109.449 126.831 111.493 124.924 111.245C122.178 110.889 117.991 108.961 115.343 108.992" stroke="#1A2147" stroke-width="2" stroke-linecap="round"/>
<path d="M131.971 110.671C131.221 110.358 129.989 113.371 129.912 113.899C129.371 117.61 134.303 117.309 136.518 116.912C139.322 116.409 141.573 113.43 139.393 110.843C138.565 109.86 137.175 109.131 135.897 109.061C133.69 108.941 132.64 109.043 131.623 110.903" stroke="#1A2147" stroke-width="2" stroke-linecap="round"/>
<path d="M143.526 113.758C142.49 114.292 141.884 114.616 141.408 115.67C140.93 116.727 140.723 118.234 140.881 119.392C141.35 122.82 146.356 122.843 148.725 121.68C149.605 121.248 150.859 120.399 150.869 119.301C150.879 118.274 150.05 117.28 149.445 116.523C147.509 114.104 144.126 113.403 141.867 115.603" stroke="#1A2147" stroke-width="2" stroke-linecap="round"/>
<path d="M156.635 118.834C155.494 120.479 154.269 123.048 152.693 124.105" stroke="#1A2147" stroke-width="2" stroke-linecap="round"/>
<path d="M154.033 121.655C156.378 121.83 158.755 121.924 161.089 122.33" stroke="#1A2147" stroke-width="2" stroke-linecap="round"/>
<path d="M169.342 113.052C168.16 113.866 167.405 114.968 166.483 116.032C165.155 117.564 163.749 119.013 162.349 120.481C161.583 121.284 160.662 121.966 159.826 122.7" stroke="#1A2147" stroke-width="2" stroke-linecap="round"/>
<path d="M154.85 122.102C156.56 123.83 158.621 125.396 159.76 127.609C159.95 127.978 160.221 128.461 159.886 127.782" stroke="#1A2147" stroke-width="2" stroke-linecap="round"/>
<path d="M169.673 126.103C170.272 126.4 170.955 126.123 170.955 125.335C170.953 123.999 169.066 123.585 168.082 123.665C167.113 123.744 165.084 124.414 165.386 125.762C165.673 127.038 166.877 128.118 167.84 128.907C168.511 129.457 174.153 134.662 170.66 134.08C167.872 133.616 164.661 132.767 162.175 131.408C161.472 131.024 160.461 130.552 161.338 129.831" stroke="#1A2147" stroke-width="2" stroke-linecap="round"/>
</svg>
