<svg width="147" height="111" viewBox="0 0 147 111" fill="none" xmlns="http://www.w3.org/2000/svg">
<path d="M1.04057 70.3477C1.04057 78.1985 0.949289 86.0556 1.04057 93.9056C1.05959 95.541 2.6053 107.025 2.6053 100.078" stroke="#1A2147" stroke-width="2" stroke-linecap="round"/>
<path d="M1.04102 71.912C1.37213 74.8921 5.35109 79.8819 7.29996 81.6916C10.8623 84.9995 14.3806 89.6115 17.123 93.6444C17.3358 93.9573 16.5565 82.9422 16.2537 80.9092C15.3379 74.7598 15.5113 67.5985 13.5589 61.7412" stroke="#1A2147" stroke-width="2" stroke-linecap="round"/>
<path d="M21.3823 83.6472C22.9223 85.3797 23.4561 89.4056 27.0328 88.1675C29.737 87.2315 34.6826 81.8895 34.6826 78.953C34.6826 76.2497 31.7659 74.2588 29.206 74.2588C25.4526 74.2588 24.6807 79.2287 23.7294 82.0825" stroke="#1A2147" stroke-width="2" stroke-linecap="round"/>
<path d="M48.7651 64.0881C51.4327 66.8667 52.0498 69.8439 53.8505 73.0853C54.6662 74.5534 54.2087 69.8473 54.2417 68.9561C54.3346 66.4468 55.1592 63.0285 55.8499 60.6109C56.3178 58.9733 58.9845 64.6449 59.3271 65.2616C62.0762 70.21 65.6121 56.7598 65.9338 54.83C66.1628 53.4556 67.0638 57.38 67.7158 58.6115C68.3125 59.7386 70.6209 64.1891 71.4538 62.5233" stroke="#1A2147" stroke-width="2" stroke-linecap="round"/>
<path d="M73.8009 53.9181C73.8009 56.1013 74.7708 63.4447 79.1036 60.6117C81.7973 58.8504 83.8262 52.6767 83.1459 49.6151C82.6081 47.1952 79.1517 46.9015 77.2781 48.0938C73.3856 50.5708 73.0186 52.6507 73.0186 57.0476" stroke="#1A2147" stroke-width="2" stroke-linecap="round"/>
<path d="M86.3188 43.7468C86.5031 44.4226 90.8751 52.8975 91.6216 51.5705C92.6535 49.7359 91.7954 45.2671 91.7954 43.1383C91.7954 34.8812 97.4381 41.8981 98.8367 46.0939" stroke="#1A2147" stroke-width="2" stroke-linecap="round"/>
<path d="M100.967 38.1825C103.133 34.5989 105.286 31.1867 108.008 28.0117" stroke="#1A2147" stroke-width="2" stroke-linecap="round"/>
<path d="M96.272 10.0166C98.1096 17.1511 100.882 23.9935 103.487 30.8797C103.899 31.9676 107.908 43.7584 108.79 42.876" stroke="#1A2147" stroke-width="2" stroke-linecap="round"/>
<path d="M103.66 7.8877C108.135 14.8797 111.565 23.0485 114.613 30.7502C115.624 33.3046 116.113 35.8352 117.352 38.3131C117.831 39.2726 117.754 35.697 117.569 35.0967C116.944 33.0671 115.597 26.6645 118.525 26.6645C121.052 26.6645 122.175 32.3988 123.219 34.4882" stroke="#1A2147" stroke-width="2" stroke-linecap="round"/>
<path d="M123.592 22.9437C124.807 15.7679 126.075 9.80215 124.998 2.67128C124.831 1.56361 122.965 0.361792 122.47 1.86948C121.923 3.5351 121.532 6.01548 121.821 7.69685C122.808 13.4398 125.93 18.4051 126.926 24.0894C127.202 25.668 130.195 31.818 130.242 31.543" stroke="#1A2147" stroke-width="2" stroke-linecap="round"/>
<path d="M132.857 20.214C133.866 21.5458 135.155 22.9419 136.969 22.7001C138.821 22.4531 138.918 19.2545 139.052 17.9362C139.122 17.2413 137.545 14.9589 137.399 15.6167C137.299 16.0688 138.302 17.1608 138.496 17.6028C139.118 19.0147 139.951 20.3879 140.732 21.714C142.263 24.3108 144.547 27.004 145.302 29.964C145.772 31.8097 146.013 34.5487 144.857 36.2001C143.472 38.1798 140.668 38.8168 138.413 39.1584C137.278 39.3304 134.63 40.2815 135.357 38.464" stroke="#1A2147" stroke-width="2" stroke-linecap="round"/>
<path d="M73.6317 87.0885C74.1601 83.2579 74.3048 78.4237 69.6317 77.0885C65.6698 75.9566 67.0761 82.1797 68.1317 84.3663C71.0253 90.3603 72.5355 96.7999 74.6317 103.089C74.9849 104.148 77.2182 109.589 75.6317 109.589" stroke="#1A2147" stroke-width="2" stroke-linecap="round"/>
<path d="M69.1318 107.089C71.2241 104.764 72.5066 101.685 74.3541 99.1723C74.6555 98.7624 78.1645 94.5563 76.1318 96.589" stroke="#1A2147" stroke-width="2" stroke-linecap="round"/>
<path d="M80.1318 100.388C82.4962 99.95 83.6218 98.8757 84.9829 97.0555C85.7353 96.0494 87.1808 93.7669 86.7134 92.4668C85.6465 89.4991 81.0561 94.8897 80.8411 96.318C80.5183 98.4624 80.0921 103.422 83.451 103.584C85.9213 103.702 88.1 101.819 89.9049 100.429C90.5928 99.8989 92.1318 98.8839 92.1318 97.9296" stroke="#1A2147" stroke-width="2" stroke-linecap="round"/>
<path d="M92.1318 94.0892C93.3106 93.2052 99.4431 86.8784 95.4374 85.3948C92.6346 84.3567 91.6318 87.2719 91.6318 89.6031C91.6318 91.8449 92.5681 95.5721 95.3541 95.8253C98.1039 96.0753 99.262 94.5025 101.382 93.0892" stroke="#1A2147" stroke-width="2" stroke-linecap="round"/>
<path d="M104.007 78.7142C103.457 78.7142 102.997 78.5837 102.604 78.9919C102.145 79.4687 101.739 80.0951 101.465 80.6933C101.118 81.4499 101.16 82.3667 101.694 83.0197C102.312 83.7747 103.675 83.8392 104.569 83.8392C105.27 83.8392 105.972 83.8302 106.673 83.8392C107.358 83.8479 108.025 84.106 108.701 84.2142C109.971 84.4174 110.926 84.4103 111.479 85.6864C111.952 86.7794 111.712 87.9411 110.882 88.8392C109.4 90.4409 108.13 89.8406 106.257 89.3392C105.739 89.2007 103.421 88.9251 104.257 88.0892" stroke="#1A2147" stroke-width="2" stroke-linecap="round"/>
<path d="M107.382 62.4639C108.988 64.8357 110.362 67.3235 111.833 69.7764C113.321 72.256 114.933 74.6641 116.507 77.0889" stroke="#1A2147" stroke-width="2" stroke-linecap="round"/>
<path d="M119.274 81.5889C119.274 81.9471 119.449 81.9639 119.774 81.9639" stroke="#1A2147" stroke-width="3" stroke-linecap="round"/>
</svg>
