<svg width="955" height="116" viewBox="0 0 955 116" fill="none" xmlns="http://www.w3.org/2000/svg">
<rect x="1.50074" y="0.843269" width="411.28" height="83.4929" fill="white"/>
<path d="M26.8786 35.8203V23.9458H31.6779C31.7933 23.9458 31.9363 23.9513 32.1067 23.9623C32.2771 23.9677 32.4393 23.9842 32.5932 24.0117C33.2529 24.1162 33.8027 24.3416 34.2425 24.6879C34.6878 25.0343 35.0204 25.4713 35.2403 25.9991C35.4602 26.5268 35.5701 27.1096 35.5701 27.7473C35.5701 28.3905 35.4602 28.976 35.2403 29.5037C35.0204 30.0315 34.6878 30.4685 34.2425 30.8149C33.8027 31.1612 33.2529 31.3866 32.5932 31.491C32.4393 31.513 32.2744 31.5295 32.0984 31.5405C31.928 31.5515 31.7878 31.557 31.6779 31.557H28.6021V35.8203H26.8786ZM28.6021 29.9243H31.6119C31.7219 29.9243 31.8428 29.9188 31.9748 29.9078C32.1122 29.8968 32.2414 29.8775 32.3623 29.8501C32.7142 29.7676 32.9973 29.6164 33.2117 29.3965C33.4261 29.1711 33.58 28.9127 33.6735 28.6214C33.7669 28.33 33.8137 28.0386 33.8137 27.7473C33.8137 27.4559 33.7669 27.1673 33.6735 26.8814C33.58 26.59 33.4261 26.3344 33.2117 26.1145C32.9973 25.8891 32.7142 25.7352 32.3623 25.6527C32.2414 25.6197 32.1122 25.5978 31.9748 25.5868C31.8428 25.5758 31.7219 25.5703 31.6119 25.5703H28.6021V29.9243ZM37.2186 35.8203V26.9144H38.7524V29.0749L38.538 28.7945C38.6479 28.5087 38.7909 28.2475 38.9668 28.0111C39.1427 27.7693 39.3461 27.5713 39.577 27.4174C39.8024 27.2525 40.0525 27.1261 40.3274 27.0381C40.6078 26.9446 40.8936 26.8897 41.185 26.8732C41.4764 26.8512 41.7567 26.8649 42.0261 26.9144V28.5307C41.7348 28.4537 41.4104 28.4317 41.0531 28.4647C40.7012 28.4977 40.3769 28.6104 40.08 28.8028C39.7996 28.9842 39.577 29.2041 39.4121 29.4625C39.2526 29.7209 39.1372 30.0095 39.0657 30.3283C38.9943 30.6417 38.9585 30.9743 38.9585 31.3261V35.8203H37.2186ZM47.3854 36.0677C46.5003 36.0677 45.7224 35.8753 45.0517 35.4905C44.3865 35.1001 43.867 34.5586 43.4932 33.866C43.1248 33.1678 42.9407 32.3597 42.9407 31.4416C42.9407 30.4685 43.1221 29.6247 43.4849 28.91C43.8533 28.1953 44.3645 27.6428 45.0187 27.2525C45.6729 26.8622 46.4343 26.667 47.3029 26.667C48.21 26.667 48.9824 26.8787 49.6201 27.302C50.2578 27.7198 50.7334 28.3163 51.0467 29.0914C51.3656 29.8665 51.492 30.7874 51.426 31.8539H49.7026V31.2272C49.6916 30.1936 49.4937 29.4295 49.1088 28.9347C48.7295 28.4399 48.1495 28.1926 47.3689 28.1926C46.5058 28.1926 45.8571 28.4647 45.4228 29.0089C44.9885 29.5532 44.7713 30.3393 44.7713 31.3674C44.7713 32.3459 44.9885 33.1046 45.4228 33.6433C45.8571 34.1766 46.4838 34.4432 47.3029 34.4432C47.8417 34.4432 48.3062 34.3222 48.6965 34.0804C49.0924 33.833 49.4002 33.4811 49.6201 33.0248L51.3106 33.5608C50.9642 34.358 50.4392 34.9764 49.7356 35.4162C49.0319 35.8505 48.2485 36.0677 47.3854 36.0677ZM44.2106 31.8539V30.5097H50.5684V31.8539H44.2106ZM56.6818 36.0595C55.5988 36.0595 54.7165 35.8203 54.0348 35.342C53.3531 34.8638 52.9353 34.1903 52.7814 33.3217L54.5461 33.0496C54.656 33.5114 54.9089 33.877 55.3047 34.1463C55.706 34.4102 56.2036 34.5421 56.7973 34.5421C57.336 34.5421 57.7566 34.4322 58.059 34.2123C58.3668 33.9924 58.5207 33.69 58.5207 33.3052C58.5207 33.0798 58.4658 32.8984 58.3558 32.761C58.2514 32.618 58.0287 32.4833 57.6879 32.3569C57.347 32.2305 56.8275 32.0738 56.1293 31.8869C55.3652 31.689 54.7577 31.4773 54.3069 31.2519C53.8616 31.021 53.5428 30.7544 53.3504 30.452C53.1635 30.1442 53.07 29.7731 53.07 29.3388C53.07 28.8 53.2129 28.33 53.4988 27.9287C53.7847 27.5274 54.186 27.2168 54.7027 26.9969C55.225 26.777 55.8352 26.667 56.5334 26.667C57.2151 26.667 57.8226 26.7742 58.3558 26.9886C58.8891 27.203 59.3206 27.5081 59.6505 27.9039C59.9803 28.2943 60.1782 28.7533 60.2442 29.2811L58.4795 29.6027C58.419 29.1739 58.2184 28.8358 57.8775 28.5884C57.5367 28.341 57.0941 28.2063 56.5499 28.1843C56.0276 28.1623 55.6043 28.2503 55.28 28.4482C54.9556 28.6406 54.7935 28.9072 54.7935 29.2481C54.7935 29.446 54.8539 29.6137 54.9749 29.7511C55.1013 29.8885 55.3432 30.0205 55.7005 30.1469C56.0579 30.2734 56.5856 30.4245 57.2838 30.6005C58.0315 30.7929 58.6252 31.0073 59.065 31.2437C59.5048 31.4746 59.8181 31.7522 60.0051 32.0765C60.1975 32.3954 60.2937 32.783 60.2937 33.2392C60.2937 34.1188 59.9721 34.8088 59.3289 35.309C58.6912 35.8093 57.8088 36.0595 56.6818 36.0595ZM66.0682 36.0677C65.1831 36.0677 64.4052 35.8753 63.7345 35.4905C63.0693 35.1001 62.5498 34.5586 62.176 33.866C61.8077 33.1678 61.6235 32.3597 61.6235 31.4416C61.6235 30.4685 61.8049 29.6247 62.1678 28.91C62.5361 28.1953 63.0474 27.6428 63.7016 27.2525C64.3558 26.8622 65.1172 26.667 65.9858 26.667C66.8928 26.667 67.6652 26.8787 68.3029 27.302C68.9407 27.7198 69.4162 28.3163 69.7295 29.0914C70.0484 29.8665 70.1748 30.7874 70.1089 31.8539H68.3854V31.2272C68.3744 30.1936 68.1765 29.4295 67.7917 28.9347C67.4124 28.4399 66.8324 28.1926 66.0517 28.1926C65.1886 28.1926 64.5399 28.4647 64.1056 29.0089C63.6713 29.5532 63.4542 30.3393 63.4542 31.3674C63.4542 32.3459 63.6713 33.1046 64.1056 33.6433C64.5399 34.1766 65.1666 34.4432 65.9858 34.4432C66.5245 34.4432 66.989 34.3222 67.3794 34.0804C67.7752 33.833 68.083 33.4811 68.3029 33.0248L69.9934 33.5608C69.6471 34.358 69.1221 34.9764 68.4184 35.4162C67.7147 35.8505 66.9313 36.0677 66.0682 36.0677ZM62.8934 31.8539V30.5097H69.2513V31.8539H62.8934ZM77.968 35.8203V31.4416C77.968 31.0952 77.9378 30.7406 77.8773 30.3778C77.8223 30.0095 77.7124 29.6686 77.5475 29.3553C77.388 29.0419 77.1599 28.789 76.863 28.5966C76.5717 28.4042 76.1896 28.308 75.7168 28.308C75.409 28.308 75.1176 28.3602 74.8427 28.4647C74.5678 28.5636 74.3259 28.7258 74.117 28.9512C73.9136 29.1766 73.7515 29.4735 73.6305 29.8418C73.5151 30.2101 73.4573 30.6582 73.4573 31.1859L72.3853 30.7819C72.3853 29.9737 72.5365 29.2618 72.8389 28.6461C73.1412 28.0249 73.5755 27.5411 74.1418 27.1948C74.708 26.8484 75.3925 26.6753 76.1951 26.6753C76.8108 26.6753 77.3276 26.7742 77.7454 26.9721C78.1632 27.17 78.5013 27.4312 78.7597 27.7555C79.0235 28.0744 79.2242 28.4235 79.3616 28.8028C79.4991 29.1821 79.5925 29.5532 79.642 29.916C79.6915 30.2789 79.7162 30.5977 79.7162 30.8726V35.8203H77.968ZM71.7091 35.8203V26.9144H73.2512V29.4872H73.4573V35.8203H71.7091ZM86.9603 35.8203C86.3995 35.9303 85.8498 35.977 85.311 35.9605C84.7723 35.944 84.2912 35.8396 83.8679 35.6471C83.4446 35.4547 83.1258 35.1524 82.9114 34.7401C82.719 34.3717 82.6145 33.9979 82.598 33.6186C82.587 33.2337 82.5815 32.7994 82.5815 32.3157V24.4405H84.3132V32.2332C84.3132 32.5905 84.316 32.9012 84.3215 33.165C84.3325 33.4289 84.3902 33.6516 84.4947 33.833C84.6926 34.1738 85.0059 34.369 85.4347 34.4185C85.869 34.4624 86.3775 34.4432 86.9603 34.3607V35.8203ZM80.8746 28.2998V26.9144H86.9603V28.2998H80.8746ZM91.3531 36.0677C90.6934 36.0677 90.1409 35.9468 89.6956 35.7049C89.2503 35.4575 88.9122 35.1331 88.6813 34.7318C88.4559 34.325 88.3432 33.8797 88.3432 33.3959C88.3432 32.9451 88.4229 32.5493 88.5823 32.2085C88.7418 31.8676 88.9781 31.579 89.2915 31.3426C89.6049 31.1007 89.9897 30.9056 90.446 30.7571C90.8418 30.6417 91.2898 30.54 91.7901 30.452C92.2904 30.3641 92.8154 30.2816 93.3651 30.2046C93.9204 30.1277 94.4701 30.0507 95.0144 29.9737L94.3877 30.3201C94.3987 29.6219 94.2502 29.1051 93.9424 28.7698C93.64 28.429 93.1177 28.2585 92.3756 28.2585C91.9083 28.2585 91.4795 28.3685 91.0892 28.5884C90.6989 28.8028 90.4267 29.1601 90.2728 29.6604L88.6648 29.1656C88.8847 28.4015 89.3025 27.794 89.9182 27.3432C90.5394 26.8924 91.364 26.667 92.3921 26.667C93.1892 26.667 93.8819 26.8044 94.4701 27.0793C95.0639 27.3487 95.4982 27.7775 95.773 28.3657C95.916 28.6571 96.0039 28.965 96.0369 29.2893C96.0699 29.6137 96.0864 29.9627 96.0864 30.3366V35.8203H94.5608V33.7835L94.8577 34.0474C94.4894 34.7291 94.0193 35.2376 93.4476 35.5729C92.8814 35.9028 92.1832 36.0677 91.3531 36.0677ZM91.6582 34.6576C92.1474 34.6576 92.568 34.5724 92.9198 34.402C93.2717 34.226 93.5548 34.0034 93.7692 33.734C93.9836 33.4646 94.1238 33.1843 94.1898 32.8929C94.2832 32.629 94.3354 32.3322 94.3464 32.0023C94.3629 31.6725 94.3712 31.4086 94.3712 31.2107L94.9319 31.4168C94.3877 31.4993 93.8929 31.5735 93.4476 31.6395C93.0023 31.7055 92.5982 31.7714 92.2354 31.8374C91.8781 31.8979 91.5592 31.9721 91.2788 32.06C91.0424 32.1425 90.8308 32.2415 90.6439 32.3569C90.4625 32.4723 90.3168 32.6125 90.2068 32.7775C90.1024 32.9424 90.0502 33.143 90.0502 33.3794C90.0502 33.6103 90.1079 33.8247 90.2233 34.0226C90.3388 34.215 90.5147 34.369 90.7511 34.4844C90.9875 34.5999 91.2898 34.6576 91.6582 34.6576ZM103.324 35.8203C102.763 35.9303 102.213 35.977 101.675 35.9605C101.136 35.944 100.655 35.8396 100.232 35.6471C99.8082 35.4547 99.4894 35.1524 99.275 34.7401C99.0826 34.3717 98.9781 33.9979 98.9616 33.6186C98.9506 33.2337 98.9451 32.7994 98.9451 32.3157V24.4405H100.677V32.2332C100.677 32.5905 100.68 32.9012 100.685 33.165C100.696 33.4289 100.754 33.6516 100.858 33.833C101.056 34.1738 101.37 34.369 101.798 34.4185C102.233 34.4624 102.741 34.4432 103.324 34.3607V35.8203ZM97.2382 28.2998V26.9144H103.324V28.2998H97.2382ZM105.366 25.4548V23.7808H107.09V25.4548H105.366ZM105.366 35.8203V26.9144H107.09V35.8203H105.366ZM113.434 36.0677C112.543 36.0677 111.771 35.867 111.117 35.4657C110.462 35.0644 109.957 34.5119 109.599 33.8082C109.247 33.0991 109.071 32.2827 109.071 31.3591C109.071 30.43 109.253 29.6137 109.616 28.91C109.979 28.2008 110.487 27.6511 111.141 27.2607C111.795 26.8649 112.56 26.667 113.434 26.667C114.324 26.667 115.097 26.8677 115.751 27.269C116.405 27.6703 116.911 28.2228 117.268 28.9265C117.626 29.6302 117.804 30.441 117.804 31.3591C117.804 32.2882 117.623 33.1073 117.26 33.8165C116.903 34.5202 116.397 35.0727 115.743 35.474C115.088 35.8698 114.319 36.0677 113.434 36.0677ZM113.434 34.4432C114.286 34.4432 114.921 34.1573 115.339 33.5856C115.762 33.0084 115.974 32.2662 115.974 31.3591C115.974 30.43 115.759 29.6879 115.33 29.1326C114.907 28.5719 114.275 28.2915 113.434 28.2915C112.856 28.2915 112.381 28.4235 112.007 28.6873C111.633 28.9457 111.356 29.3058 111.174 29.7676C110.993 30.2239 110.902 30.7544 110.902 31.3591C110.902 32.2937 111.117 33.0413 111.545 33.6021C111.974 34.1628 112.604 34.4432 113.434 34.4432ZM125.867 35.8203V31.4416C125.867 31.0952 125.837 30.7406 125.776 30.3778C125.721 30.0095 125.611 29.6686 125.446 29.3553C125.287 29.0419 125.059 28.789 124.762 28.5966C124.471 28.4042 124.089 28.308 123.616 28.308C123.308 28.308 123.017 28.3602 122.742 28.4647C122.467 28.5636 122.225 28.7258 122.016 28.9512C121.813 29.1766 121.65 29.4735 121.529 29.8418C121.414 30.2101 121.356 30.6582 121.356 31.1859L120.284 30.7819C120.284 29.9737 120.435 29.2618 120.738 28.6461C121.04 28.0249 121.474 27.5411 122.041 27.1948C122.607 26.8484 123.291 26.6753 124.094 26.6753C124.71 26.6753 125.226 26.7742 125.644 26.9721C126.062 27.17 126.4 27.4312 126.659 27.7555C126.922 28.0744 127.123 28.4235 127.261 28.8028C127.398 29.1821 127.491 29.5532 127.541 29.916C127.59 30.2789 127.615 30.5977 127.615 30.8726V35.8203H125.867ZM119.608 35.8203V26.9144H121.15V29.4872H121.356V35.8203H119.608ZM136.602 36.0677C135.772 36.0677 135.055 35.8615 134.45 35.4492C133.851 35.0369 133.386 34.4762 133.056 33.767C132.732 33.0523 132.57 32.2497 132.57 31.3591C132.57 30.463 132.735 29.6631 133.065 28.9595C133.395 28.2503 133.862 27.6923 134.467 27.2855C135.077 26.8732 135.8 26.667 136.635 26.667C137.476 26.667 138.183 26.8732 138.755 27.2855C139.332 27.6923 139.766 28.2503 140.058 28.9595C140.354 29.6686 140.503 30.4685 140.503 31.3591C140.503 32.2497 140.354 33.0496 140.058 33.7588C139.761 34.4679 139.324 35.0314 138.746 35.4492C138.169 35.8615 137.454 36.0677 136.602 36.0677ZM136.842 34.5092C137.408 34.5092 137.87 34.3745 138.227 34.1051C138.584 33.8357 138.845 33.4646 139.01 32.9919C139.175 32.5191 139.258 31.9748 139.258 31.3591C139.258 30.7434 139.172 30.1991 139.002 29.7264C138.837 29.2536 138.579 28.8852 138.227 28.6214C137.881 28.3575 137.438 28.2255 136.899 28.2255C136.327 28.2255 135.857 28.3657 135.489 28.6461C135.121 28.9265 134.846 29.3031 134.665 29.7758C134.489 30.2486 134.401 30.7764 134.401 31.3591C134.401 31.9473 134.489 32.4806 134.665 32.9589C134.846 33.4317 135.115 33.8082 135.473 34.0886C135.835 34.369 136.292 34.5092 136.842 34.5092ZM139.258 35.8203V29.413H139.06V23.9458H140.791V35.8203H139.258ZM147.049 36.0677C146.164 36.0677 145.386 35.8753 144.715 35.4905C144.05 35.1001 143.53 34.5586 143.156 33.866C142.788 33.1678 142.604 32.3597 142.604 31.4416C142.604 30.4685 142.785 29.6247 143.148 28.91C143.517 28.1953 144.028 27.6428 144.682 27.2525C145.336 26.8622 146.098 26.667 146.966 26.667C147.873 26.667 148.646 26.8787 149.283 27.302C149.921 27.7198 150.397 28.3163 150.71 29.0914C151.029 29.8665 151.155 30.7874 151.089 31.8539H149.366V31.2272C149.355 30.1936 149.157 29.4295 148.772 28.9347C148.393 28.4399 147.813 28.1926 147.032 28.1926C146.169 28.1926 145.52 28.4647 145.086 29.0089C144.652 29.5532 144.435 30.3393 144.435 31.3674C144.435 32.3459 144.652 33.1046 145.086 33.6433C145.52 34.1766 146.147 34.4432 146.966 34.4432C147.505 34.4432 147.969 34.3222 148.36 34.0804C148.756 33.833 149.063 33.4811 149.283 33.0248L150.974 33.5608C150.628 34.358 150.102 34.9764 149.399 35.4162C148.695 35.8505 147.912 36.0677 147.049 36.0677ZM143.874 31.8539V30.5097H150.232V31.8539H143.874ZM156.345 36.0595C155.262 36.0595 154.38 35.8203 153.698 35.342C153.016 34.8638 152.599 34.1903 152.445 33.3217L154.209 33.0496C154.319 33.5114 154.572 33.877 154.968 34.1463C155.369 34.4102 155.867 34.5421 156.461 34.5421C156.999 34.5421 157.42 34.4322 157.722 34.2123C158.03 33.9924 158.184 33.69 158.184 33.3052C158.184 33.0798 158.129 32.8984 158.019 32.761C157.915 32.618 157.692 32.4833 157.351 32.3569C157.01 32.2305 156.491 32.0738 155.793 31.8869C155.028 31.689 154.421 31.4773 153.97 31.2519C153.525 31.021 153.206 30.7544 153.014 30.452C152.827 30.1442 152.733 29.7731 152.733 29.3388C152.733 28.8 152.876 28.33 153.162 27.9287C153.448 27.5274 153.849 27.2168 154.366 26.9969C154.888 26.777 155.498 26.667 156.197 26.667C156.878 26.667 157.486 26.7742 158.019 26.9886C158.552 27.203 158.984 27.5081 159.314 27.9039C159.644 28.2943 159.841 28.7533 159.907 29.2811L158.143 29.6027C158.082 29.1739 157.882 28.8358 157.541 28.5884C157.2 28.341 156.757 28.2063 156.213 28.1843C155.691 28.1623 155.268 28.2503 154.943 28.4482C154.619 28.6406 154.457 28.9072 154.457 29.2481C154.457 29.446 154.517 29.6137 154.638 29.7511C154.765 29.8885 155.006 30.0205 155.364 30.1469C155.721 30.2734 156.249 30.4245 156.947 30.6005C157.695 30.7929 158.288 31.0073 158.728 31.2437C159.168 31.4746 159.481 31.7522 159.668 32.0765C159.861 32.3954 159.957 32.783 159.957 33.2392C159.957 34.1188 159.635 34.8088 158.992 35.309C158.354 35.8093 157.472 36.0595 156.345 36.0595ZM161.946 25.4548V23.7808H163.67V25.4548H161.946ZM161.946 35.8203V26.9144H163.67V35.8203H161.946ZM169.816 40.0259C169.338 40.0259 168.873 39.9517 168.422 39.8032C167.977 39.6548 167.57 39.4349 167.202 39.1435C166.833 38.8577 166.528 38.5031 166.286 38.0798L167.878 37.2716C168.07 37.651 168.345 37.9286 168.703 38.1045C169.06 38.2804 169.436 38.3684 169.832 38.3684C170.322 38.3684 170.739 38.2804 171.086 38.1045C171.432 37.9341 171.693 37.6757 171.869 37.3294C172.051 36.983 172.138 36.5542 172.133 36.043V33.5526H172.339V26.9144H173.865V36.0595C173.865 36.2958 173.856 36.5212 173.84 36.7356C173.823 36.95 173.793 37.1644 173.749 37.3788C173.623 37.9781 173.381 38.4728 173.024 38.8632C172.672 39.2535 172.221 39.5449 171.671 39.7373C171.127 39.9297 170.508 40.0259 169.816 40.0259ZM169.684 36.0677C168.854 36.0677 168.136 35.8615 167.532 35.4492C166.932 35.0369 166.468 34.4762 166.138 33.767C165.814 33.0523 165.651 32.2497 165.651 31.3591C165.651 30.463 165.816 29.6631 166.146 28.9595C166.476 28.2503 166.943 27.6923 167.548 27.2855C168.158 26.8732 168.881 26.667 169.717 26.667C170.558 26.667 171.264 26.8732 171.836 27.2855C172.413 27.6923 172.848 28.2503 173.139 28.9595C173.436 29.6686 173.584 30.4685 173.584 31.3591C173.584 32.2497 173.436 33.0496 173.139 33.7588C172.842 34.4679 172.405 35.0314 171.828 35.4492C171.251 35.8615 170.536 36.0677 169.684 36.0677ZM169.923 34.5092C170.489 34.5092 170.951 34.3745 171.308 34.1051C171.666 33.8357 171.927 33.4646 172.092 32.9919C172.257 32.5191 172.339 31.9748 172.339 31.3591C172.339 30.7434 172.254 30.1991 172.084 29.7264C171.919 29.2536 171.66 28.8852 171.308 28.6214C170.962 28.3575 170.519 28.2255 169.981 28.2255C169.409 28.2255 168.939 28.3657 168.571 28.6461C168.202 28.9265 167.927 29.3031 167.746 29.7758C167.57 30.2486 167.482 30.7764 167.482 31.3591C167.482 31.9473 167.57 32.4806 167.746 32.9589C167.927 33.4317 168.197 33.8082 168.554 34.0886C168.917 34.369 169.373 34.5092 169.923 34.5092ZM182.431 35.8203V31.4416C182.431 31.0952 182.401 30.7406 182.34 30.3778C182.285 30.0095 182.175 29.6686 182.01 29.3553C181.851 29.0419 181.623 28.789 181.326 28.5966C181.034 28.4042 180.652 28.308 180.18 28.308C179.872 28.308 179.58 28.3602 179.306 28.4647C179.031 28.5636 178.789 28.7258 178.58 28.9512C178.376 29.1766 178.214 29.4735 178.093 29.8418C177.978 30.2101 177.92 30.6582 177.92 31.1859L176.848 30.7819C176.848 29.9737 176.999 29.2618 177.302 28.6461C177.604 28.0249 178.038 27.5411 178.605 27.1948C179.171 26.8484 179.855 26.6753 180.658 26.6753C181.274 26.6753 181.79 26.7742 182.208 26.9721C182.626 27.17 182.964 27.4312 183.222 27.7555C183.486 28.0744 183.687 28.4235 183.824 28.8028C183.962 29.1821 184.055 29.5532 184.105 29.916C184.154 30.2789 184.179 30.5977 184.179 30.8726V35.8203H182.431ZM176.172 35.8203V26.9144H177.714V29.4872H177.92V35.8203H176.172Z" fill="#1A2147"/>
<rect x="1.50074" y="0.843269" width="411.28" height="83.4929" stroke="#B8BAC6" stroke-width="1.03078"/>
<rect x="412.782" y="0.840706" width="102.047" height="83.4929" fill="white"/>
<path d="M437.83 35.8095L437.838 34.2757L443.009 29.6413C443.426 29.273 443.71 28.9212 443.858 28.5858C444.012 28.2505 444.089 27.9151 444.089 27.5798C444.089 27.1565 443.995 26.7771 443.809 26.4418C443.622 26.101 443.363 25.8316 443.033 25.6337C442.704 25.4358 442.324 25.3368 441.895 25.3368C441.456 25.3368 441.063 25.4413 440.716 25.6502C440.375 25.8536 440.109 26.1257 439.916 26.4665C439.724 26.8074 439.63 27.1757 439.636 27.5715H437.871C437.871 26.8019 438.044 26.1284 438.391 25.5512C438.743 24.9685 439.224 24.5149 439.834 24.1906C440.444 23.8607 441.142 23.6958 441.928 23.6958C442.676 23.6958 443.347 23.8662 443.94 24.2071C444.534 24.5424 445.001 25.0042 445.342 25.5924C445.689 26.1807 445.862 26.8514 445.862 27.6045C445.862 28.1488 445.79 28.6106 445.647 28.9899C445.504 29.3692 445.29 29.721 445.004 30.0454C444.718 30.3697 444.361 30.7216 443.932 31.1009L439.941 34.6633L439.751 34.1685H445.862V35.8095H437.83ZM449.909 35.8177V25.8398L447.675 27.2005V25.2791L449.909 23.9432H451.666V35.8177H449.909Z" fill="#1A2147"/>
<path d="M478.395 35.8177L477.241 34.6633L487.969 23.9432L489.123 25.1059L478.395 35.8177ZM486.65 36.0651C486.105 36.0651 485.608 35.9332 485.157 35.6693C484.712 35.3999 484.354 35.0426 484.085 34.5973C483.816 34.1465 483.681 33.6462 483.681 33.0965C483.681 32.5577 483.818 32.063 484.093 31.6122C484.368 31.1614 484.731 30.8013 485.182 30.5319C485.633 30.2625 486.122 30.1279 486.65 30.1279C487.194 30.1279 487.691 30.2625 488.142 30.5319C488.593 30.7958 488.95 31.1531 489.214 31.6039C489.484 32.0492 489.618 32.5467 489.618 33.0965C489.618 33.6462 489.484 34.1465 489.214 34.5973C488.95 35.0426 488.593 35.3999 488.142 35.6693C487.691 35.9332 487.194 36.0651 486.65 36.0651ZM486.65 34.5726C486.919 34.5726 487.164 34.5066 487.383 34.3747C487.609 34.2372 487.788 34.0558 487.919 33.8304C488.057 33.605 488.126 33.3604 488.126 33.0965C488.126 32.8326 488.057 32.588 487.919 32.3626C487.788 32.1372 487.609 31.9585 487.383 31.8266C487.164 31.6891 486.919 31.6204 486.65 31.6204C486.386 31.6204 486.141 31.6891 485.916 31.8266C485.696 31.9585 485.517 32.1372 485.38 32.3626C485.248 32.588 485.182 32.8326 485.182 33.0965C485.182 33.3604 485.248 33.605 485.38 33.8304C485.517 34.0558 485.696 34.2372 485.916 34.3747C486.141 34.5066 486.386 34.5726 486.65 34.5726ZM479.715 29.6331C479.17 29.6331 478.673 29.5011 478.222 29.2373C477.771 28.9679 477.411 28.6106 477.142 28.1653C476.878 27.7145 476.746 27.2142 476.746 26.6644C476.746 26.1257 476.883 25.6309 477.158 25.1801C477.433 24.7293 477.796 24.3693 478.247 24.0999C478.697 23.8305 479.187 23.6958 479.715 23.6958C480.259 23.6958 480.754 23.8305 481.199 24.0999C481.65 24.3638 482.01 24.7211 482.279 25.1719C482.548 25.6172 482.683 26.1147 482.683 26.6644C482.683 27.2142 482.548 27.7145 482.279 28.1653C482.01 28.6106 481.65 28.9679 481.199 29.2373C480.754 29.5011 480.259 29.6331 479.715 29.6331ZM479.715 28.1405C479.978 28.1405 480.223 28.0746 480.448 27.9426C480.674 27.8052 480.852 27.6238 480.984 27.3984C481.122 27.173 481.191 26.9283 481.191 26.6644C481.191 26.4006 481.122 26.1559 480.984 25.9305C480.852 25.7051 480.674 25.5265 480.448 25.3945C480.223 25.2571 479.978 25.1884 479.715 25.1884C479.451 25.1884 479.206 25.2571 478.981 25.3945C478.761 25.5265 478.582 25.7051 478.445 25.9305C478.307 26.1559 478.238 26.4006 478.238 26.6644C478.238 26.9283 478.307 27.173 478.445 27.3984C478.582 27.6238 478.761 27.8052 478.981 27.9426C479.2 28.0746 479.445 28.1405 479.715 28.1405Z" fill="#1A2147"/>
<rect x="412.782" y="0.840706" width="102.047" height="83.4929" stroke="#B8BAC6" stroke-width="1.03078"/>
<rect x="514.826" y="0.842659" width="152.555" height="83.4929" fill="white"/>
<path d="M542.274 35.8197V25.8418L540.039 27.2024V25.281L542.274 23.9451H544.031V35.8197H542.274ZM551.302 36.0671C550.493 36.0671 549.779 35.8912 549.158 35.5393C548.536 35.182 548.047 34.6927 547.69 34.0715C547.338 33.4503 547.162 32.7356 547.162 31.9275V27.8374C547.162 27.0292 547.338 26.3146 547.69 25.6933C548.047 25.0721 548.536 24.5856 549.158 24.2338C549.779 23.8764 550.493 23.6978 551.302 23.6978C552.11 23.6978 552.824 23.8764 553.446 24.2338C554.067 24.5856 554.553 25.0721 554.905 25.6933C555.263 26.3146 555.441 27.0292 555.441 27.8374V31.9275C555.441 32.7356 555.263 33.4503 554.905 34.0715C554.553 34.6927 554.067 35.182 553.446 35.5393C552.824 35.8912 552.11 36.0671 551.302 36.0671ZM551.302 34.4178C551.741 34.4178 552.14 34.3134 552.497 34.1045C552.86 33.8901 553.149 33.6042 553.363 33.2469C553.578 32.884 553.685 32.48 553.685 32.0347V27.7137C553.685 27.2739 553.578 26.8753 553.363 26.518C553.149 26.1551 552.86 25.8693 552.497 25.6604C552.14 25.446 551.741 25.3388 551.302 25.3388C550.862 25.3388 550.461 25.446 550.098 25.6604C549.74 25.8693 549.454 26.1551 549.24 26.518C549.026 26.8753 548.918 27.2739 548.918 27.7137V32.0347C548.918 32.48 549.026 32.884 549.24 33.2469C549.454 33.6042 549.74 33.8901 550.098 34.1045C550.461 34.3134 550.862 34.4178 551.302 34.4178ZM561.883 36.0671C561.075 36.0671 560.36 35.8912 559.739 35.5393C559.118 35.182 558.629 34.6927 558.271 34.0715C557.92 33.4503 557.744 32.7356 557.744 31.9275V27.8374C557.744 27.0292 557.92 26.3146 558.271 25.6933C558.629 25.0721 559.118 24.5856 559.739 24.2338C560.36 23.8764 561.075 23.6978 561.883 23.6978C562.691 23.6978 563.406 23.8764 564.027 24.2338C564.648 24.5856 565.135 25.0721 565.487 25.6933C565.844 26.3146 566.023 27.0292 566.023 27.8374V31.9275C566.023 32.7356 565.844 33.4503 565.487 34.0715C565.135 34.6927 564.648 35.182 564.027 35.5393C563.406 35.8912 562.691 36.0671 561.883 36.0671ZM561.883 34.4178C562.323 34.4178 562.722 34.3134 563.079 34.1045C563.442 33.8901 563.73 33.6042 563.945 33.2469C564.159 32.884 564.266 32.48 564.266 32.0347V27.7137C564.266 27.2739 564.159 26.8753 563.945 26.518C563.73 26.1551 563.442 25.8693 563.079 25.6604C562.722 25.446 562.323 25.3388 561.883 25.3388C561.443 25.3388 561.042 25.446 560.679 25.6604C560.322 25.8693 560.036 26.1551 559.822 26.518C559.607 26.8753 559.5 27.2739 559.5 27.7137V32.0347C559.5 32.48 559.607 32.884 559.822 33.2469C560.036 33.6042 560.322 33.8901 560.679 34.1045C561.042 34.3134 561.443 34.4178 561.883 34.4178ZM568.622 35.8197V33.9973H570.444V35.8197H568.622ZM577.184 36.0671C576.376 36.0671 575.661 35.8912 575.04 35.5393C574.419 35.182 573.929 34.6927 573.572 34.0715C573.22 33.4503 573.044 32.7356 573.044 31.9275V27.8374C573.044 27.0292 573.22 26.3146 573.572 25.6933C573.929 25.0721 574.419 24.5856 575.04 24.2338C575.661 23.8764 576.376 23.6978 577.184 23.6978C577.992 23.6978 578.707 23.8764 579.328 24.2338C579.949 24.5856 580.436 25.0721 580.787 25.6933C581.145 26.3146 581.323 27.0292 581.323 27.8374V31.9275C581.323 32.7356 581.145 33.4503 580.787 34.0715C580.436 34.6927 579.949 35.182 579.328 35.5393C578.707 35.8912 577.992 36.0671 577.184 36.0671ZM577.184 34.4178C577.624 34.4178 578.022 34.3134 578.379 34.1045C578.742 33.8901 579.031 33.6042 579.245 33.2469C579.46 32.884 579.567 32.48 579.567 32.0347V27.7137C579.567 27.2739 579.46 26.8753 579.245 26.518C579.031 26.1551 578.742 25.8693 578.379 25.6604C578.022 25.446 577.624 25.3388 577.184 25.3388C576.744 25.3388 576.343 25.446 575.98 25.6604C575.623 25.8693 575.337 26.1551 575.122 26.518C574.908 26.8753 574.801 27.2739 574.801 27.7137V32.0347C574.801 32.48 574.908 32.884 575.122 33.2469C575.337 33.6042 575.623 33.8901 575.98 34.1045C576.343 34.3134 576.744 34.4178 577.184 34.4178ZM587.765 36.0671C586.957 36.0671 586.243 35.8912 585.621 35.5393C585 35.182 584.511 34.6927 584.154 34.0715C583.802 33.4503 583.626 32.7356 583.626 31.9275V27.8374C583.626 27.0292 583.802 26.3146 584.154 25.6933C584.511 25.0721 585 24.5856 585.621 24.2338C586.243 23.8764 586.957 23.6978 587.765 23.6978C588.573 23.6978 589.288 23.8764 589.909 24.2338C590.531 24.5856 591.017 25.0721 591.369 25.6933C591.726 26.3146 591.905 27.0292 591.905 27.8374V31.9275C591.905 32.7356 591.726 33.4503 591.369 34.0715C591.017 34.6927 590.531 35.182 589.909 35.5393C589.288 35.8912 588.573 36.0671 587.765 36.0671ZM587.765 34.4178C588.205 34.4178 588.604 34.3134 588.961 34.1045C589.324 33.8901 589.613 33.6042 589.827 33.2469C590.041 32.884 590.149 32.48 590.149 32.0347V27.7137C590.149 27.2739 590.041 26.8753 589.827 26.518C589.613 26.1551 589.324 25.8693 588.961 25.6604C588.604 25.446 588.205 25.3388 587.765 25.3388C587.326 25.3388 586.924 25.446 586.561 25.6604C586.204 25.8693 585.918 26.1551 585.704 26.518C585.489 26.8753 585.382 27.2739 585.382 27.7137V32.0347C585.382 32.48 585.489 32.884 585.704 33.2469C585.918 33.6042 586.204 33.8901 586.561 34.1045C586.924 34.3134 587.326 34.4178 587.765 34.4178Z" fill="#1A2147"/>
<path d="M639.491 36.0671C638.32 36.0671 637.316 35.8032 636.481 35.2755C635.645 34.7422 635.002 34.011 634.551 33.082C634.1 32.1474 633.872 31.0809 633.867 29.8824C633.894 28.64 634.131 27.557 634.576 26.6334C635.027 25.7043 635.667 24.9842 636.497 24.4729C637.327 23.9561 638.325 23.6978 639.491 23.6978C640.035 23.6978 640.56 23.7637 641.066 23.8957C641.577 24.0276 642.05 24.2283 642.484 24.4976L641.569 25.9325C641.266 25.7346 640.937 25.5861 640.579 25.4872C640.222 25.3827 639.859 25.3305 639.491 25.3305C638.644 25.325 637.94 25.5147 637.38 25.8995C636.824 26.2843 636.407 26.8203 636.126 27.5075C635.851 28.1947 635.708 28.9863 635.697 29.8824C635.708 30.795 635.854 31.5949 636.134 32.2821C636.415 32.9638 636.835 33.4943 637.396 33.8736C637.957 34.2474 638.655 34.4316 639.491 34.4261C640.26 34.4426 640.959 34.2474 641.585 33.8406L642.492 35.259C642.053 35.5283 641.577 35.729 641.066 35.8609C640.554 35.9984 640.029 36.0671 639.491 36.0671ZM632.572 31.944V30.5586H640.266V31.944H632.572ZM632.572 29.231V27.8456H640.266V29.231H632.572Z" fill="#1A2147"/>
<path d="M542.006 64.0659L539.112 55.16H540.454L542.921 62.761L545.42 55.16H546.762L543.868 64.0659H542.006ZM546.207 64.0659L549.101 55.16H550.963L553.857 64.0659H552.515L549.849 55.9393H550.183L547.549 64.0659H546.207ZM547.709 62.0559V60.8437H552.36V62.0559H547.709ZM556.45 64.0659V56.3784H553.488V55.16H560.705V56.3784H557.743V64.0659H556.45ZM563.92 56.2918V55.0363H565.213V56.2918H563.92ZM563.92 64.0659V57.3865H565.213V64.0659H563.92ZM571.758 64.0659V60.7819C571.758 60.5221 571.735 60.2562 571.69 59.984C571.649 59.7078 571.566 59.4522 571.443 59.2171C571.323 58.9821 571.152 58.7925 570.929 58.6482C570.711 58.5038 570.424 58.4317 570.07 58.4317C569.839 58.4317 569.62 58.4709 569.414 58.5492C569.208 58.6234 569.027 58.745 568.87 58.9141C568.717 59.0831 568.596 59.3058 568.505 59.582C568.418 59.8583 568.375 60.1943 568.375 60.5901L567.571 60.2871C567.571 59.681 567.685 59.147 567.911 58.6853C568.138 58.2193 568.464 57.8565 568.888 57.5968C569.313 57.337 569.826 57.2071 570.428 57.2071C570.89 57.2071 571.278 57.2813 571.591 57.4298C571.905 57.5782 572.158 57.7741 572.352 58.0173C572.55 58.2565 572.7 58.5183 572.803 58.8028C572.906 59.0873 572.977 59.3656 573.014 59.6377C573.051 59.9098 573.069 60.149 573.069 60.3551V64.0659H571.758ZM567.064 64.0659V57.3865H568.221V59.3161H568.375V64.0659H567.064ZM577.453 64.2515C576.769 64.2515 576.187 64.0989 575.709 63.7938C575.231 63.4887 574.864 63.0702 574.608 62.5383C574.357 62.0064 574.229 61.4024 574.225 60.7262C574.229 60.0376 574.361 59.4295 574.62 58.9017C574.88 58.3698 575.251 57.9534 575.734 57.6524C576.216 57.3514 576.795 57.2009 577.472 57.2009C578.201 57.2009 578.824 57.3824 579.339 57.7452C579.859 58.108 580.201 58.6049 580.366 59.2357L579.08 59.6068C578.952 59.2316 578.741 58.9409 578.449 58.7347C578.16 58.5245 577.828 58.4193 577.453 58.4193C577.028 58.4193 576.68 58.5203 576.408 58.7224C576.136 58.9203 575.934 59.1924 575.802 59.5387C575.67 59.8851 575.602 60.2809 575.598 60.7262C575.602 61.4148 575.758 61.9714 576.068 62.3961C576.381 62.8207 576.843 63.0331 577.453 63.0331C577.869 63.0331 578.205 62.9382 578.461 62.7486C578.721 62.5548 578.919 62.2786 579.055 61.9198L580.366 62.2291C580.147 62.8805 579.787 63.3815 579.284 63.7319C578.781 64.0783 578.17 64.2515 577.453 64.2515ZM581.568 64.0659V54.9745H582.861V64.0659H581.568ZM584.941 64.0659V62.6991H586.308V64.0659H584.941ZM592.286 64.0659V56.5825L590.61 57.6029V56.1619L592.286 55.16H593.603V64.0659H592.286ZM595.705 64.0597L595.711 62.9094L599.589 59.4336C599.902 59.1574 600.114 58.8935 600.226 58.642C600.341 58.3905 600.399 58.1389 600.399 57.8874C600.399 57.57 600.329 57.2855 600.189 57.034C600.048 56.7783 599.855 56.5763 599.607 56.4279C599.36 56.2794 599.075 56.2052 598.754 56.2052C598.424 56.2052 598.129 56.2836 597.869 56.4402C597.614 56.5928 597.414 56.7969 597.269 57.0525C597.125 57.3081 597.055 57.5844 597.059 57.8813H595.736C595.736 57.304 595.865 56.7989 596.125 56.366C596.389 55.929 596.75 55.5888 597.208 55.3455C597.665 55.0982 598.189 54.9745 598.778 54.9745C599.339 54.9745 599.842 55.1023 600.288 55.3579C600.733 55.6094 601.083 55.9558 601.339 56.3969C601.599 56.8381 601.729 57.3411 601.729 57.906C601.729 58.3142 601.675 58.6605 601.568 58.945C601.461 59.2295 601.3 59.4934 601.085 59.7367C600.871 59.9799 600.603 60.2438 600.281 60.5283L597.288 63.2001L597.146 62.829H601.729V64.0597H595.705ZM604.764 64.0659V56.5825L603.088 57.6029V56.1619L604.764 55.16H606.081V64.0659H604.764ZM608.158 64.0659V62.6991H609.524V64.0659H608.158ZM614.579 64.2515C613.973 64.2515 613.437 64.1195 612.971 63.8556C612.505 63.5876 612.138 63.2207 611.87 62.7548C611.606 62.2889 611.474 61.7529 611.474 61.1468V58.0792C611.474 57.4731 611.606 56.9371 611.87 56.4712C612.138 56.0052 612.505 55.6403 612.971 55.3765C613.437 55.1085 613.973 54.9745 614.579 54.9745C615.185 54.9745 615.721 55.1085 616.187 55.3765C616.653 55.6403 617.018 56.0052 617.282 56.4712C617.55 56.9371 617.684 57.4731 617.684 58.0792V61.1468C617.684 61.7529 617.55 62.2889 617.282 62.7548C617.018 63.2207 616.653 63.5876 616.187 63.8556C615.721 64.1195 615.185 64.2515 614.579 64.2515ZM614.579 63.0145C614.909 63.0145 615.208 62.9362 615.476 62.7795C615.748 62.6187 615.964 62.4043 616.125 62.1363C616.286 61.8642 616.366 61.5611 616.366 61.2272V57.9864C616.366 57.6565 616.286 57.3576 616.125 57.0896C615.964 56.8175 615.748 56.6031 615.476 56.4464C615.208 56.2856 614.909 56.2052 614.579 56.2052C614.249 56.2052 613.948 56.2856 613.676 56.4464C613.408 56.6031 613.193 56.8175 613.033 57.0896C612.872 57.3576 612.791 57.6565 612.791 57.9864V61.2272C612.791 61.5611 612.872 61.8642 613.033 62.1363C613.193 62.4043 613.408 62.6187 613.676 62.7795C613.948 62.9362 614.249 63.0145 614.579 63.0145ZM622.515 64.2515C621.909 64.2515 621.373 64.1195 620.907 63.8556C620.441 63.5876 620.074 63.2207 619.806 62.7548C619.542 62.2889 619.41 61.7529 619.41 61.1468V58.0792C619.41 57.4731 619.542 56.9371 619.806 56.4712C620.074 56.0052 620.441 55.6403 620.907 55.3765C621.373 55.1085 621.909 54.9745 622.515 54.9745C623.121 54.9745 623.657 55.1085 624.123 55.3765C624.589 55.6403 624.954 56.0052 625.218 56.4712C625.486 56.9371 625.62 57.4731 625.62 58.0792V61.1468C625.62 61.7529 625.486 62.2889 625.218 62.7548C624.954 63.2207 624.589 63.5876 624.123 63.8556C623.657 64.1195 623.121 64.2515 622.515 64.2515ZM622.515 63.0145C622.845 63.0145 623.144 62.9362 623.412 62.7795C623.684 62.6187 623.9 62.4043 624.061 62.1363C624.222 61.8642 624.302 61.5611 624.302 61.2272V57.9864C624.302 57.6565 624.222 57.3576 624.061 57.0896C623.9 56.8175 623.684 56.6031 623.412 56.4464C623.144 56.2856 622.845 56.2052 622.515 56.2052C622.185 56.2052 621.884 56.2856 621.612 56.4464C621.344 56.6031 621.13 56.8175 620.969 57.0896C620.808 57.3576 620.728 57.6565 620.728 57.9864V61.2272C620.728 61.5611 620.808 61.8642 620.969 62.1363C621.13 62.4043 621.344 62.6187 621.612 62.7795C621.884 62.9362 622.185 63.0145 622.515 63.0145ZM632.161 65.2967V63.8495H633.453V65.2967H632.161ZM632.161 55.3827V53.9293H633.453V55.3827H632.161ZM632.872 64.2515C632.253 64.2515 631.701 64.1401 631.214 63.9175C630.728 63.6948 630.328 63.3794 630.015 62.9712C629.705 62.5589 629.503 62.0724 629.408 61.5117L630.689 61.3076C630.812 61.8353 631.076 62.2559 631.48 62.5692C631.884 62.8785 632.369 63.0331 632.934 63.0331C633.494 63.0331 633.95 62.8991 634.3 62.6311C634.655 62.3631 634.832 62.0209 634.832 61.6044C634.832 61.3076 634.742 61.0664 634.56 60.8808C634.383 60.6953 634.092 60.5386 633.688 60.4108L631.598 59.7676C630.361 59.3841 629.742 58.642 629.742 57.5411C629.742 57.0216 629.866 56.5701 630.113 56.1867C630.365 55.8032 630.717 55.5063 631.171 55.2961C631.625 55.0858 632.154 54.9806 632.76 54.9806C633.342 54.9889 633.857 55.0961 634.307 55.3023C634.76 55.5084 635.135 55.8053 635.432 56.1928C635.733 56.5804 635.941 57.0463 636.057 57.5906L634.74 57.8256C634.682 57.5081 634.56 57.2277 634.375 56.9845C634.193 56.7412 633.962 56.5516 633.682 56.4155C633.406 56.2794 633.094 56.2093 632.748 56.2052C632.422 56.197 632.13 56.2485 631.87 56.3598C631.614 56.467 631.41 56.6196 631.258 56.8175C631.109 57.0113 631.035 57.2319 631.035 57.4793C631.035 57.7514 631.14 57.9823 631.35 58.1719C631.561 58.3616 631.893 58.5245 632.346 58.6605L633.985 59.1367C634.735 59.3594 635.278 59.6583 635.612 60.0335C635.946 60.4087 636.113 60.9076 636.113 61.5302C636.113 62.0745 635.977 62.5507 635.704 62.9589C635.436 63.3629 635.059 63.6804 634.573 63.9113C634.086 64.1381 633.519 64.2515 632.872 64.2515Z" fill="#666A84"/>
<rect x="514.826" y="0.842659" width="152.555" height="83.4929" stroke="#B8BAC6" stroke-width="1.03078"/>
<rect x="769.43" y="0.842659" width="184.509" height="83.4929" fill="#F2F7F8"/>
<path d="M848.11 35.8197V25.8418L845.875 27.2024V25.281L848.11 23.9451H849.866V35.8197H848.11ZM857.137 36.0671C856.329 36.0671 855.615 35.8912 854.993 35.5393C854.372 35.182 853.883 34.6927 853.525 34.0715C853.174 33.4503 852.998 32.7356 852.998 31.9275V27.8374C852.998 27.0292 853.174 26.3146 853.525 25.6933C853.883 25.0721 854.372 24.5856 854.993 24.2338C855.615 23.8764 856.329 23.6978 857.137 23.6978C857.945 23.6978 858.66 23.8764 859.281 24.2338C859.903 24.5856 860.389 25.0721 860.741 25.6933C861.098 26.3146 861.277 27.0292 861.277 27.8374V31.9275C861.277 32.7356 861.098 33.4503 860.741 34.0715C860.389 34.6927 859.903 35.182 859.281 35.5393C858.66 35.8912 857.945 36.0671 857.137 36.0671ZM857.137 34.4178C857.577 34.4178 857.976 34.3134 858.333 34.1045C858.696 33.8901 858.984 33.6042 859.199 33.2469C859.413 32.884 859.52 32.48 859.52 32.0347V27.7137C859.52 27.2739 859.413 26.8753 859.199 26.518C858.984 26.1551 858.696 25.8693 858.333 25.6604C857.976 25.446 857.577 25.3388 857.137 25.3388C856.698 25.3388 856.296 25.446 855.933 25.6604C855.576 25.8693 855.29 26.1551 855.076 26.518C854.861 26.8753 854.754 27.2739 854.754 27.7137V32.0347C854.754 32.48 854.861 32.884 855.076 33.2469C855.29 33.6042 855.576 33.8901 855.933 34.1045C856.296 34.3134 856.698 34.4178 857.137 34.4178ZM867.719 36.0671C866.911 36.0671 866.196 35.8912 865.575 35.5393C864.954 35.182 864.464 34.6927 864.107 34.0715C863.755 33.4503 863.579 32.7356 863.579 31.9275V27.8374C863.579 27.0292 863.755 26.3146 864.107 25.6933C864.464 25.0721 864.954 24.5856 865.575 24.2338C866.196 23.8764 866.911 23.6978 867.719 23.6978C868.527 23.6978 869.242 23.8764 869.863 24.2338C870.484 24.5856 870.971 25.0721 871.323 25.6933C871.68 26.3146 871.859 27.0292 871.859 27.8374V31.9275C871.859 32.7356 871.68 33.4503 871.323 34.0715C870.971 34.6927 870.484 35.182 869.863 35.5393C869.242 35.8912 868.527 36.0671 867.719 36.0671ZM867.719 34.4178C868.159 34.4178 868.557 34.3134 868.915 34.1045C869.277 33.8901 869.566 33.6042 869.78 33.2469C869.995 32.884 870.102 32.48 870.102 32.0347V27.7137C870.102 27.2739 869.995 26.8753 869.78 26.518C869.566 26.1551 869.277 25.8693 868.915 25.6604C868.557 25.446 868.159 25.3388 867.719 25.3388C867.279 25.3388 866.878 25.446 866.515 25.6604C866.158 25.8693 865.872 26.1551 865.657 26.518C865.443 26.8753 865.336 27.2739 865.336 27.7137V32.0347C865.336 32.48 865.443 32.884 865.657 33.2469C865.872 33.6042 866.158 33.8901 866.515 34.1045C866.878 34.3134 867.279 34.4178 867.719 34.4178ZM878.3 36.0671C877.492 36.0671 876.778 35.8912 876.156 35.5393C875.535 35.182 875.046 34.6927 874.689 34.0715C874.337 33.4503 874.161 32.7356 874.161 31.9275V27.8374C874.161 27.0292 874.337 26.3146 874.689 25.6933C875.046 25.0721 875.535 24.5856 876.156 24.2338C876.778 23.8764 877.492 23.6978 878.3 23.6978C879.109 23.6978 879.823 23.8764 880.444 24.2338C881.066 24.5856 881.552 25.0721 881.904 25.6933C882.261 26.3146 882.44 27.0292 882.44 27.8374V31.9275C882.44 32.7356 882.261 33.4503 881.904 34.0715C881.552 34.6927 881.066 35.182 880.444 35.5393C879.823 35.8912 879.109 36.0671 878.3 36.0671ZM878.3 34.4178C878.74 34.4178 879.139 34.3134 879.496 34.1045C879.859 33.8901 880.148 33.6042 880.362 33.2469C880.576 32.884 880.684 32.48 880.684 32.0347V27.7137C880.684 27.2739 880.576 26.8753 880.362 26.518C880.148 26.1551 879.859 25.8693 879.496 25.6604C879.139 25.446 878.74 25.3388 878.3 25.3388C877.861 25.3388 877.459 25.446 877.097 25.6604C876.739 25.8693 876.453 26.1551 876.239 26.518C876.025 26.8753 875.917 27.2739 875.917 27.7137V32.0347C875.917 32.48 876.025 32.884 876.239 33.2469C876.453 33.6042 876.739 33.8901 877.097 34.1045C877.459 34.3134 877.861 34.4178 878.3 34.4178ZM885.039 35.8197V33.9973H886.862V35.8197H885.039ZM893.601 36.0671C892.793 36.0671 892.078 35.8912 891.457 35.5393C890.836 35.182 890.347 34.6927 889.989 34.0715C889.637 33.4503 889.461 32.7356 889.461 31.9275V27.8374C889.461 27.0292 889.637 26.3146 889.989 25.6933C890.347 25.0721 890.836 24.5856 891.457 24.2338C892.078 23.8764 892.793 23.6978 893.601 23.6978C894.409 23.6978 895.124 23.8764 895.745 24.2338C896.366 24.5856 896.853 25.0721 897.205 25.6933C897.562 26.3146 897.741 27.0292 897.741 27.8374V31.9275C897.741 32.7356 897.562 33.4503 897.205 34.0715C896.853 34.6927 896.366 35.182 895.745 35.5393C895.124 35.8912 894.409 36.0671 893.601 36.0671ZM893.601 34.4178C894.041 34.4178 894.439 34.3134 894.797 34.1045C895.16 33.8901 895.448 33.6042 895.663 33.2469C895.877 32.884 895.984 32.48 895.984 32.0347V27.7137C895.984 27.2739 895.877 26.8753 895.663 26.518C895.448 26.1551 895.16 25.8693 894.797 25.6604C894.439 25.446 894.041 25.3388 893.601 25.3388C893.161 25.3388 892.76 25.446 892.397 25.6604C892.04 25.8693 891.754 26.1551 891.54 26.518C891.325 26.8753 891.218 27.2739 891.218 27.7137V32.0347C891.218 32.48 891.325 32.884 891.54 33.2469C891.754 33.6042 892.04 33.8901 892.397 34.1045C892.76 34.3134 893.161 34.4178 893.601 34.4178ZM904.183 36.0671C903.375 36.0671 902.66 35.8912 902.039 35.5393C901.417 35.182 900.928 34.6927 900.571 34.0715C900.219 33.4503 900.043 32.7356 900.043 31.9275V27.8374C900.043 27.0292 900.219 26.3146 900.571 25.6933C900.928 25.0721 901.417 24.5856 902.039 24.2338C902.66 23.8764 903.375 23.6978 904.183 23.6978C904.991 23.6978 905.705 23.8764 906.327 24.2338C906.948 24.5856 907.434 25.0721 907.786 25.6933C908.144 26.3146 908.322 27.0292 908.322 27.8374V31.9275C908.322 32.7356 908.144 33.4503 907.786 34.0715C907.434 34.6927 906.948 35.182 906.327 35.5393C905.705 35.8912 904.991 36.0671 904.183 36.0671ZM904.183 34.4178C904.622 34.4178 905.021 34.3134 905.378 34.1045C905.741 33.8901 906.03 33.6042 906.244 33.2469C906.459 32.884 906.566 32.48 906.566 32.0347V27.7137C906.566 27.2739 906.459 26.8753 906.244 26.518C906.03 26.1551 905.741 25.8693 905.378 25.6604C905.021 25.446 904.622 25.3388 904.183 25.3388C903.743 25.3388 903.342 25.446 902.979 25.6604C902.621 25.8693 902.335 26.1551 902.121 26.518C901.907 26.8753 901.799 27.2739 901.799 27.7137V32.0347C901.799 32.48 901.907 32.884 902.121 33.2469C902.335 33.6042 902.621 33.8901 902.979 34.1045C903.342 34.3134 903.743 34.4178 904.183 34.4178Z" fill="#1A2147"/>
<path d="M926.049 36.0671C924.878 36.0671 923.875 35.8032 923.039 35.2755C922.203 34.7422 921.56 34.011 921.109 33.082C920.659 32.1474 920.43 31.0809 920.425 29.8824C920.452 28.64 920.689 27.557 921.134 26.6334C921.585 25.7043 922.225 24.9842 923.055 24.4729C923.886 23.9561 924.883 23.6978 926.049 23.6978C926.593 23.6978 927.118 23.7637 927.624 23.8957C928.135 24.0276 928.608 24.2283 929.042 24.4976L928.127 25.9325C927.824 25.7346 927.495 25.5861 927.137 25.4872C926.78 25.3827 926.417 25.3305 926.049 25.3305C925.202 25.325 924.499 25.5147 923.938 25.8995C923.383 26.2843 922.965 26.8203 922.684 27.5075C922.409 28.1947 922.267 28.9863 922.256 29.8824C922.267 30.795 922.412 31.5949 922.693 32.2821C922.973 32.9638 923.394 33.4943 923.954 33.8736C924.515 34.2474 925.213 34.4316 926.049 34.4261C926.818 34.4426 927.517 34.2474 928.143 33.8406L929.05 35.259C928.611 35.5283 928.135 35.729 927.624 35.8609C927.113 35.9984 926.588 36.0671 926.049 36.0671ZM919.13 31.944V30.5586H926.824V31.944H919.13ZM919.13 29.231V27.8456H926.824V29.231H919.13Z" fill="#1A2147"/>
<path d="M835.155 64.0659L832.261 55.16H833.603L836.071 62.761L838.569 55.16H839.911L837.017 64.0659H835.155ZM839.356 64.0659L842.25 55.16H844.112L847.006 64.0659H845.664L842.999 55.9393H843.333L840.698 64.0659H839.356ZM840.859 62.0559V60.8437H845.51V62.0559H840.859ZM849.599 64.0659V56.3784H846.637V55.16H853.855V56.3784H850.892V64.0659H849.599ZM857.07 56.2918V55.0363H858.362V56.2918H857.07ZM857.07 64.0659V57.3865H858.362V64.0659H857.07ZM864.908 64.0659V60.7819C864.908 60.5221 864.885 60.2562 864.84 59.984C864.798 59.7078 864.716 59.4522 864.592 59.2171C864.473 58.9821 864.301 58.7925 864.079 58.6482C863.86 58.5038 863.574 58.4317 863.219 58.4317C862.988 58.4317 862.77 58.4709 862.564 58.5492C862.357 58.6234 862.176 58.745 862.019 58.9141C861.867 59.0831 861.745 59.3058 861.654 59.582C861.568 59.8583 861.525 60.1943 861.525 60.5901L860.721 60.2871C860.721 59.681 860.834 59.147 861.061 58.6853C861.287 58.2193 861.613 57.8565 862.038 57.5968C862.463 57.337 862.976 57.2071 863.578 57.2071C864.04 57.2071 864.427 57.2813 864.741 57.4298C865.054 57.5782 865.308 57.7741 865.501 58.0173C865.699 58.2565 865.85 58.5183 865.953 58.8028C866.056 59.0873 866.126 59.3656 866.163 59.6377C866.2 59.9098 866.219 60.149 866.219 60.3551V64.0659H864.908ZM860.213 64.0659V57.3865H861.37V59.3161H861.525V64.0659H860.213ZM870.602 64.2515C869.918 64.2515 869.337 64.0989 868.858 63.7938C868.38 63.4887 868.013 63.0702 867.757 62.5383C867.506 62.0064 867.378 61.4024 867.374 60.7262C867.378 60.0376 867.51 59.4295 867.77 58.9017C868.03 58.3698 868.401 57.9534 868.883 57.6524C869.365 57.3514 869.945 57.2009 870.621 57.2009C871.351 57.2009 871.973 57.3824 872.489 57.7452C873.008 58.108 873.35 58.6049 873.515 59.2357L872.229 59.6068C872.101 59.2316 871.891 58.9409 871.598 58.7347C871.31 58.5245 870.978 58.4193 870.602 58.4193C870.178 58.4193 869.829 58.5203 869.557 58.7224C869.285 58.9203 869.083 59.1924 868.951 59.5387C868.819 59.8851 868.751 60.2809 868.747 60.7262C868.751 61.4148 868.908 61.9714 869.217 62.3961C869.53 62.8207 869.992 63.0331 870.602 63.0331C871.019 63.0331 871.355 62.9382 871.61 62.7486C871.87 62.5548 872.068 62.2786 872.204 61.9198L873.515 62.2291C873.297 62.8805 872.936 63.3815 872.433 63.7319C871.93 64.0783 871.32 64.2515 870.602 64.2515ZM874.718 64.0659V54.9745H876.01V64.0659H874.718ZM878.09 64.0659V62.6991H879.457V64.0659H878.09ZM885.436 64.0659V56.5825L883.759 57.6029V56.1619L885.436 55.16H886.753V64.0659H885.436ZM888.854 64.0597L888.86 62.9094L892.738 59.4336C893.051 59.1574 893.264 58.8935 893.375 58.642C893.491 58.3905 893.548 58.1389 893.548 57.8874C893.548 57.57 893.478 57.2855 893.338 57.034C893.198 56.7783 893.004 56.5763 892.757 56.4279C892.509 56.2794 892.225 56.2052 891.903 56.2052C891.573 56.2052 891.278 56.2836 891.019 56.4402C890.763 56.5928 890.563 56.7969 890.419 57.0525C890.275 57.3081 890.204 57.5844 890.209 57.8813H888.885C888.885 57.304 889.015 56.7989 889.275 56.366C889.539 55.929 889.899 55.5888 890.357 55.3455C890.815 55.0982 891.338 54.9745 891.928 54.9745C892.489 54.9745 892.992 55.1023 893.437 55.3579C893.882 55.6094 894.233 55.9558 894.488 56.3969C894.748 56.8381 894.878 57.3411 894.878 57.906C894.878 58.3142 894.824 58.6605 894.717 58.945C894.61 59.2295 894.449 59.4934 894.235 59.7367C894.02 59.9799 893.752 60.2438 893.431 60.5283L890.437 63.2001L890.295 62.829H894.878V64.0597H888.854ZM897.914 64.0659V56.5825L896.238 57.6029V56.1619L897.914 55.16H899.231V64.0659H897.914ZM901.307 64.0659V62.6991H902.674V64.0659H901.307ZM907.728 64.2515C907.122 64.2515 906.586 64.1195 906.12 63.8556C905.654 63.5876 905.287 63.2207 905.019 62.7548C904.755 62.2889 904.624 61.7529 904.624 61.1468V58.0792C904.624 57.4731 904.755 56.9371 905.019 56.4712C905.287 56.0052 905.654 55.6403 906.12 55.3765C906.586 55.1085 907.122 54.9745 907.728 54.9745C908.334 54.9745 908.87 55.1085 909.336 55.3765C909.802 55.6403 910.167 56.0052 910.431 56.4712C910.699 56.9371 910.833 57.4731 910.833 58.0792V61.1468C910.833 61.7529 910.699 62.2889 910.431 62.7548C910.167 63.2207 909.802 63.5876 909.336 63.8556C908.87 64.1195 908.334 64.2515 907.728 64.2515ZM907.728 63.0145C908.058 63.0145 908.357 62.9362 908.625 62.7795C908.897 62.6187 909.114 62.4043 909.274 62.1363C909.435 61.8642 909.516 61.5611 909.516 61.2272V57.9864C909.516 57.6565 909.435 57.3576 909.274 57.0896C909.114 56.8175 908.897 56.6031 908.625 56.4464C908.357 56.2856 908.058 56.2052 907.728 56.2052C907.398 56.2052 907.097 56.2856 906.825 56.4464C906.557 56.6031 906.343 56.8175 906.182 57.0896C906.021 57.3576 905.941 57.6565 905.941 57.9864V61.2272C905.941 61.5611 906.021 61.8642 906.182 62.1363C906.343 62.4043 906.557 62.6187 906.825 62.7795C907.097 62.9362 907.398 63.0145 907.728 63.0145ZM915.664 64.2515C915.058 64.2515 914.522 64.1195 914.056 63.8556C913.591 63.5876 913.224 63.2207 912.956 62.7548C912.692 62.2889 912.56 61.7529 912.56 61.1468V58.0792C912.56 57.4731 912.692 56.9371 912.956 56.4712C913.224 56.0052 913.591 55.6403 914.056 55.3765C914.522 55.1085 915.058 54.9745 915.664 54.9745C916.271 54.9745 916.807 55.1085 917.272 55.3765C917.738 55.6403 918.103 56.0052 918.367 56.4712C918.635 56.9371 918.769 57.4731 918.769 58.0792V61.1468C918.769 61.7529 918.635 62.2889 918.367 62.7548C918.103 63.2207 917.738 63.5876 917.272 63.8556C916.807 64.1195 916.271 64.2515 915.664 64.2515ZM915.664 63.0145C915.994 63.0145 916.293 62.9362 916.561 62.7795C916.833 62.6187 917.05 62.4043 917.211 62.1363C917.371 61.8642 917.452 61.5611 917.452 61.2272V57.9864C917.452 57.6565 917.371 57.3576 917.211 57.0896C917.05 56.8175 916.833 56.6031 916.561 56.4464C916.293 56.2856 915.994 56.2052 915.664 56.2052C915.335 56.2052 915.034 56.2856 914.761 56.4464C914.493 56.6031 914.279 56.8175 914.118 57.0896C913.957 57.3576 913.877 57.6565 913.877 57.9864V61.2272C913.877 61.5611 913.957 61.8642 914.118 62.1363C914.279 62.4043 914.493 62.6187 914.761 62.7795C915.034 62.9362 915.335 63.0145 915.664 63.0145ZM925.31 65.2967V63.8495H926.603V65.2967H925.31ZM925.31 55.3827V53.9293H926.603V55.3827H925.31ZM926.021 64.2515C925.403 64.2515 924.85 64.1401 924.364 63.9175C923.877 63.6948 923.477 63.3794 923.164 62.9712C922.855 62.5589 922.653 62.0724 922.558 61.5117L923.838 61.3076C923.962 61.8353 924.226 62.2559 924.63 62.5692C925.034 62.8785 925.518 63.0331 926.083 63.0331C926.644 63.0331 927.099 62.8991 927.45 62.6311C927.804 62.3631 927.982 62.0209 927.982 61.6044C927.982 61.3076 927.891 61.0664 927.71 60.8808C927.532 60.6953 927.242 60.5386 926.838 60.4108L924.747 59.7676C923.51 59.3841 922.892 58.642 922.892 57.5411C922.892 57.0216 923.015 56.5701 923.263 56.1867C923.514 55.8032 923.867 55.5063 924.32 55.2961C924.774 55.0858 925.304 54.9806 925.91 54.9806C926.491 54.9889 927.007 55.0961 927.456 55.3023C927.91 55.5084 928.285 55.8053 928.582 56.1928C928.883 56.5804 929.091 57.0463 929.206 57.5906L927.889 57.8256C927.831 57.5081 927.71 57.2277 927.524 56.9845C927.343 56.7412 927.112 56.5516 926.831 56.4155C926.555 56.2794 926.244 56.2093 925.898 56.2052C925.572 56.197 925.279 56.2485 925.019 56.3598C924.764 56.467 924.56 56.6196 924.407 56.8175C924.259 57.0113 924.184 57.2319 924.184 57.4793C924.184 57.7514 924.29 57.9823 924.5 58.1719C924.71 58.3616 925.042 58.5245 925.496 58.6605L927.134 59.1367C927.885 59.3594 928.427 59.6583 928.761 60.0335C929.095 60.4087 929.262 60.9076 929.262 61.5302C929.262 62.0745 929.126 62.5507 928.854 62.9589C928.586 63.3629 928.209 63.6804 927.722 63.9113C927.235 64.1381 926.669 64.2515 926.021 64.2515Z" fill="#666A84"/>
<rect x="769.43" y="0.842659" width="184.509" height="83.4929" stroke="#B8BAC6" stroke-width="1.03078"/>
<rect x="667.382" y="0.842659" width="102.047" height="83.4929" fill="white"/>
<path d="M694.829 35.8197V25.8418L692.595 27.2024V25.281L694.829 23.9451H696.586V35.8197H694.829ZM703.857 36.0671C703.049 36.0671 702.334 35.8912 701.713 35.5393C701.092 35.182 700.602 34.6927 700.245 34.0715C699.893 33.4503 699.717 32.7356 699.717 31.9275V27.8374C699.717 27.0292 699.893 26.3146 700.245 25.6933C700.602 25.0721 701.092 24.5856 701.713 24.2338C702.334 23.8764 703.049 23.6978 703.857 23.6978C704.665 23.6978 705.38 23.8764 706.001 24.2338C706.622 24.5856 707.109 25.0721 707.46 25.6933C707.818 26.3146 707.996 27.0292 707.996 27.8374V31.9275C707.996 32.7356 707.818 33.4503 707.46 34.0715C707.109 34.6927 706.622 35.182 706.001 35.5393C705.38 35.8912 704.665 36.0671 703.857 36.0671ZM703.857 34.4178C704.297 34.4178 704.695 34.3134 705.052 34.1045C705.415 33.8901 705.704 33.6042 705.918 33.2469C706.133 32.884 706.24 32.48 706.24 32.0347V27.7137C706.24 27.2739 706.133 26.8753 705.918 26.518C705.704 26.1551 705.415 25.8693 705.052 25.6604C704.695 25.446 704.297 25.3388 703.857 25.3388C703.417 25.3388 703.016 25.446 702.653 25.6604C702.296 25.8693 702.01 26.1551 701.795 26.518C701.581 26.8753 701.474 27.2739 701.474 27.7137V32.0347C701.474 32.48 701.581 32.884 701.795 33.2469C702.01 33.6042 702.296 33.8901 702.653 34.1045C703.016 34.3134 703.417 34.4178 703.857 34.4178Z" fill="#1A2147"/>
<rect x="667.382" y="0.842659" width="102.047" height="83.4929" stroke="#B8BAC6" stroke-width="1.03078"/>
<rect x="1.50074" y="84.3341" width="411.28" height="83.4929" fill="white"/>
<path d="M29.1381 119.55C28.2695 119.55 27.5383 119.319 26.9446 118.858C26.3563 118.396 25.9495 117.775 25.7241 116.994L27.4311 116.59C27.5081 116.958 27.7032 117.274 28.0166 117.538C28.3354 117.797 28.69 117.926 29.0803 117.926C29.3387 117.926 29.6081 117.86 29.8885 117.728C30.1688 117.596 30.3777 117.382 30.5152 117.085C30.6086 116.887 30.6636 116.661 30.6801 116.408C30.6966 116.15 30.7048 115.85 30.7048 115.51V107.437H32.453V115.51C32.453 115.861 32.4503 116.175 32.4448 116.45C32.4448 116.725 32.4173 116.983 32.3623 117.225C32.3128 117.467 32.2139 117.717 32.0655 117.975C31.7521 118.52 31.3398 118.918 30.8285 119.171C30.3173 119.424 29.7538 119.55 29.1381 119.55ZM38.799 119.559C37.9084 119.559 37.136 119.358 36.4818 118.957C35.8276 118.555 35.3219 118.003 34.9645 117.299C34.6127 116.59 34.4368 115.774 34.4368 114.85C34.4368 113.921 34.6182 113.105 34.981 112.401C35.3438 111.692 35.8524 111.142 36.5066 110.752C37.1608 110.356 37.9249 110.158 38.799 110.158C39.6896 110.158 40.462 110.359 41.1162 110.76C41.7704 111.161 42.2762 111.714 42.6335 112.417C42.9908 113.121 43.1695 113.932 43.1695 114.85C43.1695 115.779 42.9881 116.598 42.6253 117.307C42.2679 118.011 41.7622 118.564 41.108 118.965C40.4538 119.361 39.6841 119.559 38.799 119.559ZM38.799 117.934C39.6511 117.934 40.2861 117.648 40.7039 117.076C41.1272 116.499 41.3388 115.757 41.3388 114.85C41.3388 113.921 41.1244 113.179 40.6956 112.623C40.2723 112.063 39.6401 111.782 38.799 111.782C38.2218 111.782 37.7462 111.914 37.3724 112.178C36.9986 112.437 36.721 112.797 36.5395 113.258C36.3581 113.715 36.2674 114.245 36.2674 114.85C36.2674 115.785 36.4818 116.532 36.9106 117.093C37.3394 117.654 37.9689 117.934 38.799 117.934ZM49.1624 119.559C48.3103 119.559 47.5957 119.352 47.0184 118.94C46.4412 118.522 46.0041 117.959 45.7073 117.25C45.4104 116.54 45.262 115.741 45.262 114.85C45.262 113.959 45.4077 113.159 45.699 112.45C45.9959 111.741 46.4302 111.183 47.0019 110.776C47.5792 110.364 48.2883 110.158 49.1295 110.158C49.9651 110.158 50.6852 110.364 51.29 110.776C51.9002 111.183 52.3702 111.741 52.7001 112.45C53.0299 113.154 53.1948 113.954 53.1948 114.85C53.1948 115.741 53.0299 116.543 52.7001 117.258C52.3757 117.967 51.9112 118.528 51.3065 118.94C50.7072 119.352 49.9926 119.559 49.1624 119.559ZM44.9734 119.311V107.437H46.7051V112.904H46.5072V119.311H44.9734ZM48.9233 118C49.4731 118 49.9266 117.86 50.2839 117.579C50.6468 117.299 50.9161 116.923 51.0921 116.45C51.2735 115.971 51.3642 115.438 51.3642 114.85C51.3642 114.267 51.2735 113.739 51.0921 113.267C50.9161 112.794 50.644 112.417 50.2757 112.137C49.9074 111.857 49.4373 111.716 48.8656 111.716C48.3268 111.716 47.8815 111.848 47.5297 112.112C47.1834 112.376 46.925 112.744 46.7546 113.217C46.5896 113.69 46.5072 114.234 46.5072 114.85C46.5072 115.466 46.5896 116.01 46.7546 116.483C46.9195 116.955 47.1806 117.327 47.5379 117.596C47.8953 117.865 48.3571 118 48.9233 118ZM61.8549 119.559C61.0248 119.559 60.3074 119.352 59.7027 118.94C59.1034 118.528 58.6389 117.967 58.309 117.258C57.9847 116.543 57.8225 115.741 57.8225 114.85C57.8225 113.954 57.9874 113.154 58.3173 112.45C58.6471 111.741 59.1144 111.183 59.7191 110.776C60.3294 110.364 61.0523 110.158 61.8879 110.158C62.729 110.158 63.4354 110.364 64.0072 110.776C64.5844 111.183 65.0187 111.741 65.3101 112.45C65.6069 113.159 65.7554 113.959 65.7554 114.85C65.7554 115.741 65.6069 116.54 65.3101 117.25C65.0132 117.959 64.5762 118.522 63.9989 118.94C63.4217 119.352 62.707 119.559 61.8549 119.559ZM62.0941 118C62.6603 118 63.1221 117.865 63.4794 117.596C63.8368 117.327 64.0979 116.955 64.2628 116.483C64.4277 116.01 64.5102 115.466 64.5102 114.85C64.5102 114.234 64.425 113.69 64.2546 113.217C64.0896 112.744 63.8313 112.376 63.4794 112.112C63.1331 111.848 62.6905 111.716 62.1518 111.716C61.58 111.716 61.11 111.857 60.7417 112.137C60.3733 112.417 60.0985 112.794 59.9171 113.267C59.7411 113.739 59.6532 114.267 59.6532 114.85C59.6532 115.438 59.7411 115.971 59.9171 116.45C60.0985 116.923 60.3679 117.299 60.7252 117.579C61.088 117.86 61.5443 118 62.0941 118ZM64.5102 119.311V112.904H64.3123V107.437H66.044V119.311H64.5102ZM72.3012 119.559C71.4161 119.559 70.6382 119.366 69.9675 118.981C69.3023 118.591 68.7828 118.049 68.409 117.357C68.0407 116.659 67.8565 115.85 67.8565 114.932C67.8565 113.959 68.0379 113.115 68.4007 112.401C68.7691 111.686 69.2803 111.134 69.9345 110.743C70.5887 110.353 71.3501 110.158 72.2187 110.158C73.1258 110.158 73.8982 110.37 74.5359 110.793C75.1736 111.211 75.6492 111.807 75.9625 112.582C76.2814 113.357 76.4078 114.278 76.3418 115.345H74.6184V114.718C74.6074 113.684 74.4095 112.92 74.0247 112.426C73.6453 111.931 73.0654 111.683 72.2847 111.683C71.4216 111.683 70.7729 111.956 70.3386 112.5C69.9043 113.044 69.6872 113.83 69.6872 114.858C69.6872 115.837 69.9043 116.595 70.3386 117.134C70.7729 117.667 71.3996 117.934 72.2187 117.934C72.7575 117.934 73.222 117.813 73.6123 117.571C74.0082 117.324 74.316 116.972 74.5359 116.516L76.2264 117.052C75.8801 117.849 75.3551 118.467 74.6514 118.907C73.9477 119.341 73.1643 119.559 72.3012 119.559ZM69.1264 115.345V114.001H75.4842V115.345H69.1264ZM81.5977 119.55C80.5146 119.55 79.6323 119.311 78.9506 118.833C78.2689 118.355 77.8511 117.681 77.6972 116.813L79.4619 116.54C79.5718 117.002 79.8247 117.368 80.2205 117.637C80.6219 117.901 81.1194 118.033 81.7131 118.033C82.2519 118.033 82.6724 117.923 82.9748 117.703C83.2826 117.483 83.4366 117.181 83.4366 116.796C83.4366 116.571 83.3816 116.389 83.2716 116.252C83.1672 116.109 82.9445 115.974 82.6037 115.848C82.2628 115.721 81.7433 115.565 81.0452 115.378C80.281 115.18 79.6735 114.968 79.2227 114.743C78.7774 114.512 78.4586 114.245 78.2662 113.943C78.0793 113.635 77.9858 113.264 77.9858 112.83C77.9858 112.291 78.1287 111.821 78.4146 111.42C78.7005 111.018 79.1018 110.708 79.6186 110.488C80.1408 110.268 80.751 110.158 81.4492 110.158C82.1309 110.158 82.7384 110.265 83.2716 110.479C83.8049 110.694 84.2364 110.999 84.5663 111.395C84.8961 111.785 85.094 112.244 85.16 112.772L83.3953 113.094C83.3349 112.665 83.1342 112.327 82.7934 112.079C82.4525 111.832 82.01 111.697 81.4657 111.675C80.9435 111.653 80.5201 111.741 80.1958 111.939C79.8714 112.131 79.7093 112.398 79.7093 112.739C79.7093 112.937 79.7697 113.105 79.8907 113.242C80.0171 113.379 80.259 113.511 80.6164 113.638C80.9737 113.764 81.5014 113.915 82.1996 114.091C82.9473 114.284 83.541 114.498 83.9808 114.735C84.4206 114.965 84.734 115.243 84.9209 115.567C85.1133 115.886 85.2095 116.274 85.2095 116.73C85.2095 117.61 84.8879 118.3 84.2447 118.8C83.607 119.3 82.7246 119.55 81.5977 119.55ZM90.8439 119.559C89.9313 119.559 89.1561 119.355 88.5184 118.948C87.8807 118.542 87.3914 117.984 87.0506 117.274C86.7152 116.565 86.5448 115.76 86.5393 114.858C86.5448 113.94 86.7207 113.129 87.0671 112.426C87.4134 111.716 87.9082 111.161 88.5514 110.76C89.1946 110.359 89.967 110.158 90.8686 110.158C91.8416 110.158 92.6718 110.4 93.3589 110.884C94.0516 111.367 94.5079 112.03 94.7278 112.871L93.0126 113.366C92.8422 112.865 92.5618 112.478 92.1715 112.203C91.7867 111.923 91.3441 111.782 90.8439 111.782C90.2776 111.782 89.8131 111.917 89.4502 112.186C89.0874 112.45 88.818 112.813 88.6421 113.275C88.4662 113.737 88.3755 114.264 88.37 114.858C88.3755 115.776 88.5844 116.518 88.9967 117.085C89.4145 117.651 90.0302 117.934 90.8439 117.934C91.3991 117.934 91.8471 117.808 92.188 117.555C92.5343 117.296 92.7982 116.928 92.9796 116.45L94.7278 116.862C94.4365 117.731 93.9554 118.399 93.2847 118.866C92.614 119.328 91.8004 119.559 90.8439 119.559ZM96.4077 119.311V110.405H97.9415V112.566L97.7271 112.285C97.8371 112 97.98 111.738 98.1559 111.502C98.3318 111.26 98.5353 111.062 98.7661 110.908C98.9915 110.743 99.2417 110.617 99.5166 110.529C99.7969 110.435 100.083 110.381 100.374 110.364C100.666 110.342 100.946 110.356 101.215 110.405V112.022C100.924 111.945 100.6 111.923 100.242 111.956C99.8904 111.989 99.566 112.101 99.2692 112.294C98.9888 112.475 98.7661 112.695 98.6012 112.953C98.4418 113.212 98.3263 113.5 98.2549 113.819C98.1834 114.133 98.1477 114.465 98.1477 114.817V119.311H96.4077ZM102.951 108.946V107.272H104.674V108.946H102.951ZM102.951 119.311V110.405H104.674V119.311H102.951ZM111.331 119.559C110.479 119.559 109.764 119.352 109.187 118.94C108.61 118.522 108.173 117.959 107.876 117.25C107.579 116.54 107.431 115.741 107.431 114.85C107.431 113.959 107.576 113.159 107.868 112.45C108.165 111.741 108.599 111.183 109.171 110.776C109.748 110.364 110.457 110.158 111.298 110.158C112.134 110.158 112.854 110.364 113.459 110.776C114.069 111.183 114.539 111.741 114.869 112.45C115.199 113.154 115.364 113.954 115.364 114.85C115.364 115.741 115.199 116.543 114.869 117.258C114.544 117.967 114.08 118.528 113.475 118.94C112.876 119.352 112.161 119.559 111.331 119.559ZM107.142 123.269V110.405H108.676V116.813H108.874V123.269H107.142ZM111.092 118C111.642 118 112.095 117.86 112.453 117.579C112.816 117.299 113.085 116.923 113.261 116.45C113.442 115.971 113.533 115.438 113.533 114.85C113.533 114.267 113.442 113.739 113.261 113.267C113.085 112.794 112.813 112.417 112.444 112.137C112.076 111.857 111.606 111.716 111.034 111.716C110.496 111.716 110.05 111.848 109.698 112.112C109.352 112.376 109.094 112.744 108.923 113.217C108.758 113.69 108.676 114.234 108.676 114.85C108.676 115.466 108.758 116.01 108.923 116.483C109.088 116.955 109.349 117.327 109.707 117.596C110.064 117.865 110.526 118 111.092 118ZM122.28 119.311C121.72 119.421 121.17 119.468 120.631 119.451C120.092 119.435 119.611 119.33 119.188 119.138C118.765 118.946 118.446 118.643 118.232 118.231C118.039 117.863 117.935 117.489 117.918 117.109C117.907 116.725 117.902 116.29 117.902 115.807V107.931H119.633V115.724C119.633 116.081 119.636 116.392 119.642 116.656C119.653 116.92 119.71 117.142 119.815 117.324C120.013 117.665 120.326 117.86 120.755 117.909C121.189 117.953 121.698 117.934 122.28 117.852V119.311ZM116.195 111.791V110.405H122.28V111.791H116.195ZM124.323 108.946V107.272H126.047V108.946H124.323ZM124.323 119.311V110.405H126.047V119.311H124.323ZM132.39 119.559C131.5 119.559 130.727 119.358 130.073 118.957C129.419 118.555 128.913 118.003 128.556 117.299C128.204 116.59 128.028 115.774 128.028 114.85C128.028 113.921 128.21 113.105 128.572 112.401C128.935 111.692 129.444 111.142 130.098 110.752C130.752 110.356 131.516 110.158 132.39 110.158C133.281 110.158 134.053 110.359 134.708 110.76C135.362 111.161 135.868 111.714 136.225 112.417C136.582 113.121 136.761 113.932 136.761 114.85C136.761 115.779 136.579 116.598 136.217 117.307C135.859 118.011 135.353 118.564 134.699 118.965C134.045 119.361 133.275 119.559 132.39 119.559ZM132.39 117.934C133.242 117.934 133.877 117.648 134.295 117.076C134.719 116.499 134.93 115.757 134.93 114.85C134.93 113.921 134.716 113.179 134.287 112.623C133.864 112.063 133.231 111.782 132.39 111.782C131.813 111.782 131.338 111.914 130.964 112.178C130.59 112.437 130.312 112.797 130.131 113.258C129.949 113.715 129.859 114.245 129.859 114.85C129.859 115.785 130.073 116.532 130.502 117.093C130.931 117.654 131.56 117.934 132.39 117.934ZM144.824 119.311V114.932C144.824 114.586 144.793 114.231 144.733 113.869C144.678 113.5 144.568 113.159 144.403 112.846C144.244 112.533 144.015 112.28 143.719 112.087C143.427 111.895 143.045 111.799 142.572 111.799C142.265 111.799 141.973 111.851 141.698 111.956C141.423 112.054 141.182 112.217 140.973 112.442C140.769 112.667 140.607 112.964 140.486 113.333C140.371 113.701 140.313 114.149 140.313 114.677L139.241 114.273C139.241 113.465 139.392 112.753 139.694 112.137C139.997 111.516 140.431 111.032 140.997 110.686C141.564 110.339 142.248 110.166 143.051 110.166C143.666 110.166 144.183 110.265 144.601 110.463C145.019 110.661 145.357 110.922 145.615 111.246C145.879 111.565 146.08 111.914 146.217 112.294C146.355 112.673 146.448 113.044 146.498 113.407C146.547 113.77 146.572 114.089 146.572 114.363V119.311H144.824ZM138.565 119.311V110.405H140.107V112.978H140.313V119.311H138.565Z" fill="#9699AA"/>
<rect x="1.50074" y="84.3341" width="411.28" height="83.4929" stroke="#B8BAC6" stroke-width="1.03078"/>
<rect x="412.782" y="84.3316" width="102.047" height="83.4929" fill="white"/>
<path d="M442.299 119.556C441.491 119.556 440.777 119.38 440.155 119.028C439.534 118.671 439.045 118.182 438.688 117.56C438.336 116.939 438.16 116.225 438.16 115.416V111.326C438.16 110.518 438.336 109.804 438.688 109.182C439.045 108.561 439.534 108.075 440.155 107.723C440.777 107.365 441.491 107.187 442.299 107.187C443.108 107.187 443.822 107.365 444.443 107.723C445.065 108.075 445.551 108.561 445.903 109.182C446.26 109.804 446.439 110.518 446.439 111.326V115.416C446.439 116.225 446.26 116.939 445.903 117.56C445.551 118.182 445.065 118.671 444.443 119.028C443.822 119.38 443.108 119.556 442.299 119.556ZM442.299 117.907C442.739 117.907 443.138 117.802 443.495 117.593C443.858 117.379 444.147 117.093 444.361 116.736C444.575 116.373 444.683 115.969 444.683 115.524V111.203C444.683 110.763 444.575 110.364 444.361 110.007C444.147 109.644 443.858 109.358 443.495 109.149C443.138 108.935 442.739 108.828 442.299 108.828C441.86 108.828 441.458 108.935 441.095 109.149C440.738 109.358 440.452 109.644 440.238 110.007C440.023 110.364 439.916 110.763 439.916 111.203V115.524C439.916 115.969 440.023 116.373 440.238 116.736C440.452 117.093 440.738 117.379 441.095 117.593C441.458 117.802 441.86 117.907 442.299 117.907Z" fill="#9699AA"/>
<path d="M478.395 119.309L477.241 118.154L487.969 107.434L489.123 108.597L478.395 119.309ZM486.65 119.556C486.105 119.556 485.608 119.424 485.157 119.16C484.712 118.891 484.354 118.534 484.085 118.088C483.816 117.637 483.681 117.137 483.681 116.587C483.681 116.049 483.818 115.554 484.093 115.103C484.368 114.652 484.731 114.292 485.182 114.023C485.633 113.753 486.122 113.619 486.65 113.619C487.194 113.619 487.691 113.753 488.142 114.023C488.593 114.287 488.95 114.644 489.214 115.095C489.484 115.54 489.618 116.038 489.618 116.587C489.618 117.137 489.484 117.637 489.214 118.088C488.95 118.534 488.593 118.891 488.142 119.16C487.691 119.424 487.194 119.556 486.65 119.556ZM486.65 118.063C486.919 118.063 487.164 117.998 487.383 117.866C487.609 117.728 487.788 117.547 487.919 117.321C488.057 117.096 488.126 116.851 488.126 116.587C488.126 116.324 488.057 116.079 487.919 115.853C487.788 115.628 487.609 115.449 487.383 115.317C487.164 115.18 486.919 115.111 486.65 115.111C486.386 115.111 486.141 115.18 485.916 115.317C485.696 115.449 485.517 115.628 485.38 115.853C485.248 116.079 485.182 116.324 485.182 116.587C485.182 116.851 485.248 117.096 485.38 117.321C485.517 117.547 485.696 117.728 485.916 117.866C486.141 117.998 486.386 118.063 486.65 118.063ZM479.715 113.124C479.17 113.124 478.673 112.992 478.222 112.728C477.771 112.459 477.411 112.101 477.142 111.656C476.878 111.205 476.746 110.705 476.746 110.155C476.746 109.617 476.883 109.122 477.158 108.671C477.433 108.22 477.796 107.86 478.247 107.591C478.697 107.321 479.187 107.187 479.715 107.187C480.259 107.187 480.754 107.321 481.199 107.591C481.65 107.855 482.01 108.212 482.279 108.663C482.548 109.108 482.683 109.606 482.683 110.155C482.683 110.705 482.548 111.205 482.279 111.656C482.01 112.101 481.65 112.459 481.199 112.728C480.754 112.992 480.259 113.124 479.715 113.124ZM479.715 111.631C479.978 111.631 480.223 111.565 480.448 111.434C480.674 111.296 480.852 111.115 480.984 110.889C481.122 110.664 481.191 110.419 481.191 110.155C481.191 109.891 481.122 109.647 480.984 109.421C480.852 109.196 480.674 109.017 480.448 108.885C480.223 108.748 479.978 108.679 479.715 108.679C479.451 108.679 479.206 108.748 478.981 108.885C478.761 109.017 478.582 109.196 478.445 109.421C478.307 109.647 478.238 109.891 478.238 110.155C478.238 110.419 478.307 110.664 478.445 110.889C478.582 111.115 478.761 111.296 478.981 111.434C479.2 111.565 479.445 111.631 479.715 111.631Z" fill="#1A2147"/>
<rect x="412.782" y="84.3316" width="102.047" height="83.4929" stroke="#B8BAC6" stroke-width="1.03078"/>
<rect x="514.826" y="84.3326" width="152.555" height="83.4929" fill="white"/>
<path d="M544.344 119.557C543.536 119.557 542.821 119.381 542.2 119.029C541.579 118.672 541.089 118.183 540.732 117.561C540.38 116.94 540.204 116.226 540.204 115.417V111.327C540.204 110.519 540.38 109.804 540.732 109.183C541.089 108.562 541.579 108.076 542.2 107.724C542.821 107.366 543.536 107.188 544.344 107.188C545.152 107.188 545.867 107.366 546.488 107.724C547.109 108.076 547.596 108.562 547.947 109.183C548.305 109.804 548.483 110.519 548.483 111.327V115.417C548.483 116.226 548.305 116.94 547.947 117.561C547.596 118.183 547.109 118.672 546.488 119.029C545.867 119.381 545.152 119.557 544.344 119.557ZM544.344 117.908C544.784 117.908 545.182 117.803 545.54 117.594C545.902 117.38 546.191 117.094 546.405 116.737C546.62 116.374 546.727 115.97 546.727 115.525V111.204C546.727 110.764 546.62 110.365 546.405 110.008C546.191 109.645 545.902 109.359 545.54 109.15C545.182 108.936 544.784 108.829 544.344 108.829C543.904 108.829 543.503 108.936 543.14 109.15C542.783 109.359 542.497 109.645 542.282 110.008C542.068 110.365 541.961 110.764 541.961 111.204V115.525C541.961 115.97 542.068 116.374 542.282 116.737C542.497 117.094 542.783 117.38 543.14 117.594C543.503 117.803 543.904 117.908 544.344 117.908Z" fill="#9699AA"/>
<path d="M639.491 119.557C638.32 119.557 637.316 119.293 636.481 118.765C635.645 118.232 635.002 117.501 634.551 116.572C634.1 115.637 633.872 114.571 633.867 113.372C633.894 112.13 634.131 111.047 634.576 110.123C635.027 109.194 635.667 108.474 636.497 107.963C637.327 107.446 638.325 107.188 639.491 107.188C640.035 107.188 640.56 107.254 641.066 107.386C641.577 107.518 642.05 107.718 642.484 107.988L641.569 109.422C641.266 109.225 640.937 109.076 640.579 108.977C640.222 108.873 639.859 108.82 639.491 108.82C638.644 108.815 637.94 109.005 637.38 109.389C636.824 109.774 636.407 110.31 636.126 110.997C635.851 111.685 635.708 112.476 635.697 113.372C635.708 114.285 635.854 115.085 636.134 115.772C636.415 116.454 636.835 116.984 637.396 117.364C637.957 117.737 638.655 117.922 639.491 117.916C640.26 117.933 640.959 117.737 641.585 117.331L642.492 118.749C642.053 119.018 641.577 119.219 641.066 119.351C640.554 119.488 640.029 119.557 639.491 119.557ZM632.572 115.434V114.049H640.266V115.434H632.572ZM632.572 112.721V111.336H640.266V112.721H632.572Z" fill="#1A2147"/>
<rect x="514.826" y="84.3326" width="152.555" height="83.4929" stroke="#B8BAC6" stroke-width="1.03078"/>
<rect x="769.43" y="84.3326" width="184.509" height="83.4929" fill="#F2F7F8"/>
<path d="M878.3 119.557C877.492 119.557 876.778 119.381 876.156 119.029C875.535 118.672 875.046 118.183 874.689 117.561C874.337 116.94 874.161 116.226 874.161 115.417V111.327C874.161 110.519 874.337 109.804 874.689 109.183C875.046 108.562 875.535 108.076 876.156 107.724C876.778 107.366 877.492 107.188 878.3 107.188C879.109 107.188 879.823 107.366 880.444 107.724C881.066 108.076 881.552 108.562 881.904 109.183C882.261 109.804 882.44 110.519 882.44 111.327V115.417C882.44 116.226 882.261 116.94 881.904 117.561C881.552 118.183 881.066 118.672 880.444 119.029C879.823 119.381 879.109 119.557 878.3 119.557ZM878.3 117.908C878.74 117.908 879.139 117.803 879.496 117.594C879.859 117.38 880.148 117.094 880.362 116.737C880.576 116.374 880.684 115.97 880.684 115.525V111.204C880.684 110.764 880.576 110.365 880.362 110.008C880.148 109.645 879.859 109.359 879.496 109.15C879.139 108.936 878.74 108.829 878.3 108.829C877.861 108.829 877.459 108.936 877.097 109.15C876.739 109.359 876.453 109.645 876.239 110.008C876.025 110.365 875.917 110.764 875.917 111.204V115.525C875.917 115.97 876.025 116.374 876.239 116.737C876.453 117.094 876.739 117.38 877.097 117.594C877.459 117.803 877.861 117.908 878.3 117.908ZM885.039 119.31V117.487H886.862V119.31H885.039ZM893.601 119.557C892.793 119.557 892.078 119.381 891.457 119.029C890.836 118.672 890.347 118.183 889.989 117.561C889.637 116.94 889.461 116.226 889.461 115.417V111.327C889.461 110.519 889.637 109.804 889.989 109.183C890.347 108.562 890.836 108.076 891.457 107.724C892.078 107.366 892.793 107.188 893.601 107.188C894.409 107.188 895.124 107.366 895.745 107.724C896.366 108.076 896.853 108.562 897.205 109.183C897.562 109.804 897.741 110.519 897.741 111.327V115.417C897.741 116.226 897.562 116.94 897.205 117.561C896.853 118.183 896.366 118.672 895.745 119.029C895.124 119.381 894.409 119.557 893.601 119.557ZM893.601 117.908C894.041 117.908 894.439 117.803 894.797 117.594C895.16 117.38 895.448 117.094 895.663 116.737C895.877 116.374 895.984 115.97 895.984 115.525V111.204C895.984 110.764 895.877 110.365 895.663 110.008C895.448 109.645 895.16 109.359 894.797 109.15C894.439 108.936 894.041 108.829 893.601 108.829C893.161 108.829 892.76 108.936 892.397 109.15C892.04 109.359 891.754 109.645 891.54 110.008C891.325 110.365 891.218 110.764 891.218 111.204V115.525C891.218 115.97 891.325 116.374 891.54 116.737C891.754 117.094 892.04 117.38 892.397 117.594C892.76 117.803 893.161 117.908 893.601 117.908ZM904.183 119.557C903.375 119.557 902.66 119.381 902.039 119.029C901.417 118.672 900.928 118.183 900.571 117.561C900.219 116.94 900.043 116.226 900.043 115.417V111.327C900.043 110.519 900.219 109.804 900.571 109.183C900.928 108.562 901.417 108.076 902.039 107.724C902.66 107.366 903.375 107.188 904.183 107.188C904.991 107.188 905.705 107.366 906.327 107.724C906.948 108.076 907.434 108.562 907.786 109.183C908.144 109.804 908.322 110.519 908.322 111.327V115.417C908.322 116.226 908.144 116.94 907.786 117.561C907.434 118.183 906.948 118.672 906.327 119.029C905.705 119.381 904.991 119.557 904.183 119.557ZM904.183 117.908C904.622 117.908 905.021 117.803 905.378 117.594C905.741 117.38 906.03 117.094 906.244 116.737C906.459 116.374 906.566 115.97 906.566 115.525V111.204C906.566 110.764 906.459 110.365 906.244 110.008C906.03 109.645 905.741 109.359 905.378 109.15C905.021 108.936 904.622 108.829 904.183 108.829C903.743 108.829 903.342 108.936 902.979 109.15C902.621 109.359 902.335 109.645 902.121 110.008C901.907 110.365 901.799 110.764 901.799 111.204V115.525C901.799 115.97 901.907 116.374 902.121 116.737C902.335 117.094 902.621 117.38 902.979 117.594C903.342 117.803 903.743 117.908 904.183 117.908Z" fill="#1A2147"/>
<path d="M926.049 119.557C924.878 119.557 923.875 119.293 923.039 118.765C922.203 118.232 921.56 117.501 921.109 116.572C920.659 115.637 920.43 114.571 920.425 113.372C920.452 112.13 920.689 111.047 921.134 110.123C921.585 109.194 922.225 108.474 923.055 107.963C923.886 107.446 924.883 107.188 926.049 107.188C926.593 107.188 927.118 107.254 927.624 107.386C928.135 107.518 928.608 107.718 929.042 107.988L928.127 109.422C927.824 109.225 927.495 109.076 927.137 108.977C926.78 108.873 926.417 108.82 926.049 108.82C925.202 108.815 924.499 109.005 923.938 109.389C923.383 109.774 922.965 110.31 922.684 110.997C922.409 111.685 922.267 112.476 922.256 113.372C922.267 114.285 922.412 115.085 922.693 115.772C922.973 116.454 923.394 116.984 923.954 117.364C924.515 117.737 925.213 117.922 926.049 117.916C926.818 117.933 927.517 117.737 928.143 117.331L929.05 118.749C928.611 119.018 928.135 119.219 927.624 119.351C927.113 119.488 926.588 119.557 926.049 119.557ZM919.13 115.434V114.049H926.824V115.434H919.13ZM919.13 112.721V111.336H926.824V112.721H919.13Z" fill="#1A2147"/>
<rect x="769.43" y="84.3326" width="184.509" height="83.4929" stroke="#B8BAC6" stroke-width="1.03078"/>
<rect x="667.382" y="84.3326" width="102.047" height="83.4929" fill="white"/>
<path d="M696.899 119.557C696.091 119.557 695.376 119.381 694.755 119.029C694.134 118.672 693.645 118.183 693.287 117.561C692.935 116.94 692.759 116.226 692.759 115.417V111.327C692.759 110.519 692.935 109.804 693.287 109.183C693.645 108.562 694.134 108.076 694.755 107.724C695.376 107.366 696.091 107.188 696.899 107.188C697.707 107.188 698.422 107.366 699.043 107.724C699.664 108.076 700.151 108.562 700.503 109.183C700.86 109.804 701.039 110.519 701.039 111.327V115.417C701.039 116.226 700.86 116.94 700.503 117.561C700.151 118.183 699.664 118.672 699.043 119.029C698.422 119.381 697.707 119.557 696.899 119.557ZM696.899 117.908C697.339 117.908 697.737 117.803 698.095 117.594C698.458 117.38 698.746 117.094 698.961 116.737C699.175 116.374 699.282 115.97 699.282 115.525V111.204C699.282 110.764 699.175 110.365 698.961 110.008C698.746 109.645 698.458 109.359 698.095 109.15C697.737 108.936 697.339 108.829 696.899 108.829C696.459 108.829 696.058 108.936 695.695 109.15C695.338 109.359 695.052 109.645 694.837 110.008C694.623 110.365 694.516 110.764 694.516 111.204V115.525C694.516 115.97 694.623 116.374 694.837 116.737C695.052 117.094 695.338 117.38 695.695 117.594C696.058 117.803 696.459 117.908 696.899 117.908Z" fill="#9699AA"/>
<rect x="667.382" y="84.3326" width="102.047" height="83.4929" stroke="#B8BAC6" stroke-width="1.03078"/>
</svg>
